{"glyphs":{"0":{"ha":811,"x_min":72,"x_max":739,"o":"m 406 -28 q 72 458 72 -28 q 406 944 72 944 q 739 458 739 944 q 406 -28 739 -28 m 406 28 q 523 74 481 28 q 583 213 565 119 q 600 458 600 307 q 583 703 600 610 q 523 843 565 797 q 406 889 481 889 q 288 843 331 889 q 228 703 246 797 q 211 458 211 610 q 228 213 211 307 q 288 74 246 119 q 406 28 331 28 z "},"1":{"ha":424,"x_min":19,"x_max":304,"o":"m 179 0 l 179 778 l 44 690 l 19 722 l 235 917 l 304 917 l 304 0 l 179 0 z "},"2":{"ha":736,"x_min":57,"x_max":668,"o":"m 57 69 q 169 176 131 140 q 371 378 307 308 q 472 521 435 447 q 508 681 508 594 q 456 835 508 781 q 328 889 404 889 q 181 828 243 889 q 99 653 119 767 l 71 653 q 76 763 71 722 q 104 833 82 804 q 216 913 143 881 q 369 944 289 944 q 563 887 479 944 q 647 681 647 829 q 606 517 647 593 q 501 374 565 440 q 318 204 436 308 q 154 56 196 94 l 467 56 q 596 92 551 56 q 640 201 640 128 l 668 201 l 668 111 q 550 0 668 0 l 57 0 l 57 69 z "},"3":{"ha":736,"x_min":56,"x_max":682,"o":"m 369 -28 q 194 10 269 -28 q 56 121 118 49 l 78 146 q 194 57 132 86 q 335 28 257 28 q 484 85 425 28 q 543 257 543 143 q 517 375 543 326 q 449 448 490 424 q 363 472 407 472 q 276 468 304 472 q 196 451 249 464 l 160 510 l 536 861 l 279 861 q 150 825 194 861 q 106 715 106 789 l 78 715 l 78 806 q 196 917 78 917 l 638 917 l 638 861 l 265 514 q 390 528 319 528 q 513 505 446 528 q 631 422 579 482 q 682 257 682 361 q 630 82 682 146 q 507 -5 578 18 q 369 -28 436 -28 z "},"4":{"ha":758,"x_min":25,"x_max":719,"o":"m 469 0 l 469 236 l 25 236 l 25 292 l 483 917 l 594 917 l 594 292 l 719 292 l 719 236 l 594 236 l 594 0 l 469 0 m 108 292 l 469 292 l 469 783 l 108 292 z "},"5":{"ha":736,"x_min":58,"x_max":683,"o":"m 357 -28 q 189 8 258 -28 q 58 118 119 44 l 85 142 q 199 56 138 83 q 336 28 260 28 q 485 85 426 28 q 544 257 544 143 q 487 418 544 364 q 322 472 429 472 q 204 465 260 472 l 149 458 l 93 514 l 107 917 l 628 917 l 628 861 l 221 861 l 208 521 l 253 524 q 350 528 332 528 q 583 467 483 528 q 683 257 683 407 q 630 84 683 147 q 503 -3 576 21 q 357 -28 429 -28 z "},"6":{"ha":746,"x_min":72,"x_max":690,"o":"m 392 -28 q 150 93 228 -28 q 72 458 72 214 q 158 823 72 701 q 419 944 243 944 q 635 903 524 944 l 628 875 q 447 889 542 889 q 265 795 325 889 q 204 535 204 701 q 295 581 246 564 q 413 597 344 597 q 622 515 554 597 q 690 285 690 432 q 657 131 690 201 q 556 16 624 60 q 392 -28 488 -28 m 392 28 q 513 104 468 28 q 558 285 558 181 q 371 542 558 542 q 282 524 321 542 q 204 472 243 507 q 254 135 204 243 q 392 28 304 28 z "},"7":{"ha":658,"x_min":36,"x_max":640,"o":"m 515 861 l 238 861 q 108 825 153 861 q 64 715 64 789 l 36 715 l 36 806 q 154 917 36 917 l 640 917 l 640 861 l 293 0 l 168 0 l 515 861 z "},"8":{"ha":769,"x_min":65,"x_max":704,"o":"m 385 -28 q 156 31 246 -28 q 65 208 65 90 q 126 362 65 303 q 288 465 186 421 q 149 572 197 518 q 100 708 100 625 q 178 890 100 835 q 385 944 257 944 q 590 892 511 944 q 669 722 669 839 q 621 588 669 646 q 496 493 572 531 q 605 419 563 453 q 676 338 647 386 q 704 222 704 289 q 615 33 704 94 q 385 -28 525 -28 m 433 528 q 510 608 483 564 q 538 722 538 651 q 493 851 538 813 q 385 889 449 889 q 277 853 322 889 q 232 736 232 817 q 433 528 232 622 m 385 28 q 517 72 463 28 q 572 194 572 115 q 543 293 572 250 q 469 367 514 336 q 350 438 424 399 q 238 351 278 401 q 197 208 197 300 q 251 74 197 119 q 385 28 306 28 z "},"9":{"ha":744,"x_min":54,"x_max":672,"o":"m 325 -28 q 110 14 221 -28 l 117 42 q 297 28 203 28 q 480 122 419 28 q 540 382 540 215 q 449 336 499 353 q 332 319 400 319 q 122 402 190 319 q 54 632 54 485 q 88 786 54 715 q 189 901 121 857 q 353 944 257 944 q 594 823 517 944 q 672 458 672 701 q 587 94 672 215 q 325 -28 501 -28 m 374 375 q 463 392 424 375 q 540 444 501 410 q 490 781 540 674 q 353 889 440 889 q 231 813 276 889 q 186 632 186 736 q 374 375 186 375 z "},"\u0000":{"ha":0,"x_min":0,"x_max":0,"o":""},"\r":{"ha":347,"x_min":0,"x_max":0,"o":""}," ":{"ha":347,"x_min":0,"x_max":0,"o":""},"A":{"ha":882,"x_min":31,"x_max":919,"o":"m 864 -7 q 732 30 797 -7 q 628 174 667 67 l 593 264 l 204 264 l 93 0 l 31 0 l 419 917 l 461 917 l 767 174 q 832 63 801 93 q 919 28 863 33 l 919 0 q 864 -7 894 -7 m 225 319 l 565 319 l 399 722 l 225 319 z "},"Á":{"ha":882,"x_min":31,"x_max":919,"o":"m 864 -7 q 732 30 797 -7 q 628 174 667 67 l 593 264 l 204 264 l 93 0 l 31 0 l 419 917 l 461 917 l 767 174 q 832 63 801 93 q 919 28 863 33 l 919 0 q 864 -7 894 -7 m 225 319 l 565 319 l 399 722 l 225 319 m 419 972 l 475 1153 l 607 1153 l 475 972 l 419 972 z "},"Ă":{"ha":882,"x_min":31,"x_max":919,"o":"m 864 -7 q 732 30 797 -7 q 628 174 667 67 l 593 264 l 204 264 l 93 0 l 31 0 l 419 917 l 461 917 l 767 174 q 832 63 801 93 q 919 28 863 33 l 919 0 q 864 -7 894 -7 m 225 319 l 565 319 l 399 722 l 225 319 m 442 974 q 261 1085 322 974 l 289 1106 q 351 1064 317 1078 q 442 1050 386 1050 q 532 1064 497 1050 q 594 1106 567 1078 l 622 1085 q 442 974 561 974 z "},"Ắ":{"ha":882,"x_min":31,"x_max":919,"o":"m 864 -7 q 732 30 797 -7 q 628 174 667 67 l 593 264 l 204 264 l 93 0 l 31 0 l 419 917 l 461 917 l 767 174 q 832 63 801 93 q 919 28 863 33 l 919 0 q 864 -7 894 -7 m 225 319 l 565 319 l 399 722 l 225 319 m 442 974 q 261 1085 322 974 l 289 1106 q 351 1064 317 1078 q 442 1050 386 1050 q 532 1064 497 1050 q 594 1106 567 1078 l 622 1085 q 442 974 561 974 m 403 1168 l 458 1349 l 590 1349 l 458 1168 l 403 1168 z "},"Ặ":{"ha":882,"x_min":31,"x_max":919,"o":"m 864 -7 q 732 30 797 -7 q 628 174 667 67 l 593 264 l 204 264 l 93 0 l 31 0 l 419 917 l 461 917 l 767 174 q 832 63 801 93 q 919 28 863 33 l 919 0 q 864 -7 894 -7 m 225 319 l 565 319 l 399 722 l 225 319 m 442 -218 q 398 -199 417 -218 q 379 -154 379 -181 q 398 -111 379 -129 q 442 -93 417 -93 q 485 -111 468 -93 q 503 -154 503 -129 q 485 -199 503 -181 q 442 -218 467 -218 m 442 974 q 261 1085 322 974 l 289 1106 q 351 1064 317 1078 q 442 1050 386 1050 q 532 1064 497 1050 q 594 1106 567 1078 l 622 1085 q 442 974 561 974 z "},"Ằ":{"ha":882,"x_min":31,"x_max":919,"o":"m 864 -7 q 732 30 797 -7 q 628 174 667 67 l 593 264 l 204 264 l 93 0 l 31 0 l 419 917 l 461 917 l 767 174 q 832 63 801 93 q 919 28 863 33 l 919 0 q 864 -7 894 -7 m 225 319 l 565 319 l 399 722 l 225 319 m 442 974 q 261 1085 322 974 l 289 1106 q 351 1064 317 1078 q 442 1050 386 1050 q 532 1064 497 1050 q 594 1106 567 1078 l 622 1085 q 442 974 561 974 m 428 1168 l 296 1349 l 428 1349 l 483 1168 l 428 1168 z "},"Ẳ":{"ha":882,"x_min":31,"x_max":919,"o":"m 864 -7 q 732 30 797 -7 q 628 174 667 67 l 593 264 l 204 264 l 93 0 l 31 0 l 419 917 l 461 917 l 767 174 q 832 63 801 93 q 919 28 863 33 l 919 0 q 864 -7 894 -7 m 225 319 l 565 319 l 399 722 l 225 319 m 442 974 q 261 1085 322 974 l 289 1106 q 351 1064 317 1078 q 442 1050 386 1050 q 532 1064 497 1050 q 594 1106 567 1078 l 622 1085 q 442 974 561 974 m 414 1122 q 423 1170 415 1150 q 444 1214 431 1190 q 457 1238 451 1226 q 463 1261 463 1250 q 451 1292 463 1281 q 417 1303 439 1303 q 373 1288 389 1303 q 350 1233 357 1272 l 292 1235 q 326 1322 292 1290 q 417 1354 360 1354 q 498 1334 463 1354 q 533 1275 533 1314 q 525 1242 533 1257 q 500 1208 517 1228 q 469 1167 481 1186 q 457 1122 458 1149 l 414 1122 z "},"Ẵ":{"ha":882,"x_min":31,"x_max":919,"o":"m 864 -7 q 732 30 797 -7 q 628 174 667 67 l 593 264 l 204 264 l 93 0 l 31 0 l 419 917 l 461 917 l 767 174 q 832 63 801 93 q 919 28 863 33 l 919 0 q 864 -7 894 -7 m 225 319 l 565 319 l 399 722 l 225 319 m 442 974 q 261 1085 322 974 l 289 1106 q 351 1064 317 1078 q 442 1050 386 1050 q 532 1064 497 1050 q 594 1106 567 1078 l 622 1085 q 442 974 561 974 m 285 1156 q 305 1258 285 1228 q 368 1288 325 1288 q 406 1280 389 1288 q 444 1258 424 1272 q 463 1248 449 1256 q 489 1236 476 1240 q 514 1232 501 1232 q 542 1251 529 1232 q 556 1288 556 1271 l 597 1288 q 577 1185 597 1215 q 514 1156 557 1156 q 477 1163 494 1156 q 439 1183 460 1169 q 401 1204 415 1197 q 368 1211 386 1211 q 340 1192 353 1211 q 326 1156 326 1172 l 285 1156 z "},"Â":{"ha":882,"x_min":31,"x_max":919,"o":"m 864 -7 q 732 30 797 -7 q 628 174 667 67 l 593 264 l 204 264 l 93 0 l 31 0 l 419 917 l 461 917 l 767 174 q 832 63 801 93 q 919 28 863 33 l 919 0 q 864 -7 894 -7 m 225 319 l 565 319 l 399 722 l 225 319 m 253 951 l 364 1111 l 517 1111 l 628 951 l 558 951 l 440 1063 l 322 951 l 253 951 z "},"Ấ":{"ha":882,"x_min":31,"x_max":919,"o":"m 864 -7 q 732 30 797 -7 q 628 174 667 67 l 593 264 l 204 264 l 93 0 l 31 0 l 419 917 l 461 917 l 767 174 q 832 63 801 93 q 919 28 863 33 l 919 0 q 864 -7 894 -7 m 225 319 l 565 319 l 399 722 l 225 319 m 254 986 l 365 1146 l 518 1146 l 629 986 l 560 986 l 442 1097 l 324 986 l 254 986 m 615 1065 l 671 1246 l 803 1246 l 671 1065 l 615 1065 z "},"Ậ":{"ha":882,"x_min":31,"x_max":919,"o":"m 864 -7 q 732 30 797 -7 q 628 174 667 67 l 593 264 l 204 264 l 93 0 l 31 0 l 419 917 l 461 917 l 767 174 q 832 63 801 93 q 919 28 863 33 l 919 0 q 864 -7 894 -7 m 225 319 l 565 319 l 399 722 l 225 319 m 442 -218 q 398 -199 417 -218 q 379 -154 379 -181 q 398 -111 379 -129 q 442 -93 417 -93 q 485 -111 468 -93 q 503 -154 503 -129 q 485 -199 503 -181 q 442 -218 467 -218 m 254 986 l 365 1146 l 518 1146 l 629 986 l 560 986 l 442 1097 l 324 986 l 254 986 z "},"Ầ":{"ha":882,"x_min":31,"x_max":919,"o":"m 864 -7 q 732 30 797 -7 q 628 174 667 67 l 593 264 l 204 264 l 93 0 l 31 0 l 419 917 l 461 917 l 767 174 q 832 63 801 93 q 919 28 863 33 l 919 0 q 864 -7 894 -7 m 225 319 l 565 319 l 399 722 l 225 319 m 254 986 l 365 1146 l 518 1146 l 629 986 l 560 986 l 442 1097 l 324 986 l 254 986 m 619 1101 l 488 1282 l 619 1282 l 675 1101 l 619 1101 z "},"Ẩ":{"ha":882,"x_min":31,"x_max":919,"o":"m 864 -7 q 732 30 797 -7 q 628 174 667 67 l 593 264 l 204 264 l 93 0 l 31 0 l 419 917 l 461 917 l 767 174 q 832 63 801 93 q 919 28 863 33 l 919 0 q 864 -7 894 -7 m 225 319 l 565 319 l 399 722 l 225 319 m 254 986 l 365 1146 l 518 1146 l 629 986 l 560 986 l 442 1097 l 324 986 l 254 986 m 603 1108 q 612 1156 604 1136 q 633 1200 619 1176 q 646 1224 640 1213 q 651 1247 651 1236 q 640 1278 651 1267 q 606 1289 628 1289 q 562 1274 578 1289 q 539 1219 546 1258 l 481 1221 q 515 1308 481 1276 q 606 1340 549 1340 q 687 1320 651 1340 q 722 1261 722 1300 q 714 1228 722 1243 q 689 1194 706 1214 q 658 1153 669 1172 q 646 1108 647 1135 l 603 1108 z "},"Ẫ":{"ha":882,"x_min":31,"x_max":919,"o":"m 864 -7 q 732 30 797 -7 q 628 174 667 67 l 593 264 l 204 264 l 93 0 l 31 0 l 419 917 l 461 917 l 767 174 q 832 63 801 93 q 919 28 863 33 l 919 0 q 864 -7 894 -7 m 225 319 l 565 319 l 399 722 l 225 319 m 254 986 l 365 1146 l 518 1146 l 629 986 l 560 986 l 442 1097 l 324 986 l 254 986 m 285 1192 q 305 1294 285 1264 q 368 1324 325 1324 q 406 1316 389 1324 q 444 1294 424 1308 q 463 1284 449 1292 q 489 1272 476 1276 q 514 1268 501 1268 q 542 1288 529 1268 q 556 1324 556 1307 l 597 1324 q 577 1222 597 1251 q 514 1192 557 1192 q 477 1199 494 1192 q 439 1219 460 1206 q 401 1240 415 1233 q 368 1247 386 1247 q 340 1228 353 1247 q 326 1192 326 1208 l 285 1192 z "},"Ä":{"ha":882,"x_min":31,"x_max":919,"o":"m 864 -7 q 732 30 797 -7 q 628 174 667 67 l 593 264 l 204 264 l 93 0 l 31 0 l 419 917 l 461 917 l 767 174 q 832 63 801 93 q 919 28 863 33 l 919 0 q 864 -7 894 -7 m 225 319 l 565 319 l 399 722 l 225 319 m 322 958 q 272 977 290 958 q 253 1028 253 996 q 272 1078 253 1060 q 322 1097 290 1097 q 373 1078 354 1097 q 392 1028 392 1060 q 373 977 392 996 q 322 958 354 958 m 558 958 q 508 977 526 958 q 489 1028 489 996 q 508 1078 489 1060 q 558 1097 526 1097 q 609 1078 590 1097 q 628 1028 628 1060 q 609 977 628 996 q 558 958 590 958 z "},"Ạ":{"ha":882,"x_min":31,"x_max":919,"o":"m 864 -7 q 732 30 797 -7 q 628 174 667 67 l 593 264 l 204 264 l 93 0 l 31 0 l 419 917 l 461 917 l 767 174 q 832 63 801 93 q 919 28 863 33 l 919 0 q 864 -7 894 -7 m 225 319 l 565 319 l 399 722 l 225 319 m 442 -218 q 398 -199 417 -218 q 379 -154 379 -181 q 398 -111 379 -129 q 442 -93 417 -93 q 485 -111 468 -93 q 503 -154 503 -129 q 485 -199 503 -181 q 442 -218 467 -218 z "},"À":{"ha":882,"x_min":31,"x_max":919,"o":"m 864 -7 q 732 30 797 -7 q 628 174 667 67 l 593 264 l 204 264 l 93 0 l 31 0 l 419 917 l 461 917 l 767 174 q 832 63 801 93 q 919 28 863 33 l 919 0 q 864 -7 894 -7 m 225 319 l 565 319 l 399 722 l 225 319 m 428 979 l 296 1160 l 428 1160 l 483 979 l 428 979 z "},"Ả":{"ha":882,"x_min":31,"x_max":919,"o":"m 864 -7 q 732 30 797 -7 q 628 174 667 67 l 593 264 l 204 264 l 93 0 l 31 0 l 419 917 l 461 917 l 767 174 q 832 63 801 93 q 919 28 863 33 l 919 0 q 864 -7 894 -7 m 225 319 l 565 319 l 399 722 l 225 319 m 443 988 q 452 1035 444 1015 q 474 1079 460 1056 q 486 1103 481 1092 q 492 1126 492 1115 q 480 1157 492 1146 q 446 1168 468 1168 q 402 1153 418 1168 q 379 1099 386 1138 l 321 1100 q 355 1188 321 1156 q 446 1219 389 1219 q 527 1199 492 1219 q 563 1140 563 1179 q 554 1108 563 1122 q 529 1074 546 1093 q 499 1033 510 1051 q 486 988 488 1014 l 443 988 z "},"Å":{"ha":883,"x_min":31,"x_max":919,"o":"m 864 -7 q 732 30 797 -7 q 628 174 667 67 l 593 264 l 204 264 l 93 0 l 31 0 l 399 868 q 344 909 367 882 q 322 979 322 936 q 358 1062 322 1026 q 440 1097 393 1097 q 523 1062 488 1097 q 558 979 558 1026 q 536 909 558 936 q 482 868 514 882 l 767 174 q 832 63 801 93 q 919 28 863 33 l 919 0 q 864 -7 894 -7 m 468 917 q 503 979 503 942 q 485 1030 503 1011 q 440 1049 467 1049 q 396 1030 414 1049 q 378 979 378 1011 q 413 917 378 942 l 468 917 m 225 319 l 565 319 l 399 722 l 225 319 z "},"Ã":{"ha":882,"x_min":31,"x_max":919,"o":"m 864 -7 q 732 30 797 -7 q 628 174 667 67 l 593 264 l 204 264 l 93 0 l 31 0 l 419 917 l 461 917 l 767 174 q 832 63 801 93 q 919 28 863 33 l 919 0 q 864 -7 894 -7 m 225 319 l 565 319 l 399 722 l 225 319 m 290 972 q 310 1074 290 1044 q 374 1104 331 1104 q 412 1097 394 1104 q 450 1075 429 1089 q 468 1065 454 1072 q 494 1053 482 1057 q 519 1049 507 1049 q 548 1068 535 1049 q 561 1104 561 1088 l 603 1104 q 583 1002 603 1032 q 519 972 563 972 q 483 979 500 972 q 444 1000 465 986 q 406 1021 421 1014 q 374 1028 392 1028 q 345 1008 358 1028 q 332 972 332 989 l 290 972 z "},"Æ":{"ha":1201,"x_min":-19,"x_max":1161,"o":"m 494 917 l 996 917 q 1114 806 1114 917 l 1114 701 l 1086 701 q 913 861 1086 861 l 654 861 l 654 500 l 1029 500 l 1029 444 l 654 444 l 654 56 l 897 56 q 1047 90 993 56 q 1133 208 1101 125 l 1161 201 l 1113 69 q 1008 0 1088 0 l 529 0 l 529 264 l 196 264 l 50 0 l -19 0 l 494 917 m 231 319 l 529 319 l 529 854 l 231 319 z "},"B":{"ha":864,"x_min":22,"x_max":807,"o":"m 147 750 q 128 855 147 821 q 50 889 108 889 l 22 889 l 22 917 l 383 917 q 647 867 535 917 q 758 674 758 817 q 714 556 758 608 q 578 472 669 503 q 756 397 706 451 q 807 250 807 342 q 697 55 807 110 q 425 0 586 0 l 147 0 l 147 750 m 404 493 q 512 515 461 493 q 594 578 563 536 q 626 681 626 621 q 589 785 626 743 q 494 848 551 828 q 376 868 436 868 q 272 854 328 868 l 272 493 l 404 493 m 404 49 q 599 99 531 49 q 668 243 668 149 q 601 388 668 338 q 404 438 533 438 l 272 438 l 272 68 q 404 49 339 49 z "},"C":{"ha":924,"x_min":61,"x_max":874,"o":"m 492 -28 q 265 35 363 -28 q 114 205 167 97 q 61 444 61 313 q 119 696 61 581 q 276 878 176 811 q 492 944 375 944 q 687 913 603 944 q 811 833 771 882 q 840 756 835 804 q 846 625 846 708 l 818 625 q 721 824 792 760 q 533 889 650 889 q 292 783 383 889 q 200 444 200 678 q 235 240 200 335 q 346 87 271 146 q 533 28 421 28 q 710 76 635 28 q 846 222 786 125 l 874 201 q 716 24 810 76 q 492 -28 622 -28 z "},"Ç":{"ha":924,"x_min":61,"x_max":874,"o":"m 450 -215 l 519 -215 q 575 -171 575 -215 q 519 -125 575 -125 l 457 -125 l 457 -28 q 248 43 338 -21 q 110 212 158 107 q 61 444 61 317 q 119 696 61 581 q 276 878 176 811 q 492 944 375 944 q 687 913 603 944 q 811 833 771 882 q 840 756 835 804 q 846 625 846 708 l 818 625 q 721 824 792 760 q 533 889 650 889 q 292 783 383 889 q 200 444 200 678 q 235 240 200 335 q 346 87 271 146 q 533 28 421 28 q 710 76 635 28 q 846 222 786 125 l 874 201 q 726 31 813 83 q 519 -28 639 -22 l 519 -69 l 533 -69 q 613 -96 582 -69 q 644 -171 644 -122 q 613 -245 644 -218 q 533 -272 582 -272 l 450 -272 l 450 -215 z "},"D":{"ha":993,"x_min":22,"x_max":932,"o":"m 147 750 q 128 855 147 821 q 50 889 108 889 l 22 889 l 22 917 l 386 917 q 794 797 656 917 q 932 464 932 678 q 874 222 932 326 q 701 58 815 117 q 422 0 586 0 l 147 0 l 147 750 m 418 49 q 603 99 521 49 q 733 242 686 150 q 781 458 781 335 q 734 672 781 579 q 604 817 688 765 q 415 868 521 868 q 276 846 349 868 l 276 67 q 418 49 354 49 z "},"Ð":{"ha":993,"x_min":22,"x_max":932,"o":"m 147 431 l 43 431 l 43 486 l 147 486 l 147 750 q 128 855 147 821 q 50 889 108 889 l 22 889 l 22 917 l 386 917 q 794 797 656 917 q 932 464 932 678 q 874 222 932 326 q 701 58 815 117 q 422 0 586 0 l 147 0 l 147 431 m 418 49 q 603 99 521 49 q 733 242 686 150 q 781 458 781 335 q 734 672 781 579 q 604 817 688 765 q 415 868 521 868 q 276 846 349 868 l 276 486 l 397 486 l 397 431 l 276 431 l 276 67 q 418 49 354 49 z "},"Đ":{"ha":993,"x_min":22,"x_max":932,"o":"m 147 431 l 43 431 l 43 486 l 147 486 l 147 750 q 128 855 147 821 q 50 889 108 889 l 22 889 l 22 917 l 386 917 q 794 797 656 917 q 932 464 932 678 q 874 222 932 326 q 701 58 815 117 q 422 0 586 0 l 147 0 l 147 431 m 418 49 q 603 99 521 49 q 733 242 686 150 q 781 458 781 335 q 734 672 781 579 q 604 817 688 765 q 415 868 521 868 q 276 846 349 868 l 276 486 l 397 486 l 397 431 l 276 431 l 276 67 q 418 49 354 49 z "},"E":{"ha":819,"x_min":22,"x_max":779,"o":"m 147 750 q 128 855 147 821 q 50 889 108 889 l 22 889 l 22 917 l 614 917 q 732 806 732 917 l 732 701 l 704 701 q 531 861 704 861 l 272 861 l 272 500 l 647 500 l 647 444 l 272 444 l 272 56 l 515 56 q 665 90 611 56 q 751 208 719 125 l 779 201 l 731 69 q 626 0 706 0 l 147 0 l 147 750 z "},"É":{"ha":819,"x_min":22,"x_max":779,"o":"m 147 750 q 128 855 147 821 q 50 889 108 889 l 22 889 l 22 917 l 614 917 q 732 806 732 917 l 732 701 l 704 701 q 531 861 704 861 l 272 861 l 272 500 l 647 500 l 647 444 l 272 444 l 272 56 l 515 56 q 665 90 611 56 q 751 208 719 125 l 779 201 l 731 69 q 626 0 706 0 l 147 0 l 147 750 m 383 972 l 439 1153 l 571 1153 l 439 972 l 383 972 z "},"Ê":{"ha":819,"x_min":22,"x_max":779,"o":"m 147 750 q 128 855 147 821 q 50 889 108 889 l 22 889 l 22 917 l 614 917 q 732 806 732 917 l 732 701 l 704 701 q 531 861 704 861 l 272 861 l 272 500 l 647 500 l 647 444 l 272 444 l 272 56 l 515 56 q 665 90 611 56 q 751 208 719 125 l 779 201 l 731 69 q 626 0 706 0 l 147 0 l 147 750 m 231 1001 l 342 1161 l 494 1161 l 606 1001 l 536 1001 l 418 1113 l 300 1001 l 231 1001 z "},"Ế":{"ha":819,"x_min":22,"x_max":779,"o":"m 147 750 q 128 855 147 821 q 50 889 108 889 l 22 889 l 22 917 l 614 917 q 732 806 732 917 l 732 701 l 704 701 q 531 861 704 861 l 272 861 l 272 500 l 647 500 l 647 444 l 272 444 l 272 56 l 515 56 q 665 90 611 56 q 751 208 719 125 l 779 201 l 731 69 q 626 0 706 0 l 147 0 l 147 750 m 222 986 l 333 1146 l 486 1146 l 597 986 l 528 986 l 410 1097 l 292 986 l 222 986 m 583 1065 l 639 1246 l 771 1246 l 639 1065 l 583 1065 z "},"Ệ":{"ha":819,"x_min":22,"x_max":779,"o":"m 147 750 q 128 855 147 821 q 50 889 108 889 l 22 889 l 22 917 l 614 917 q 732 806 732 917 l 732 701 l 704 701 q 531 861 704 861 l 272 861 l 272 500 l 647 500 l 647 444 l 272 444 l 272 56 l 515 56 q 665 90 611 56 q 751 208 719 125 l 779 201 l 731 69 q 626 0 706 0 l 147 0 l 147 750 m 410 -218 q 366 -199 385 -218 q 347 -154 347 -181 q 366 -111 347 -129 q 410 -93 385 -93 q 453 -111 436 -93 q 471 -154 471 -129 q 453 -199 471 -181 q 410 -218 435 -218 m 222 986 l 333 1146 l 486 1146 l 597 986 l 528 986 l 410 1097 l 292 986 l 222 986 z "},"Ề":{"ha":819,"x_min":22,"x_max":779,"o":"m 147 750 q 128 855 147 821 q 50 889 108 889 l 22 889 l 22 917 l 614 917 q 732 806 732 917 l 732 701 l 704 701 q 531 861 704 861 l 272 861 l 272 500 l 647 500 l 647 444 l 272 444 l 272 56 l 515 56 q 665 90 611 56 q 751 208 719 125 l 779 201 l 731 69 q 626 0 706 0 l 147 0 l 147 750 m 222 986 l 333 1146 l 486 1146 l 597 986 l 528 986 l 410 1097 l 292 986 l 222 986 m 588 1101 l 456 1282 l 588 1282 l 643 1101 l 588 1101 z "},"Ể":{"ha":819,"x_min":22,"x_max":779,"o":"m 147 750 q 128 855 147 821 q 50 889 108 889 l 22 889 l 22 917 l 614 917 q 732 806 732 917 l 732 701 l 704 701 q 531 861 704 861 l 272 861 l 272 500 l 647 500 l 647 444 l 272 444 l 272 56 l 515 56 q 665 90 611 56 q 751 208 719 125 l 779 201 l 731 69 q 626 0 706 0 l 147 0 l 147 750 m 222 986 l 333 1146 l 486 1146 l 597 986 l 528 986 l 410 1097 l 292 986 l 222 986 m 571 1108 q 580 1156 572 1136 q 601 1200 588 1176 q 614 1224 608 1213 q 619 1247 619 1236 q 608 1278 619 1267 q 574 1289 596 1289 q 530 1274 546 1289 q 507 1219 514 1258 l 449 1221 q 483 1308 449 1276 q 574 1340 517 1340 q 655 1320 619 1340 q 690 1261 690 1300 q 682 1228 690 1243 q 657 1194 674 1214 q 626 1153 638 1172 q 614 1108 615 1135 l 571 1108 z "},"Ễ":{"ha":819,"x_min":22,"x_max":779,"o":"m 147 750 q 128 855 147 821 q 50 889 108 889 l 22 889 l 22 917 l 614 917 q 732 806 732 917 l 732 701 l 704 701 q 531 861 704 861 l 272 861 l 272 500 l 647 500 l 647 444 l 272 444 l 272 56 l 515 56 q 665 90 611 56 q 751 208 719 125 l 779 201 l 731 69 q 626 0 706 0 l 147 0 l 147 750 m 222 986 l 333 1146 l 486 1146 l 597 986 l 528 986 l 410 1097 l 292 986 l 222 986 m 253 1192 q 273 1294 253 1264 q 336 1324 293 1324 q 374 1316 357 1324 q 413 1294 392 1308 q 431 1284 417 1292 q 457 1272 444 1276 q 482 1268 469 1268 q 510 1288 497 1268 q 524 1324 524 1307 l 565 1324 q 545 1222 565 1251 q 482 1192 525 1192 q 445 1199 463 1192 q 407 1219 428 1206 q 369 1240 383 1233 q 336 1247 354 1247 q 308 1228 321 1247 q 294 1192 294 1208 l 253 1192 z "},"Ë":{"ha":819,"x_min":22,"x_max":779,"o":"m 147 750 q 128 855 147 821 q 50 889 108 889 l 22 889 l 22 917 l 614 917 q 732 806 732 917 l 732 701 l 704 701 q 531 861 704 861 l 272 861 l 272 500 l 647 500 l 647 444 l 272 444 l 272 56 l 515 56 q 665 90 611 56 q 751 208 719 125 l 779 201 l 731 69 q 626 0 706 0 l 147 0 l 147 750 m 286 1014 q 235 1033 254 1014 q 217 1083 217 1051 q 235 1134 217 1115 q 286 1153 254 1153 q 337 1134 318 1153 q 356 1083 356 1115 q 337 1033 356 1051 q 286 1014 318 1014 m 522 1014 q 472 1033 490 1014 q 453 1083 453 1051 q 472 1134 453 1115 q 522 1153 490 1153 q 573 1134 554 1153 q 592 1083 592 1115 q 573 1033 592 1051 q 522 1014 554 1014 z "},"Ẹ":{"ha":819,"x_min":22,"x_max":779,"o":"m 147 750 q 128 855 147 821 q 50 889 108 889 l 22 889 l 22 917 l 614 917 q 732 806 732 917 l 732 701 l 704 701 q 531 861 704 861 l 272 861 l 272 500 l 647 500 l 647 444 l 272 444 l 272 56 l 515 56 q 665 90 611 56 q 751 208 719 125 l 779 201 l 731 69 q 626 0 706 0 l 147 0 l 147 750 m 410 -218 q 366 -199 385 -218 q 347 -154 347 -181 q 366 -111 347 -129 q 410 -93 385 -93 q 453 -111 436 -93 q 471 -154 471 -129 q 453 -199 471 -181 q 410 -218 435 -218 z "},"È":{"ha":819,"x_min":22,"x_max":779,"o":"m 147 750 q 128 855 147 821 q 50 889 108 889 l 22 889 l 22 917 l 614 917 q 732 806 732 917 l 732 701 l 704 701 q 531 861 704 861 l 272 861 l 272 500 l 647 500 l 647 444 l 272 444 l 272 56 l 515 56 q 665 90 611 56 q 751 208 719 125 l 779 201 l 731 69 q 626 0 706 0 l 147 0 l 147 750 m 396 979 l 264 1160 l 396 1160 l 451 979 l 396 979 z "},"Ẻ":{"ha":819,"x_min":22,"x_max":779,"o":"m 147 750 q 128 855 147 821 q 50 889 108 889 l 22 889 l 22 917 l 614 917 q 732 806 732 917 l 732 701 l 704 701 q 531 861 704 861 l 272 861 l 272 500 l 647 500 l 647 444 l 272 444 l 272 56 l 515 56 q 665 90 611 56 q 751 208 719 125 l 779 201 l 731 69 q 626 0 706 0 l 147 0 l 147 750 m 411 988 q 420 1035 413 1015 q 442 1079 428 1056 q 454 1103 449 1092 q 460 1126 460 1115 q 448 1157 460 1146 q 414 1168 436 1168 q 370 1153 386 1168 q 347 1099 354 1138 l 289 1100 q 323 1188 289 1156 q 414 1219 357 1219 q 495 1199 460 1219 q 531 1140 531 1179 q 522 1108 531 1122 q 497 1074 514 1093 q 467 1033 478 1051 q 454 988 456 1014 l 411 988 z "},"Ẽ":{"ha":819,"x_min":22,"x_max":779,"o":"m 147 750 q 128 855 147 821 q 50 889 108 889 l 22 889 l 22 917 l 614 917 q 732 806 732 917 l 732 701 l 704 701 q 531 861 704 861 l 272 861 l 272 500 l 647 500 l 647 444 l 272 444 l 272 56 l 515 56 q 665 90 611 56 q 751 208 719 125 l 779 201 l 731 69 q 626 0 706 0 l 147 0 l 147 750 m 253 1036 q 273 1138 253 1108 q 336 1168 293 1168 q 374 1160 357 1168 q 413 1139 392 1153 q 431 1128 417 1136 q 457 1117 444 1121 q 482 1113 469 1113 q 510 1132 497 1113 q 524 1168 524 1151 l 565 1168 q 545 1066 565 1096 q 482 1036 525 1036 q 445 1043 463 1036 q 407 1064 428 1050 q 369 1085 383 1078 q 336 1092 354 1092 q 308 1072 321 1092 q 294 1036 294 1053 l 253 1036 z "},"F":{"ha":732,"x_min":22,"x_max":694,"o":"m 147 750 q 128 855 147 821 q 50 889 108 889 l 22 889 l 22 917 l 576 917 q 694 806 694 917 l 694 701 l 667 701 q 493 861 667 861 l 272 861 l 272 493 l 586 493 l 586 438 l 272 438 l 272 0 l 147 0 l 147 750 z "},"G":{"ha":1000,"x_min":61,"x_max":978,"o":"m 533 -28 q 290 39 397 -28 q 122 220 182 106 q 61 472 61 335 q 114 712 61 604 q 265 882 167 819 q 492 944 363 944 q 698 913 611 944 q 825 833 785 882 q 853 760 847 806 q 860 646 860 714 l 832 646 q 732 828 806 768 q 533 889 658 889 q 346 830 421 889 q 235 676 271 771 q 200 472 200 582 q 292 133 200 238 q 533 28 383 28 q 654 40 604 28 q 749 76 704 53 l 749 318 q 764 400 749 365 q 830 458 779 435 q 978 481 881 481 l 978 453 q 894 421 915 453 q 874 321 874 389 l 874 60 q 717 -7 799 14 q 533 -28 635 -28 z "},"Ğ":{"ha":1000,"x_min":61,"x_max":978,"o":"m 533 -28 q 290 39 397 -28 q 122 220 182 106 q 61 472 61 335 q 114 712 61 604 q 265 882 167 819 q 492 944 363 944 q 698 913 611 944 q 825 833 785 882 q 853 760 847 806 q 860 646 860 714 l 832 646 q 732 828 806 768 q 533 889 658 889 q 346 830 421 889 q 235 676 271 771 q 200 472 200 582 q 292 133 200 238 q 533 28 383 28 q 654 40 604 28 q 749 76 704 53 l 749 318 q 764 400 749 365 q 830 458 779 435 q 978 481 881 481 l 978 453 q 894 421 915 453 q 874 321 874 389 l 874 60 q 717 -7 799 14 q 533 -28 635 -28 m 507 1014 q 326 1139 382 1014 l 354 1160 q 507 1097 404 1097 q 660 1160 610 1097 l 688 1139 q 507 1014 632 1014 z "},"H":{"ha":963,"x_min":22,"x_max":939,"o":"m 147 750 q 128 855 147 821 q 50 889 108 889 l 22 889 l 22 917 l 147 917 q 224 903 199 917 q 261 856 250 890 q 272 750 272 821 l 272 500 l 689 500 l 689 917 l 814 917 l 814 167 q 833 62 814 96 q 911 28 853 28 l 939 28 l 939 0 l 814 0 q 737 13 763 0 q 700 61 711 26 q 689 167 689 96 l 689 444 l 272 444 l 272 0 l 147 0 l 147 750 z "},"I":{"ha":396,"x_min":124,"x_max":374,"o":"m 249 0 q 172 13 197 0 q 135 61 146 26 q 124 167 124 96 l 124 917 l 249 917 l 249 167 q 268 62 249 96 q 346 28 288 28 l 374 28 l 374 0 l 249 0 z "},"Í":{"ha":396,"x_min":124,"x_max":374,"o":"m 249 0 q 172 13 197 0 q 135 61 146 26 q 124 167 124 96 l 124 917 l 249 917 l 249 167 q 268 62 249 96 q 346 28 288 28 l 374 28 l 374 0 l 249 0 m 151 972 l 207 1153 l 339 1153 l 207 972 l 151 972 z "},"Î":{"ha":396,"x_min":0,"x_max":375,"o":"m 249 0 q 172 13 197 0 q 135 61 146 26 q 124 167 124 96 l 124 917 l 249 917 l 249 167 q 268 62 249 96 q 346 28 288 28 l 374 28 l 374 0 l 249 0 m 0 965 l 111 1125 l 264 1125 l 375 965 l 306 965 l 188 1076 l 69 965 l 0 965 z "},"Ï":{"ha":396,"x_min":10,"x_max":374,"o":"m 79 993 q 28 1012 47 993 q 10 1063 10 1031 q 28 1113 10 1094 q 79 1132 47 1132 q 130 1113 111 1132 q 149 1063 149 1094 q 130 1012 149 1031 q 79 993 111 993 m 293 993 q 242 1012 261 993 q 224 1063 224 1031 q 242 1113 224 1094 q 293 1132 261 1132 q 344 1113 325 1132 q 363 1063 363 1094 q 344 1012 363 1031 q 293 993 325 993 m 249 0 q 172 13 197 0 q 135 61 146 26 q 124 167 124 96 l 124 917 l 249 917 l 249 167 q 268 62 249 96 q 346 28 288 28 l 374 28 l 374 0 l 249 0 z "},"İ":{"ha":396,"x_min":113,"x_max":374,"o":"m 190 986 q 135 1013 158 986 q 113 1075 113 1039 q 130 1121 113 1104 q 176 1138 147 1138 q 231 1111 208 1138 q 254 1049 254 1085 q 237 1003 254 1019 q 190 986 219 986 m 249 0 q 172 13 197 0 q 135 61 146 26 q 124 167 124 96 l 124 917 l 249 917 l 249 167 q 268 62 249 96 q 346 28 288 28 l 374 28 l 374 0 l 249 0 z "},"Ị":{"ha":396,"x_min":124,"x_max":374,"o":"m 249 0 q 172 13 197 0 q 135 61 146 26 q 124 167 124 96 l 124 917 l 249 917 l 249 167 q 268 62 249 96 q 346 28 288 28 l 374 28 l 374 0 l 249 0 m 199 -218 q 155 -199 174 -218 q 136 -154 136 -181 q 155 -111 136 -129 q 199 -93 174 -93 q 242 -111 225 -93 q 260 -154 260 -129 q 242 -199 260 -181 q 199 -218 224 -218 z "},"Ì":{"ha":396,"x_min":53,"x_max":374,"o":"m 249 0 q 172 13 197 0 q 135 61 146 26 q 124 167 124 96 l 124 917 l 249 917 l 249 167 q 268 62 249 96 q 346 28 288 28 l 374 28 l 374 0 l 249 0 m 185 979 l 53 1160 l 185 1160 l 240 979 l 185 979 z "},"Ỉ":{"ha":396,"x_min":78,"x_max":374,"o":"m 249 0 q 172 13 197 0 q 135 61 146 26 q 124 167 124 96 l 124 917 l 249 917 l 249 167 q 268 62 249 96 q 346 28 288 28 l 374 28 l 374 0 l 249 0 m 200 988 q 209 1035 201 1015 q 231 1079 217 1056 q 243 1103 238 1092 q 249 1126 249 1115 q 237 1157 249 1146 q 203 1168 225 1168 q 159 1153 175 1168 q 136 1099 143 1138 l 78 1100 q 112 1188 78 1156 q 203 1219 146 1219 q 284 1199 249 1219 q 319 1140 319 1179 q 311 1108 319 1122 q 286 1074 303 1093 q 256 1033 267 1051 q 243 988 244 1014 l 200 988 z "},"Ĩ":{"ha":396,"x_min":42,"x_max":374,"o":"m 249 0 q 172 13 197 0 q 135 61 146 26 q 124 167 124 96 l 124 917 l 249 917 l 249 167 q 268 62 249 96 q 346 28 288 28 l 374 28 l 374 0 l 249 0 m 42 1036 q 62 1138 42 1108 q 125 1168 82 1168 q 163 1160 146 1168 q 201 1139 181 1153 q 219 1128 206 1136 q 246 1117 233 1121 q 271 1113 258 1113 q 299 1132 286 1113 q 313 1168 313 1151 l 354 1168 q 334 1066 354 1096 q 271 1036 314 1036 q 234 1043 251 1036 q 196 1064 217 1050 q 158 1085 172 1078 q 125 1092 143 1092 q 97 1072 110 1092 q 83 1036 83 1053 l 42 1036 z "},"J":{"ha":363,"x_min":-12,"x_max":244,"o":"m -12 -162 q 87 -92 54 -162 q 119 108 119 -21 l 119 917 l 244 917 l 244 108 q 222 -65 244 0 q 143 -160 199 -129 q -12 -190 88 -190 l -12 -162 z "},"K":{"ha":940,"x_min":22,"x_max":953,"o":"m 863 -14 q 726 22 797 -14 q 564 153 656 57 l 272 458 l 272 0 l 147 0 l 147 750 q 128 855 147 821 q 50 889 108 889 l 22 889 l 22 917 l 147 917 q 224 903 199 917 q 261 856 250 890 q 272 750 272 821 l 272 479 l 564 771 l 592 800 q 657 863 631 840 q 719 901 683 886 q 800 917 756 917 l 869 917 l 869 882 q 768 862 811 882 q 668 785 725 842 l 397 514 l 717 181 q 840 76 778 118 q 953 26 903 33 l 953 0 q 863 -14 911 -14 z "},"L":{"ha":775,"x_min":22,"x_max":765,"o":"m 147 750 q 128 855 147 821 q 50 889 108 889 l 22 889 l 22 917 l 147 917 q 224 903 199 917 q 261 856 250 890 q 272 750 272 821 l 272 56 l 765 56 l 765 0 l 147 0 l 147 750 z "},"M":{"ha":1188,"x_min":119,"x_max":1168,"o":"m 1168 -62 q 1013 -32 1068 -62 q 934 63 957 -1 q 911 236 911 128 l 911 771 l 564 0 l 536 0 l 175 785 l 175 0 l 119 0 l 119 917 l 251 917 l 585 194 l 911 917 l 1036 917 l 1036 236 q 1069 36 1036 107 q 1168 -35 1101 -35 l 1168 -62 z "},"N":{"ha":951,"x_min":14,"x_max":833,"o":"m 208 729 l 208 0 l 153 0 l 153 750 q 124 853 153 817 q 28 889 96 889 l 14 889 l 14 917 l 104 917 q 213 896 168 917 q 292 833 257 875 l 778 229 l 778 917 l 833 917 l 833 -14 l 806 -14 l 208 729 z "},"Ñ":{"ha":951,"x_min":14,"x_max":833,"o":"m 208 729 l 208 0 l 153 0 l 153 750 q 124 853 153 817 q 28 889 96 889 l 14 889 l 14 917 l 104 917 q 213 896 168 917 q 292 833 257 875 l 778 229 l 778 917 l 833 917 l 833 -14 l 806 -14 l 208 729 m 329 964 q 349 1066 329 1036 q 413 1096 369 1096 q 451 1088 433 1096 q 489 1067 468 1081 q 507 1056 493 1064 q 533 1044 521 1049 q 558 1040 546 1040 q 587 1060 574 1040 q 600 1096 600 1079 l 642 1096 q 622 994 642 1024 q 558 964 601 964 q 522 971 539 964 q 483 992 504 978 q 445 1013 460 1006 q 413 1019 431 1019 q 384 1000 397 1019 q 371 964 371 981 l 329 964 z "},"O":{"ha":989,"x_min":64,"x_max":925,"o":"m 494 -28 q 267 36 365 -28 q 117 211 169 100 q 64 458 64 322 q 117 706 64 594 q 267 881 169 817 q 494 944 365 944 q 722 881 624 944 q 872 706 819 817 q 925 458 925 594 q 872 211 925 322 q 722 36 819 100 q 494 -28 624 -28 m 494 28 q 651 81 585 28 q 751 230 717 133 q 786 458 786 326 q 751 687 786 590 q 651 836 717 783 q 494 889 585 889 q 338 836 404 889 q 238 687 272 783 q 203 458 203 590 q 238 230 203 326 q 338 81 272 133 q 494 28 404 28 z "},"Ó":{"ha":989,"x_min":64,"x_max":925,"o":"m 494 -28 q 267 36 365 -28 q 117 211 169 100 q 64 458 64 322 q 117 706 64 594 q 267 881 169 817 q 494 944 365 944 q 722 881 624 944 q 872 706 819 817 q 925 458 925 594 q 872 211 925 322 q 722 36 819 100 q 494 -28 624 -28 m 494 28 q 651 81 585 28 q 751 230 717 133 q 786 458 786 326 q 751 687 786 590 q 651 836 717 783 q 494 889 585 889 q 338 836 404 889 q 238 687 272 783 q 203 458 203 590 q 238 230 203 326 q 338 81 272 133 q 494 28 404 28 m 465 1000 l 521 1181 l 653 1181 l 521 1000 l 465 1000 z "},"Ô":{"ha":989,"x_min":64,"x_max":925,"o":"m 494 -28 q 267 36 365 -28 q 117 211 169 100 q 64 458 64 322 q 117 706 64 594 q 267 881 169 817 q 494 944 365 944 q 722 881 624 944 q 872 706 819 817 q 925 458 925 594 q 872 211 925 322 q 722 36 819 100 q 494 -28 624 -28 m 494 28 q 651 81 585 28 q 751 230 717 133 q 786 458 786 326 q 751 687 786 590 q 651 836 717 783 q 494 889 585 889 q 338 836 404 889 q 238 687 272 783 q 203 458 203 590 q 238 230 203 326 q 338 81 272 133 q 494 28 404 28 m 300 1000 l 411 1160 l 564 1160 l 675 1000 l 606 1000 l 488 1111 l 369 1000 l 300 1000 z "},"Ố":{"ha":989,"x_min":64,"x_max":925,"o":"m 494 -28 q 267 36 365 -28 q 117 211 169 100 q 64 458 64 322 q 117 706 64 594 q 267 881 169 817 q 494 944 365 944 q 722 881 624 944 q 872 706 819 817 q 925 458 925 594 q 872 211 925 322 q 722 36 819 100 q 494 -28 624 -28 m 494 28 q 651 81 585 28 q 751 230 717 133 q 786 458 786 326 q 751 687 786 590 q 651 836 717 783 q 494 889 585 889 q 338 836 404 889 q 238 687 272 783 q 203 458 203 590 q 238 230 203 326 q 338 81 272 133 q 494 28 404 28 m 307 986 l 418 1146 l 571 1146 l 682 986 l 613 986 l 494 1097 l 376 986 l 307 986 m 668 1065 l 724 1246 l 856 1246 l 724 1065 l 668 1065 z "},"Ộ":{"ha":989,"x_min":64,"x_max":925,"o":"m 494 -28 q 267 36 365 -28 q 117 211 169 100 q 64 458 64 322 q 117 706 64 594 q 267 881 169 817 q 494 944 365 944 q 722 881 624 944 q 872 706 819 817 q 925 458 925 594 q 872 211 925 322 q 722 36 819 100 q 494 -28 624 -28 m 494 28 q 651 81 585 28 q 751 230 717 133 q 786 458 786 326 q 751 687 786 590 q 651 836 717 783 q 494 889 585 889 q 338 836 404 889 q 238 687 272 783 q 203 458 203 590 q 238 230 203 326 q 338 81 272 133 q 494 28 404 28 m 494 -218 q 451 -199 469 -218 q 432 -154 432 -181 q 451 -111 432 -129 q 494 -93 469 -93 q 538 -111 521 -93 q 556 -154 556 -129 q 538 -199 556 -181 q 494 -218 519 -218 m 307 986 l 418 1146 l 571 1146 l 682 986 l 613 986 l 494 1097 l 376 986 l 307 986 z "},"Ồ":{"ha":989,"x_min":64,"x_max":925,"o":"m 494 -28 q 267 36 365 -28 q 117 211 169 100 q 64 458 64 322 q 117 706 64 594 q 267 881 169 817 q 494 944 365 944 q 722 881 624 944 q 872 706 819 817 q 925 458 925 594 q 872 211 925 322 q 722 36 819 100 q 494 -28 624 -28 m 494 28 q 651 81 585 28 q 751 230 717 133 q 786 458 786 326 q 751 687 786 590 q 651 836 717 783 q 494 889 585 889 q 338 836 404 889 q 238 687 272 783 q 203 458 203 590 q 238 230 203 326 q 338 81 272 133 q 494 28 404 28 m 307 986 l 418 1146 l 571 1146 l 682 986 l 613 986 l 494 1097 l 376 986 l 307 986 m 672 1101 l 540 1282 l 672 1282 l 728 1101 l 672 1101 z "},"Ổ":{"ha":989,"x_min":64,"x_max":925,"o":"m 494 -28 q 267 36 365 -28 q 117 211 169 100 q 64 458 64 322 q 117 706 64 594 q 267 881 169 817 q 494 944 365 944 q 722 881 624 944 q 872 706 819 817 q 925 458 925 594 q 872 211 925 322 q 722 36 819 100 q 494 -28 624 -28 m 494 28 q 651 81 585 28 q 751 230 717 133 q 786 458 786 326 q 751 687 786 590 q 651 836 717 783 q 494 889 585 889 q 338 836 404 889 q 238 687 272 783 q 203 458 203 590 q 238 230 203 326 q 338 81 272 133 q 494 28 404 28 m 307 986 l 418 1146 l 571 1146 l 682 986 l 613 986 l 494 1097 l 376 986 l 307 986 m 656 1108 q 665 1156 657 1136 q 686 1200 672 1176 q 699 1224 693 1213 q 704 1247 704 1236 q 692 1278 704 1267 q 658 1289 681 1289 q 615 1274 631 1289 q 592 1219 599 1258 l 533 1221 q 567 1308 533 1276 q 658 1340 601 1340 q 740 1320 704 1340 q 775 1261 775 1300 q 767 1228 775 1243 q 742 1194 758 1214 q 711 1153 722 1172 q 699 1108 700 1135 l 656 1108 z "},"Ỗ":{"ha":989,"x_min":64,"x_max":925,"o":"m 494 -28 q 267 36 365 -28 q 117 211 169 100 q 64 458 64 322 q 117 706 64 594 q 267 881 169 817 q 494 944 365 944 q 722 881 624 944 q 872 706 819 817 q 925 458 925 594 q 872 211 925 322 q 722 36 819 100 q 494 -28 624 -28 m 494 28 q 651 81 585 28 q 751 230 717 133 q 786 458 786 326 q 751 687 786 590 q 651 836 717 783 q 494 889 585 889 q 338 836 404 889 q 238 687 272 783 q 203 458 203 590 q 238 230 203 326 q 338 81 272 133 q 494 28 404 28 m 307 986 l 418 1146 l 571 1146 l 682 986 l 613 986 l 494 1097 l 376 986 l 307 986 m 338 1192 q 358 1294 338 1264 q 421 1324 378 1324 q 459 1316 442 1324 q 497 1294 476 1308 q 515 1284 501 1292 q 542 1272 529 1276 q 567 1268 554 1268 q 595 1288 582 1268 q 608 1324 608 1307 l 650 1324 q 630 1222 650 1251 q 567 1192 610 1192 q 530 1199 547 1192 q 492 1219 513 1206 q 453 1240 468 1233 q 421 1247 439 1247 q 392 1228 406 1247 q 379 1192 379 1208 l 338 1192 z "},"Ö":{"ha":989,"x_min":64,"x_max":925,"o":"m 494 -28 q 267 36 365 -28 q 117 211 169 100 q 64 458 64 322 q 117 706 64 594 q 267 881 169 817 q 494 944 365 944 q 722 881 624 944 q 872 706 819 817 q 925 458 925 594 q 872 211 925 322 q 722 36 819 100 q 494 -28 624 -28 m 494 28 q 651 81 585 28 q 751 230 717 133 q 786 458 786 326 q 751 687 786 590 q 651 836 717 783 q 494 889 585 889 q 338 836 404 889 q 238 687 272 783 q 203 458 203 590 q 238 230 203 326 q 338 81 272 133 q 494 28 404 28 m 376 1021 q 326 1040 344 1021 q 307 1090 307 1058 q 326 1141 307 1122 q 376 1160 344 1160 q 427 1141 408 1160 q 446 1090 446 1122 q 427 1040 446 1058 q 376 1021 408 1021 m 613 1021 q 562 1040 581 1021 q 543 1090 543 1058 q 562 1141 543 1122 q 613 1160 581 1160 q 663 1141 644 1160 q 682 1090 682 1122 q 663 1040 682 1058 q 613 1021 644 1021 z "},"Ọ":{"ha":989,"x_min":64,"x_max":925,"o":"m 494 -28 q 267 36 365 -28 q 117 211 169 100 q 64 458 64 322 q 117 706 64 594 q 267 881 169 817 q 494 944 365 944 q 722 881 624 944 q 872 706 819 817 q 925 458 925 594 q 872 211 925 322 q 722 36 819 100 q 494 -28 624 -28 m 494 28 q 651 81 585 28 q 751 230 717 133 q 786 458 786 326 q 751 687 786 590 q 651 836 717 783 q 494 889 585 889 q 338 836 404 889 q 238 687 272 783 q 203 458 203 590 q 238 230 203 326 q 338 81 272 133 q 494 28 404 28 m 494 -218 q 451 -199 469 -218 q 432 -154 432 -181 q 451 -111 432 -129 q 494 -93 469 -93 q 538 -111 521 -93 q 556 -154 556 -129 q 538 -199 556 -181 q 494 -218 519 -218 z "},"Ò":{"ha":989,"x_min":64,"x_max":925,"o":"m 494 -28 q 267 36 365 -28 q 117 211 169 100 q 64 458 64 322 q 117 706 64 594 q 267 881 169 817 q 494 944 365 944 q 722 881 624 944 q 872 706 819 817 q 925 458 925 594 q 872 211 925 322 q 722 36 819 100 q 494 -28 624 -28 m 494 28 q 651 81 585 28 q 751 230 717 133 q 786 458 786 326 q 751 687 786 590 q 651 836 717 783 q 494 889 585 889 q 338 836 404 889 q 238 687 272 783 q 203 458 203 590 q 238 230 203 326 q 338 81 272 133 q 494 28 404 28 m 481 979 l 349 1160 l 481 1160 l 536 979 l 481 979 z "},"Ỏ":{"ha":989,"x_min":64,"x_max":925,"o":"m 494 -28 q 267 36 365 -28 q 117 211 169 100 q 64 458 64 322 q 117 706 64 594 q 267 881 169 817 q 494 944 365 944 q 722 881 624 944 q 872 706 819 817 q 925 458 925 594 q 872 211 925 322 q 722 36 819 100 q 494 -28 624 -28 m 494 28 q 651 81 585 28 q 751 230 717 133 q 786 458 786 326 q 751 687 786 590 q 651 836 717 783 q 494 889 585 889 q 338 836 404 889 q 238 687 272 783 q 203 458 203 590 q 238 230 203 326 q 338 81 272 133 q 494 28 404 28 m 496 988 q 505 1035 497 1015 q 526 1079 513 1056 q 539 1103 533 1092 q 544 1126 544 1115 q 533 1157 544 1146 q 499 1168 521 1168 q 455 1153 471 1168 q 432 1099 439 1138 l 374 1100 q 408 1188 374 1156 q 499 1219 442 1219 q 580 1199 544 1219 q 615 1140 615 1179 q 607 1108 615 1122 q 582 1074 599 1093 q 551 1033 563 1051 q 539 988 540 1014 l 496 988 z "},"Ơ":{"ha":989,"x_min":64,"x_max":925,"o":"m 711 886 q 869 713 813 826 q 925 458 925 599 q 872 211 925 322 q 722 36 819 100 q 494 -28 624 -28 q 267 36 365 -28 q 117 211 169 100 q 64 458 64 322 q 117 706 64 594 q 267 881 169 817 q 494 944 365 944 q 649 917 578 944 q 744 963 713 921 q 776 1061 776 1006 l 856 1061 q 711 886 856 915 m 494 28 q 651 81 585 28 q 751 230 717 133 q 786 458 786 326 q 751 687 786 590 q 651 836 717 783 q 494 889 585 889 q 338 836 404 889 q 238 687 272 783 q 203 458 203 590 q 238 230 203 326 q 338 81 272 133 q 494 28 404 28 z "},"Ớ":{"ha":989,"x_min":64,"x_max":925,"o":"m 711 886 q 869 713 813 826 q 925 458 925 599 q 872 211 925 322 q 722 36 819 100 q 494 -28 624 -28 q 267 36 365 -28 q 117 211 169 100 q 64 458 64 322 q 117 706 64 594 q 267 881 169 817 q 494 944 365 944 q 649 917 578 944 q 744 963 713 921 q 776 1061 776 1006 l 856 1061 q 711 886 856 915 m 494 28 q 651 81 585 28 q 751 230 717 133 q 786 458 786 326 q 751 687 786 590 q 651 836 717 783 q 494 889 585 889 q 338 836 404 889 q 238 687 272 783 q 203 458 203 590 q 238 230 203 326 q 338 81 272 133 q 494 28 404 28 m 456 979 l 511 1160 l 643 1160 l 511 979 l 456 979 z "},"Ợ":{"ha":989,"x_min":64,"x_max":925,"o":"m 711 886 q 869 713 813 826 q 925 458 925 599 q 872 211 925 322 q 722 36 819 100 q 494 -28 624 -28 q 267 36 365 -28 q 117 211 169 100 q 64 458 64 322 q 117 706 64 594 q 267 881 169 817 q 494 944 365 944 q 649 917 578 944 q 744 963 713 921 q 776 1061 776 1006 l 856 1061 q 711 886 856 915 m 494 28 q 651 81 585 28 q 751 230 717 133 q 786 458 786 326 q 751 687 786 590 q 651 836 717 783 q 494 889 585 889 q 338 836 404 889 q 238 687 272 783 q 203 458 203 590 q 238 230 203 326 q 338 81 272 133 q 494 28 404 28 m 494 -218 q 451 -199 469 -218 q 432 -154 432 -181 q 451 -111 432 -129 q 494 -93 469 -93 q 538 -111 521 -93 q 556 -154 556 -129 q 538 -199 556 -181 q 494 -218 519 -218 z "},"Ờ":{"ha":989,"x_min":64,"x_max":925,"o":"m 711 886 q 869 713 813 826 q 925 458 925 599 q 872 211 925 322 q 722 36 819 100 q 494 -28 624 -28 q 267 36 365 -28 q 117 211 169 100 q 64 458 64 322 q 117 706 64 594 q 267 881 169 817 q 494 944 365 944 q 649 917 578 944 q 744 963 713 921 q 776 1061 776 1006 l 856 1061 q 711 886 856 915 m 494 28 q 651 81 585 28 q 751 230 717 133 q 786 458 786 326 q 751 687 786 590 q 651 836 717 783 q 494 889 585 889 q 338 836 404 889 q 238 687 272 783 q 203 458 203 590 q 238 230 203 326 q 338 81 272 133 q 494 28 404 28 m 481 979 l 349 1160 l 481 1160 l 536 979 l 481 979 z "},"Ở":{"ha":989,"x_min":64,"x_max":925,"o":"m 711 886 q 869 713 813 826 q 925 458 925 599 q 872 211 925 322 q 722 36 819 100 q 494 -28 624 -28 q 267 36 365 -28 q 117 211 169 100 q 64 458 64 322 q 117 706 64 594 q 267 881 169 817 q 494 944 365 944 q 649 917 578 944 q 744 963 713 921 q 776 1061 776 1006 l 856 1061 q 711 886 856 915 m 494 28 q 651 81 585 28 q 751 230 717 133 q 786 458 786 326 q 751 687 786 590 q 651 836 717 783 q 494 889 585 889 q 338 836 404 889 q 238 687 272 783 q 203 458 203 590 q 238 230 203 326 q 338 81 272 133 q 494 28 404 28 m 496 988 q 505 1035 497 1015 q 526 1079 513 1056 q 539 1103 533 1092 q 544 1126 544 1115 q 533 1157 544 1146 q 499 1168 521 1168 q 455 1153 471 1168 q 432 1099 439 1138 l 374 1100 q 408 1188 374 1156 q 499 1219 442 1219 q 580 1199 544 1219 q 615 1140 615 1179 q 607 1108 615 1122 q 582 1074 599 1093 q 551 1033 563 1051 q 539 988 540 1014 l 496 988 z "},"Ỡ":{"ha":989,"x_min":64,"x_max":925,"o":"m 711 886 q 869 713 813 826 q 925 458 925 599 q 872 211 925 322 q 722 36 819 100 q 494 -28 624 -28 q 267 36 365 -28 q 117 211 169 100 q 64 458 64 322 q 117 706 64 594 q 267 881 169 817 q 494 944 365 944 q 649 917 578 944 q 744 963 713 921 q 776 1061 776 1006 l 856 1061 q 711 886 856 915 m 494 28 q 651 81 585 28 q 751 230 717 133 q 786 458 786 326 q 751 687 786 590 q 651 836 717 783 q 494 889 585 889 q 338 836 404 889 q 238 687 272 783 q 203 458 203 590 q 238 230 203 326 q 338 81 272 133 q 494 28 404 28 m 338 1036 q 358 1138 338 1108 q 421 1168 378 1168 q 459 1160 442 1168 q 497 1139 476 1153 q 515 1128 501 1136 q 542 1117 529 1121 q 567 1113 554 1113 q 595 1132 582 1113 q 608 1168 608 1151 l 650 1168 q 630 1066 650 1096 q 567 1036 610 1036 q 530 1043 547 1036 q 492 1064 513 1050 q 453 1085 468 1078 q 421 1092 439 1092 q 392 1072 406 1092 q 379 1036 379 1053 l 338 1036 z "},"Ø":{"ha":989,"x_min":64,"x_max":925,"o":"m 226 67 q 106 235 149 133 q 64 458 64 336 q 117 706 64 594 q 267 881 169 817 q 494 944 365 944 q 681 903 594 944 l 704 944 l 806 944 l 756 854 q 881 685 836 788 q 925 458 925 582 q 872 211 925 322 q 722 36 819 100 q 494 -28 624 -28 q 300 17 386 -28 l 276 -28 l 175 -28 l 226 67 m 646 839 q 494 889 582 889 q 338 836 404 889 q 238 687 272 783 q 203 458 203 590 q 274 154 203 268 l 646 839 m 494 28 q 651 81 585 28 q 751 230 717 133 q 786 458 786 326 q 710 769 786 650 l 336 82 q 494 28 406 28 z "},"Õ":{"ha":989,"x_min":64,"x_max":925,"o":"m 494 -28 q 267 36 365 -28 q 117 211 169 100 q 64 458 64 322 q 117 706 64 594 q 267 881 169 817 q 494 944 365 944 q 722 881 624 944 q 872 706 819 817 q 925 458 925 594 q 872 211 925 322 q 722 36 819 100 q 494 -28 624 -28 m 494 28 q 651 81 585 28 q 751 230 717 133 q 786 458 786 326 q 751 687 786 590 q 651 836 717 783 q 494 889 585 889 q 338 836 404 889 q 238 687 272 783 q 203 458 203 590 q 238 230 203 326 q 338 81 272 133 q 494 28 404 28 m 336 1025 q 356 1127 336 1097 q 419 1157 376 1157 q 458 1149 440 1157 q 496 1128 475 1142 q 514 1117 500 1125 q 540 1106 528 1110 q 565 1101 553 1101 q 594 1121 581 1101 q 607 1157 607 1140 l 649 1157 q 628 1055 649 1085 q 565 1025 608 1025 q 528 1032 546 1025 q 490 1053 511 1039 q 452 1074 467 1067 q 419 1081 438 1081 q 391 1061 404 1081 q 378 1025 378 1042 l 336 1025 z "},"Œ":{"ha":1313,"x_min":64,"x_max":1272,"o":"m 494 -28 q 267 36 365 -28 q 117 211 169 100 q 64 458 64 322 q 117 706 64 594 q 267 881 169 817 q 494 944 365 944 q 647 917 582 944 l 1107 917 q 1225 806 1225 917 l 1225 701 l 1197 701 q 1024 861 1197 861 l 765 861 l 765 500 l 1140 500 l 1140 444 l 765 444 l 765 56 l 1008 56 q 1158 90 1104 56 q 1244 208 1213 125 l 1272 201 l 1224 69 q 1119 0 1199 0 l 647 0 q 494 -28 582 -28 m 494 28 q 640 72 579 28 l 640 847 q 494 889 578 889 q 338 836 404 889 q 238 687 272 783 q 203 458 203 590 q 238 230 203 326 q 338 81 272 133 q 494 28 404 28 z "},"P":{"ha":767,"x_min":22,"x_max":731,"o":"m 147 750 q 128 855 147 821 q 50 889 108 889 l 22 889 l 22 917 l 383 917 q 624 860 517 917 q 731 639 731 803 q 675 472 731 531 q 551 394 619 414 q 425 375 482 375 l 272 375 l 272 0 l 147 0 l 147 750 m 376 424 q 471 447 421 424 q 556 519 521 469 q 592 646 592 569 q 556 772 592 722 q 471 845 521 822 q 376 868 421 868 q 272 854 328 868 l 272 438 q 376 424 328 424 z "},"Þ":{"ha":743,"x_min":26,"x_max":707,"o":"m 151 833 q 129 908 151 886 q 54 931 107 931 l 26 931 l 26 958 l 151 958 q 250 932 224 958 q 276 833 276 906 l 276 764 q 597 681 488 764 q 707 438 707 599 q 597 194 707 276 q 276 111 488 111 l 276 -42 l 151 -42 l 151 833 m 276 167 q 497 239 426 167 q 568 438 568 311 q 497 636 568 564 q 276 708 426 708 l 276 167 z "},"Q":{"ha":992,"x_min":65,"x_max":940,"o":"m 940 -285 q 633 -222 775 -285 q 371 -10 492 -160 q 147 160 229 32 q 65 458 65 288 q 118 706 65 594 q 269 881 171 817 q 496 944 367 944 q 723 881 625 944 q 874 706 821 817 q 926 458 926 594 q 841 155 926 283 q 610 -12 756 26 q 686 -135 631 -79 q 811 -224 742 -192 q 940 -257 881 -257 l 940 -285 m 496 28 q 652 81 586 28 q 753 230 718 133 q 788 458 788 326 q 753 687 788 590 q 652 836 718 783 q 496 889 586 889 q 340 836 406 889 q 239 687 274 783 q 204 458 204 590 q 239 230 204 326 q 340 81 274 133 q 496 28 406 28 z "},"R":{"ha":826,"x_min":22,"x_max":842,"o":"m 758 -14 q 630 30 685 -14 q 508 188 575 74 l 369 424 l 272 424 l 272 0 l 147 0 l 147 750 q 128 855 147 821 q 50 889 108 889 l 22 889 l 22 917 l 383 917 q 623 865 515 917 q 731 667 731 813 q 508 431 731 482 l 654 188 q 747 67 706 101 q 842 28 788 33 l 842 0 q 806 -10 829 -6 q 758 -14 783 -14 m 376 472 q 470 493 419 472 q 556 558 521 514 q 592 667 592 603 q 556 780 592 735 q 470 847 521 825 q 376 868 419 868 q 272 854 328 868 l 272 486 q 376 472 328 472 z "},"S":{"ha":740,"x_min":75,"x_max":681,"o":"m 392 -24 q 242 -3 315 -24 q 122 57 168 18 q 75 146 75 96 l 75 294 l 100 294 q 192 94 124 156 q 379 32 260 32 q 508 69 454 32 q 561 174 561 107 q 525 275 561 232 q 408 365 489 318 l 238 467 q 112 574 149 519 q 75 706 75 628 q 149 877 75 813 q 344 942 224 942 q 485 922 415 942 q 599 863 554 901 q 644 775 644 825 l 644 626 l 619 626 q 530 826 596 765 q 344 886 464 886 q 232 847 281 886 q 183 746 183 808 q 219 651 183 689 q 338 564 254 614 l 508 463 q 642 357 603 406 q 681 233 681 308 q 603 47 681 117 q 392 -24 525 -24 z "},"Š":{"ha":740,"x_min":75,"x_max":681,"o":"m 392 -24 q 242 -3 315 -24 q 122 57 168 18 q 75 146 75 96 l 75 294 l 100 294 q 192 94 124 156 q 379 32 260 32 q 508 69 454 32 q 561 174 561 107 q 525 275 561 232 q 408 365 489 318 l 238 467 q 112 574 149 519 q 75 706 75 628 q 149 877 75 813 q 344 942 224 942 q 485 922 415 942 q 599 863 554 901 q 644 775 644 825 l 644 626 l 619 626 q 530 826 596 765 q 344 886 464 886 q 232 847 281 886 q 183 746 183 808 q 219 651 183 689 q 338 564 254 614 l 508 463 q 642 357 603 406 q 681 233 681 308 q 603 47 681 117 q 392 -24 525 -24 m 276 1000 l 165 1160 l 235 1160 l 353 1049 l 471 1160 l 540 1160 l 429 1000 l 276 1000 z "},"Ş":{"ha":740,"x_min":75,"x_max":681,"o":"m 322 -201 l 392 -201 q 447 -157 447 -201 q 392 -111 447 -111 l 329 -111 l 329 -19 q 149 38 222 -7 q 75 146 75 82 l 75 294 l 100 294 q 192 94 124 156 q 379 32 260 32 q 508 69 454 32 q 561 174 561 107 q 525 275 561 232 q 408 365 489 318 l 238 467 q 112 574 149 519 q 75 706 75 628 q 149 877 75 813 q 344 942 224 942 q 485 922 415 942 q 599 863 554 901 q 644 775 644 825 l 644 626 l 619 626 q 530 826 596 765 q 344 886 464 886 q 232 847 281 886 q 183 746 183 808 q 219 651 183 689 q 338 564 254 614 l 508 463 q 642 357 603 406 q 681 233 681 308 q 603 47 681 117 q 392 -24 525 -24 l 392 -56 l 406 -56 q 485 -82 454 -56 q 517 -157 517 -108 q 485 -231 517 -204 q 406 -258 454 -258 l 322 -258 l 322 -201 z "},"T":{"ha":810,"x_min":29,"x_max":793,"o":"m 356 861 l 231 861 q 57 701 57 861 l 29 701 l 29 806 q 147 917 29 917 l 793 917 l 793 861 l 481 861 l 481 0 l 356 0 l 356 861 z "},"U":{"ha":954,"x_min":13,"x_max":846,"o":"m 492 -14 q 281 31 358 -14 q 170 165 203 76 q 138 396 138 254 l 138 750 q 118 855 138 821 q 40 889 99 889 l 13 889 l 13 917 l 138 917 q 215 903 189 917 q 251 856 240 890 q 263 750 263 821 l 263 354 q 319 121 263 200 q 508 42 376 42 q 676 79 614 42 q 764 193 738 117 q 790 396 790 269 l 790 917 l 846 917 l 846 396 q 815 163 846 251 q 708 31 785 75 q 492 -14 631 -14 z "},"Ú":{"ha":954,"x_min":13,"x_max":846,"o":"m 492 -14 q 281 31 358 -14 q 170 165 203 76 q 138 396 138 254 l 138 750 q 118 855 138 821 q 40 889 99 889 l 13 889 l 13 917 l 138 917 q 215 903 189 917 q 251 856 240 890 q 263 750 263 821 l 263 354 q 319 121 263 200 q 508 42 376 42 q 676 79 614 42 q 764 193 738 117 q 790 396 790 269 l 790 917 l 846 917 l 846 396 q 815 163 846 251 q 708 31 785 75 q 492 -14 631 -14 m 457 946 l 513 1126 l 644 1126 l 513 946 l 457 946 z "},"Û":{"ha":954,"x_min":13,"x_max":846,"o":"m 492 -14 q 281 31 358 -14 q 170 165 203 76 q 138 396 138 254 l 138 750 q 118 855 138 821 q 40 889 99 889 l 13 889 l 13 917 l 138 917 q 215 903 189 917 q 251 856 240 890 q 263 750 263 821 l 263 354 q 319 121 263 200 q 508 42 376 42 q 676 79 614 42 q 764 193 738 117 q 790 396 790 269 l 790 917 l 846 917 l 846 396 q 815 163 846 251 q 708 31 785 75 q 492 -14 631 -14 m 332 932 l 443 1092 l 596 1092 l 707 932 l 638 932 l 519 1043 l 401 932 l 332 932 z "},"Ü":{"ha":954,"x_min":13,"x_max":846,"o":"m 492 -14 q 281 31 358 -14 q 170 165 203 76 q 138 396 138 254 l 138 750 q 118 855 138 821 q 40 889 99 889 l 13 889 l 13 917 l 138 917 q 215 903 189 917 q 251 856 240 890 q 263 750 263 821 l 263 354 q 319 121 263 200 q 508 42 376 42 q 676 79 614 42 q 764 193 738 117 q 790 396 790 269 l 790 917 l 846 917 l 846 396 q 815 163 846 251 q 708 31 785 75 q 492 -14 631 -14 m 394 946 q 344 965 363 946 q 325 1015 325 983 q 344 1066 325 1047 q 394 1085 363 1085 q 445 1066 426 1085 q 464 1015 464 1047 q 445 965 464 983 q 394 946 426 946 m 631 946 q 580 965 599 946 q 561 1015 561 983 q 580 1066 561 1047 q 631 1085 599 1085 q 681 1066 663 1085 q 700 1015 700 1047 q 681 965 700 983 q 631 946 663 946 z "},"Ụ":{"ha":954,"x_min":13,"x_max":846,"o":"m 492 -14 q 281 31 358 -14 q 170 165 203 76 q 138 396 138 254 l 138 750 q 118 855 138 821 q 40 889 99 889 l 13 889 l 13 917 l 138 917 q 215 903 189 917 q 251 856 240 890 q 263 750 263 821 l 263 354 q 319 121 263 200 q 508 42 376 42 q 676 79 614 42 q 764 193 738 117 q 790 396 790 269 l 790 917 l 846 917 l 846 396 q 815 163 846 251 q 708 31 785 75 q 492 -14 631 -14 m 478 -218 q 434 -199 453 -218 q 415 -154 415 -181 q 434 -111 415 -129 q 478 -93 453 -93 q 522 -111 504 -93 q 539 -154 539 -129 q 521 -199 539 -181 q 478 -218 503 -218 z "},"Ù":{"ha":954,"x_min":13,"x_max":846,"o":"m 492 -14 q 281 31 358 -14 q 170 165 203 76 q 138 396 138 254 l 138 750 q 118 855 138 821 q 40 889 99 889 l 13 889 l 13 917 l 138 917 q 215 903 189 917 q 251 856 240 890 q 263 750 263 821 l 263 354 q 319 121 263 200 q 508 42 376 42 q 676 79 614 42 q 764 193 738 117 q 790 396 790 269 l 790 917 l 846 917 l 846 396 q 815 163 846 251 q 708 31 785 75 q 492 -14 631 -14 m 464 979 l 332 1160 l 464 1160 l 519 979 l 464 979 z "},"Ủ":{"ha":954,"x_min":13,"x_max":846,"o":"m 492 -14 q 281 31 358 -14 q 170 165 203 76 q 138 396 138 254 l 138 750 q 118 855 138 821 q 40 889 99 889 l 13 889 l 13 917 l 138 917 q 215 903 189 917 q 251 856 240 890 q 263 750 263 821 l 263 354 q 319 121 263 200 q 508 42 376 42 q 676 79 614 42 q 764 193 738 117 q 790 396 790 269 l 790 917 l 846 917 l 846 396 q 815 163 846 251 q 708 31 785 75 q 492 -14 631 -14 m 479 988 q 488 1035 481 1015 q 510 1079 496 1056 q 522 1103 517 1092 q 528 1126 528 1115 q 516 1157 528 1146 q 482 1168 504 1168 q 438 1153 454 1168 q 415 1099 422 1138 l 357 1100 q 391 1188 357 1156 q 482 1219 425 1219 q 563 1199 528 1219 q 599 1140 599 1179 q 590 1108 599 1122 q 565 1074 582 1093 q 535 1033 546 1051 q 522 988 524 1014 l 479 988 z "},"Ư":{"ha":954,"x_min":13,"x_max":1018,"o":"m 1018 1061 q 846 883 1018 901 l 846 396 q 815 163 846 251 q 708 31 785 75 q 492 -14 631 -14 q 281 31 358 -14 q 170 165 203 76 q 138 396 138 254 l 138 750 q 118 855 138 821 q 40 889 99 889 l 13 889 l 13 917 l 138 917 q 215 903 189 917 q 251 856 240 890 q 263 750 263 821 l 263 354 q 319 121 263 200 q 508 42 376 42 q 676 79 614 42 q 764 193 738 117 q 790 396 790 269 l 790 917 l 800 917 q 904 960 869 917 q 939 1061 939 1003 l 1018 1061 z "},"Ứ":{"ha":954,"x_min":13,"x_max":1018,"o":"m 1018 1061 q 846 883 1018 901 l 846 396 q 815 163 846 251 q 708 31 785 75 q 492 -14 631 -14 q 281 31 358 -14 q 170 165 203 76 q 138 396 138 254 l 138 750 q 118 855 138 821 q 40 889 99 889 l 13 889 l 13 917 l 138 917 q 215 903 189 917 q 251 856 240 890 q 263 750 263 821 l 263 354 q 319 121 263 200 q 508 42 376 42 q 676 79 614 42 q 764 193 738 117 q 790 396 790 269 l 790 917 l 800 917 q 904 960 869 917 q 939 1061 939 1003 l 1018 1061 m 439 979 l 494 1160 l 626 1160 l 494 979 l 439 979 z "},"Ự":{"ha":954,"x_min":13,"x_max":1018,"o":"m 1018 1061 q 846 883 1018 901 l 846 396 q 815 163 846 251 q 708 31 785 75 q 492 -14 631 -14 q 281 31 358 -14 q 170 165 203 76 q 138 396 138 254 l 138 750 q 118 855 138 821 q 40 889 99 889 l 13 889 l 13 917 l 138 917 q 215 903 189 917 q 251 856 240 890 q 263 750 263 821 l 263 354 q 319 121 263 200 q 508 42 376 42 q 676 79 614 42 q 764 193 738 117 q 790 396 790 269 l 790 917 l 800 917 q 904 960 869 917 q 939 1061 939 1003 l 1018 1061 m 478 -218 q 434 -199 453 -218 q 415 -154 415 -181 q 434 -111 415 -129 q 478 -93 453 -93 q 522 -111 504 -93 q 539 -154 539 -129 q 521 -199 539 -181 q 478 -218 503 -218 z "},"Ừ":{"ha":954,"x_min":13,"x_max":1018,"o":"m 1018 1061 q 846 883 1018 901 l 846 396 q 815 163 846 251 q 708 31 785 75 q 492 -14 631 -14 q 281 31 358 -14 q 170 165 203 76 q 138 396 138 254 l 138 750 q 118 855 138 821 q 40 889 99 889 l 13 889 l 13 917 l 138 917 q 215 903 189 917 q 251 856 240 890 q 263 750 263 821 l 263 354 q 319 121 263 200 q 508 42 376 42 q 676 79 614 42 q 764 193 738 117 q 790 396 790 269 l 790 917 l 800 917 q 904 960 869 917 q 939 1061 939 1003 l 1018 1061 m 464 979 l 332 1160 l 464 1160 l 519 979 l 464 979 z "},"Ử":{"ha":954,"x_min":13,"x_max":1018,"o":"m 1018 1061 q 846 883 1018 901 l 846 396 q 815 163 846 251 q 708 31 785 75 q 492 -14 631 -14 q 281 31 358 -14 q 170 165 203 76 q 138 396 138 254 l 138 750 q 118 855 138 821 q 40 889 99 889 l 13 889 l 13 917 l 138 917 q 215 903 189 917 q 251 856 240 890 q 263 750 263 821 l 263 354 q 319 121 263 200 q 508 42 376 42 q 676 79 614 42 q 764 193 738 117 q 790 396 790 269 l 790 917 l 800 917 q 904 960 869 917 q 939 1061 939 1003 l 1018 1061 m 479 988 q 488 1035 481 1015 q 510 1079 496 1056 q 522 1103 517 1092 q 528 1126 528 1115 q 516 1157 528 1146 q 482 1168 504 1168 q 438 1153 454 1168 q 415 1099 422 1138 l 357 1100 q 391 1188 357 1156 q 482 1219 425 1219 q 563 1199 528 1219 q 599 1140 599 1179 q 590 1108 599 1122 q 565 1074 582 1093 q 535 1033 546 1051 q 522 988 524 1014 l 479 988 z "},"Ữ":{"ha":954,"x_min":13,"x_max":1018,"o":"m 1018 1061 q 846 883 1018 901 l 846 396 q 815 163 846 251 q 708 31 785 75 q 492 -14 631 -14 q 281 31 358 -14 q 170 165 203 76 q 138 396 138 254 l 138 750 q 118 855 138 821 q 40 889 99 889 l 13 889 l 13 917 l 138 917 q 215 903 189 917 q 251 856 240 890 q 263 750 263 821 l 263 354 q 319 121 263 200 q 508 42 376 42 q 676 79 614 42 q 764 193 738 117 q 790 396 790 269 l 790 917 l 800 917 q 904 960 869 917 q 939 1061 939 1003 l 1018 1061 m 321 1036 q 341 1138 321 1108 q 404 1168 361 1168 q 442 1160 425 1168 q 481 1139 460 1153 q 499 1128 485 1136 q 525 1117 513 1121 q 550 1113 538 1113 q 578 1132 565 1113 q 592 1168 592 1151 l 633 1168 q 613 1066 633 1096 q 550 1036 593 1036 q 513 1043 531 1036 q 475 1064 496 1050 q 437 1085 451 1078 q 404 1092 422 1092 q 376 1072 389 1092 q 363 1036 363 1053 l 321 1036 z "},"Ũ":{"ha":954,"x_min":13,"x_max":846,"o":"m 492 -14 q 281 31 358 -14 q 170 165 203 76 q 138 396 138 254 l 138 750 q 118 855 138 821 q 40 889 99 889 l 13 889 l 13 917 l 138 917 q 215 903 189 917 q 251 856 240 890 q 263 750 263 821 l 263 354 q 319 121 263 200 q 508 42 376 42 q 676 79 614 42 q 764 193 738 117 q 790 396 790 269 l 790 917 l 846 917 l 846 396 q 815 163 846 251 q 708 31 785 75 q 492 -14 631 -14 m 321 1036 q 341 1138 321 1108 q 404 1168 361 1168 q 442 1160 425 1168 q 481 1139 460 1153 q 499 1128 485 1136 q 525 1117 513 1121 q 550 1113 538 1113 q 578 1132 565 1113 q 592 1168 592 1151 l 633 1168 q 613 1066 633 1096 q 550 1036 593 1036 q 513 1043 531 1036 q 475 1064 496 1050 q 437 1085 451 1078 q 404 1092 422 1092 q 376 1072 389 1092 q 363 1036 363 1053 l 321 1036 z "},"V":{"ha":889,"x_min":-40,"x_max":858,"o":"m 113 754 q 47 865 78 835 q -40 900 17 894 l -40 928 q -20 929 -33 928 q 7 931 -7 931 q 140 895 76 931 q 249 754 204 860 l 486 194 l 568 385 q 792 917 626 519 l 858 917 l 460 -14 l 435 -14 l 113 754 z "},"W":{"ha":1203,"x_min":-44,"x_max":1157,"o":"m 108 754 q 49 865 81 835 q -44 900 18 894 l -44 928 q -24 929 -37 928 q 3 931 -11 931 q 141 896 79 931 q 240 754 203 861 l 426 218 l 575 658 l 542 754 q 483 865 514 835 q 389 900 451 894 l 389 928 q 409 929 396 928 q 436 931 422 931 q 574 896 513 931 q 674 754 636 861 l 860 218 l 1097 917 l 1157 917 l 839 -14 l 811 -14 l 606 571 l 406 -14 l 378 -14 l 108 754 z "},"X":{"ha":926,"x_min":-12,"x_max":946,"o":"m 404 451 l 210 736 q 151 813 176 785 q 86 864 126 842 q -12 889 46 886 l -12 917 l 154 917 q 257 877 215 917 q 349 764 299 838 l 488 556 l 765 917 l 835 917 l 522 507 l 744 181 q 837 74 788 117 q 946 28 886 32 l 946 0 l 800 0 q 694 42 740 0 q 606 153 649 85 l 439 403 l 126 0 l 57 0 l 404 451 z "},"Y":{"ha":872,"x_min":-35,"x_max":853,"o":"m 403 379 l 167 736 q 106 817 131 788 q 47 866 81 846 q -35 889 13 886 l -35 917 l 90 917 q 207 876 160 917 q 299 764 254 835 l 500 451 l 790 917 l 853 917 l 528 389 l 528 0 l 403 0 l 403 379 z "},"Ý":{"ha":872,"x_min":-35,"x_max":853,"o":"m 403 379 l 167 736 q 106 817 131 788 q 47 866 81 846 q -35 889 13 886 l -35 917 l 90 917 q 207 876 160 917 q 299 764 254 835 l 500 451 l 790 917 l 853 917 l 528 389 l 528 0 l 403 0 l 403 379 m 438 932 l 493 1113 l 625 1113 l 493 932 l 438 932 z "},"Ÿ":{"ha":872,"x_min":-35,"x_max":853,"o":"m 403 379 l 167 736 q 106 817 131 788 q 47 866 81 846 q -35 889 13 886 l -35 917 l 90 917 q 207 876 160 917 q 299 764 254 835 l 500 451 l 790 917 l 853 917 l 528 389 l 528 0 l 403 0 l 403 379 m 368 958 q 317 977 336 958 q 299 1028 299 996 q 317 1078 299 1060 q 368 1097 336 1097 q 419 1078 400 1097 q 438 1028 438 1060 q 419 977 438 996 q 368 958 400 958 m 604 958 q 553 977 572 958 q 535 1028 535 996 q 553 1078 535 1060 q 604 1097 572 1097 q 655 1078 636 1097 q 674 1028 674 1060 q 655 977 674 996 q 604 958 636 958 z "},"Ỵ":{"ha":872,"x_min":-35,"x_max":853,"o":"m 403 379 l 167 736 q 106 817 131 788 q 47 866 81 846 q -35 889 13 886 l -35 917 l 90 917 q 207 876 160 917 q 299 764 254 835 l 500 451 l 790 917 l 853 917 l 528 389 l 528 0 l 403 0 l 403 379 m 436 -218 q 392 -199 411 -218 q 374 -154 374 -181 q 392 -111 374 -129 q 436 -93 411 -93 q 480 -111 463 -93 q 497 -154 497 -129 q 479 -199 497 -181 q 436 -218 461 -218 z "},"Ỳ":{"ha":872,"x_min":-35,"x_max":853,"o":"m 403 379 l 167 736 q 106 817 131 788 q 47 866 81 846 q -35 889 13 886 l -35 917 l 90 917 q 207 876 160 917 q 299 764 254 835 l 500 451 l 790 917 l 853 917 l 528 389 l 528 0 l 403 0 l 403 379 m 422 979 l 290 1160 l 422 1160 l 478 979 l 422 979 z "},"Ỷ":{"ha":872,"x_min":-35,"x_max":853,"o":"m 403 379 l 167 736 q 106 817 131 788 q 47 866 81 846 q -35 889 13 886 l -35 917 l 90 917 q 207 876 160 917 q 299 764 254 835 l 500 451 l 790 917 l 853 917 l 528 389 l 528 0 l 403 0 l 403 379 m 438 988 q 447 1035 439 1015 q 468 1079 454 1056 q 481 1103 475 1092 q 486 1126 486 1115 q 474 1157 486 1146 q 440 1168 463 1168 q 397 1153 413 1168 q 374 1099 381 1138 l 315 1100 q 349 1188 315 1156 q 440 1219 383 1219 q 522 1199 486 1219 q 557 1140 557 1179 q 549 1108 557 1122 q 524 1074 540 1093 q 493 1033 504 1051 q 481 988 482 1014 l 438 988 z "},"Ỹ":{"ha":872,"x_min":-35,"x_max":853,"o":"m 403 379 l 167 736 q 106 817 131 788 q 47 866 81 846 q -35 889 13 886 l -35 917 l 90 917 q 207 876 160 917 q 299 764 254 835 l 500 451 l 790 917 l 853 917 l 528 389 l 528 0 l 403 0 l 403 379 m 279 1036 q 299 1138 279 1108 q 363 1168 319 1168 q 401 1160 383 1168 q 439 1139 418 1153 q 457 1128 443 1136 q 483 1117 471 1121 q 508 1113 496 1113 q 537 1132 524 1113 q 550 1168 550 1151 l 592 1168 q 572 1066 592 1096 q 508 1036 551 1036 q 472 1043 489 1036 q 433 1064 454 1050 q 395 1085 410 1078 q 363 1092 381 1092 q 334 1072 347 1092 q 321 1036 321 1053 l 279 1036 z "},"Z":{"ha":821,"x_min":33,"x_max":797,"o":"m 33 28 l 610 861 l 276 861 q 103 701 103 861 l 75 701 l 75 806 q 193 917 75 917 l 797 917 l 207 56 l 776 56 l 776 0 l 33 0 l 33 28 z "},"Ž":{"ha":821,"x_min":33,"x_max":797,"o":"m 33 28 l 610 861 l 276 861 q 103 701 103 861 l 75 701 l 75 806 q 193 917 75 917 l 797 917 l 207 56 l 776 56 l 776 0 l 33 0 l 33 28 m 351 986 l 240 1146 l 310 1146 l 428 1035 l 546 1146 l 615 1146 l 504 986 l 351 986 z "},"a":{"ha":668,"x_min":54,"x_max":575,"o":"m 256 -14 q 165 5 211 -14 q 87 67 119 24 q 54 181 54 110 q 152 331 54 286 q 408 375 250 375 l 450 375 q 413 561 450 511 q 304 611 375 611 q 204 585 242 611 q 151 493 167 558 l 89 493 q 94 567 89 540 q 124 618 100 594 q 206 655 149 643 q 332 667 264 667 q 510 606 444 667 q 575 375 575 546 l 575 0 l 506 0 l 457 63 l 450 63 q 376 8 425 31 q 256 -14 328 -14 m 318 49 q 394 71 364 49 q 450 132 425 93 l 450 319 l 408 319 q 246 281 306 319 q 186 181 186 243 q 224 83 186 117 q 318 49 263 49 z "},"á":{"ha":668,"x_min":54,"x_max":575,"o":"m 256 -14 q 165 5 211 -14 q 87 67 119 24 q 54 181 54 110 q 152 331 54 286 q 408 375 250 375 l 450 375 q 413 561 450 511 q 304 611 375 611 q 204 585 242 611 q 151 493 167 558 l 89 493 q 94 567 89 540 q 124 618 100 594 q 206 655 149 643 q 332 667 264 667 q 510 606 444 667 q 575 375 575 546 l 575 0 l 506 0 l 457 63 l 450 63 q 376 8 425 31 q 256 -14 328 -14 m 318 49 q 394 71 364 49 q 450 132 425 93 l 450 319 l 408 319 q 246 281 306 319 q 186 181 186 243 q 224 83 186 117 q 318 49 263 49 m 296 715 l 351 896 l 483 896 l 351 715 l 296 715 z "},"ă":{"ha":668,"x_min":54,"x_max":575,"o":"m 256 -14 q 165 5 211 -14 q 87 67 119 24 q 54 181 54 110 q 152 331 54 286 q 408 375 250 375 l 450 375 q 413 561 450 511 q 304 611 375 611 q 204 585 242 611 q 151 493 167 558 l 89 493 q 94 567 89 540 q 124 618 100 594 q 206 655 149 643 q 332 667 264 667 q 510 606 444 667 q 575 375 575 546 l 575 0 l 506 0 l 457 63 l 450 63 q 376 8 425 31 q 256 -14 328 -14 m 318 49 q 394 71 364 49 q 450 132 425 93 l 450 319 l 408 319 q 246 281 306 319 q 186 181 186 243 q 224 83 186 117 q 318 49 263 49 m 335 710 q 154 821 215 710 l 182 842 q 244 800 210 814 q 335 786 279 786 q 425 800 390 786 q 488 842 460 814 l 515 821 q 335 710 454 710 z "},"ắ":{"ha":668,"x_min":54,"x_max":575,"o":"m 256 -14 q 165 5 211 -14 q 87 67 119 24 q 54 181 54 110 q 152 331 54 286 q 408 375 250 375 l 450 375 q 413 561 450 511 q 304 611 375 611 q 204 585 242 611 q 151 493 167 558 l 89 493 q 94 567 89 540 q 124 618 100 594 q 206 655 149 643 q 332 667 264 667 q 510 606 444 667 q 575 375 575 546 l 575 0 l 506 0 l 457 63 l 450 63 q 376 8 425 31 q 256 -14 328 -14 m 318 49 q 394 71 364 49 q 450 132 425 93 l 450 319 l 408 319 q 246 281 306 319 q 186 181 186 243 q 224 83 186 117 q 318 49 263 49 m 335 710 q 154 821 215 710 l 182 842 q 244 800 210 814 q 335 786 279 786 q 425 800 390 786 q 488 842 460 814 l 515 821 q 335 710 454 710 m 296 904 l 351 1085 l 483 1085 l 351 904 l 296 904 z "},"ặ":{"ha":668,"x_min":54,"x_max":575,"o":"m 256 -14 q 165 5 211 -14 q 87 67 119 24 q 54 181 54 110 q 152 331 54 286 q 408 375 250 375 l 450 375 q 413 561 450 511 q 304 611 375 611 q 204 585 242 611 q 151 493 167 558 l 89 493 q 94 567 89 540 q 124 618 100 594 q 206 655 149 643 q 332 667 264 667 q 510 606 444 667 q 575 375 575 546 l 575 0 l 506 0 l 457 63 l 450 63 q 376 8 425 31 q 256 -14 328 -14 m 318 49 q 394 71 364 49 q 450 132 425 93 l 450 319 l 408 319 q 246 281 306 319 q 186 181 186 243 q 224 83 186 117 q 318 49 263 49 m 335 -218 q 291 -199 310 -218 q 272 -154 272 -181 q 291 -111 272 -129 q 335 -93 310 -93 q 378 -111 361 -93 q 396 -154 396 -129 q 378 -199 396 -181 q 335 -218 360 -218 m 335 710 q 154 821 215 710 l 182 842 q 244 800 210 814 q 335 786 279 786 q 425 800 390 786 q 488 842 460 814 l 515 821 q 335 710 454 710 z "},"ằ":{"ha":668,"x_min":54,"x_max":575,"o":"m 256 -14 q 165 5 211 -14 q 87 67 119 24 q 54 181 54 110 q 152 331 54 286 q 408 375 250 375 l 450 375 q 413 561 450 511 q 304 611 375 611 q 204 585 242 611 q 151 493 167 558 l 89 493 q 94 567 89 540 q 124 618 100 594 q 206 655 149 643 q 332 667 264 667 q 510 606 444 667 q 575 375 575 546 l 575 0 l 506 0 l 457 63 l 450 63 q 376 8 425 31 q 256 -14 328 -14 m 318 49 q 394 71 364 49 q 450 132 425 93 l 450 319 l 408 319 q 246 281 306 319 q 186 181 186 243 q 224 83 186 117 q 318 49 263 49 m 335 710 q 154 821 215 710 l 182 842 q 244 800 210 814 q 335 786 279 786 q 425 800 390 786 q 488 842 460 814 l 515 821 q 335 710 454 710 m 321 904 l 189 1085 l 321 1085 l 376 904 l 321 904 z "},"ẳ":{"ha":668,"x_min":54,"x_max":575,"o":"m 256 -14 q 165 5 211 -14 q 87 67 119 24 q 54 181 54 110 q 152 331 54 286 q 408 375 250 375 l 450 375 q 413 561 450 511 q 304 611 375 611 q 204 585 242 611 q 151 493 167 558 l 89 493 q 94 567 89 540 q 124 618 100 594 q 206 655 149 643 q 332 667 264 667 q 510 606 444 667 q 575 375 575 546 l 575 0 l 506 0 l 457 63 l 450 63 q 376 8 425 31 q 256 -14 328 -14 m 318 49 q 394 71 364 49 q 450 132 425 93 l 450 319 l 408 319 q 246 281 306 319 q 186 181 186 243 q 224 83 186 117 q 318 49 263 49 m 335 710 q 154 821 215 710 l 182 842 q 244 800 210 814 q 335 786 279 786 q 425 800 390 786 q 488 842 460 814 l 515 821 q 335 710 454 710 m 307 858 q 316 906 308 886 q 338 950 324 926 q 350 974 344 963 q 356 997 356 986 q 344 1028 356 1017 q 310 1039 332 1039 q 266 1024 282 1039 q 243 969 250 1008 l 185 971 q 219 1058 185 1026 q 310 1090 253 1090 q 391 1070 356 1090 q 426 1011 426 1050 q 418 978 426 993 q 393 944 410 964 q 363 903 374 922 q 350 858 351 885 l 307 858 z "},"ẵ":{"ha":668,"x_min":54,"x_max":575,"o":"m 256 -14 q 165 5 211 -14 q 87 67 119 24 q 54 181 54 110 q 152 331 54 286 q 408 375 250 375 l 450 375 q 413 561 450 511 q 304 611 375 611 q 204 585 242 611 q 151 493 167 558 l 89 493 q 94 567 89 540 q 124 618 100 594 q 206 655 149 643 q 332 667 264 667 q 510 606 444 667 q 575 375 575 546 l 575 0 l 506 0 l 457 63 l 450 63 q 376 8 425 31 q 256 -14 328 -14 m 318 49 q 394 71 364 49 q 450 132 425 93 l 450 319 l 408 319 q 246 281 306 319 q 186 181 186 243 q 224 83 186 117 q 318 49 263 49 m 335 710 q 154 821 215 710 l 182 842 q 244 800 210 814 q 335 786 279 786 q 425 800 390 786 q 488 842 460 814 l 515 821 q 335 710 454 710 m 178 892 q 198 994 178 964 q 261 1024 218 1024 q 299 1016 282 1024 q 338 994 317 1008 q 356 984 342 992 q 382 972 369 976 q 407 968 394 968 q 435 988 422 968 q 449 1024 449 1007 l 490 1024 q 470 922 490 951 q 407 892 450 892 q 370 899 388 892 q 332 919 353 906 q 294 940 308 933 q 261 947 279 947 q 233 928 246 947 q 219 892 219 908 l 178 892 z "},"â":{"ha":668,"x_min":54,"x_max":575,"o":"m 256 -14 q 165 5 211 -14 q 87 67 119 24 q 54 181 54 110 q 152 331 54 286 q 408 375 250 375 l 450 375 q 413 561 450 511 q 304 611 375 611 q 204 585 242 611 q 151 493 167 558 l 89 493 q 94 567 89 540 q 124 618 100 594 q 206 655 149 643 q 332 667 264 667 q 510 606 444 667 q 575 375 575 546 l 575 0 l 506 0 l 457 63 l 450 63 q 376 8 425 31 q 256 -14 328 -14 m 318 49 q 394 71 364 49 q 450 132 425 93 l 450 319 l 408 319 q 246 281 306 319 q 186 181 186 243 q 224 83 186 117 q 318 49 263 49 m 147 722 l 258 882 l 411 882 l 522 722 l 453 722 l 335 833 l 217 722 l 147 722 z "},"ấ":{"ha":668,"x_min":54,"x_max":696,"o":"m 256 -14 q 165 5 211 -14 q 87 67 119 24 q 54 181 54 110 q 152 331 54 286 q 408 375 250 375 l 450 375 q 413 561 450 511 q 304 611 375 611 q 204 585 242 611 q 151 493 167 558 l 89 493 q 94 567 89 540 q 124 618 100 594 q 206 655 149 643 q 332 667 264 667 q 510 606 444 667 q 575 375 575 546 l 575 0 l 506 0 l 457 63 l 450 63 q 376 8 425 31 q 256 -14 328 -14 m 318 49 q 394 71 364 49 q 450 132 425 93 l 450 319 l 408 319 q 246 281 306 319 q 186 181 186 243 q 224 83 186 117 q 318 49 263 49 m 147 722 l 258 882 l 411 882 l 522 722 l 453 722 l 335 833 l 217 722 l 147 722 m 508 801 l 564 982 l 696 982 l 564 801 l 508 801 z "},"ậ":{"ha":668,"x_min":54,"x_max":575,"o":"m 256 -14 q 165 5 211 -14 q 87 67 119 24 q 54 181 54 110 q 152 331 54 286 q 408 375 250 375 l 450 375 q 413 561 450 511 q 304 611 375 611 q 204 585 242 611 q 151 493 167 558 l 89 493 q 94 567 89 540 q 124 618 100 594 q 206 655 149 643 q 332 667 264 667 q 510 606 444 667 q 575 375 575 546 l 575 0 l 506 0 l 457 63 l 450 63 q 376 8 425 31 q 256 -14 328 -14 m 318 49 q 394 71 364 49 q 450 132 425 93 l 450 319 l 408 319 q 246 281 306 319 q 186 181 186 243 q 224 83 186 117 q 318 49 263 49 m 335 -218 q 291 -199 310 -218 q 272 -154 272 -181 q 291 -111 272 -129 q 335 -93 310 -93 q 378 -111 361 -93 q 396 -154 396 -129 q 378 -199 396 -181 q 335 -218 360 -218 m 147 722 l 258 882 l 411 882 l 522 722 l 453 722 l 335 833 l 217 722 l 147 722 z "},"ầ":{"ha":668,"x_min":54,"x_max":575,"o":"m 256 -14 q 165 5 211 -14 q 87 67 119 24 q 54 181 54 110 q 152 331 54 286 q 408 375 250 375 l 450 375 q 413 561 450 511 q 304 611 375 611 q 204 585 242 611 q 151 493 167 558 l 89 493 q 94 567 89 540 q 124 618 100 594 q 206 655 149 643 q 332 667 264 667 q 510 606 444 667 q 575 375 575 546 l 575 0 l 506 0 l 457 63 l 450 63 q 376 8 425 31 q 256 -14 328 -14 m 318 49 q 394 71 364 49 q 450 132 425 93 l 450 319 l 408 319 q 246 281 306 319 q 186 181 186 243 q 224 83 186 117 q 318 49 263 49 m 147 722 l 258 882 l 411 882 l 522 722 l 453 722 l 335 833 l 217 722 l 147 722 m 513 838 l 381 1018 l 513 1018 l 568 838 l 513 838 z "},"ẩ":{"ha":668,"x_min":54,"x_max":615,"o":"m 256 -14 q 165 5 211 -14 q 87 67 119 24 q 54 181 54 110 q 152 331 54 286 q 408 375 250 375 l 450 375 q 413 561 450 511 q 304 611 375 611 q 204 585 242 611 q 151 493 167 558 l 89 493 q 94 567 89 540 q 124 618 100 594 q 206 655 149 643 q 332 667 264 667 q 510 606 444 667 q 575 375 575 546 l 575 0 l 506 0 l 457 63 l 450 63 q 376 8 425 31 q 256 -14 328 -14 m 318 49 q 394 71 364 49 q 450 132 425 93 l 450 319 l 408 319 q 246 281 306 319 q 186 181 186 243 q 224 83 186 117 q 318 49 263 49 m 147 722 l 258 882 l 411 882 l 522 722 l 453 722 l 335 833 l 217 722 l 147 722 m 496 844 q 505 892 497 872 q 526 936 513 913 q 539 960 533 949 q 544 983 544 972 q 533 1014 544 1003 q 499 1025 521 1025 q 455 1010 471 1025 q 432 956 439 994 l 374 957 q 408 1044 374 1013 q 499 1076 442 1076 q 580 1056 544 1076 q 615 997 615 1036 q 607 965 615 979 q 582 931 599 950 q 551 890 563 908 q 539 844 540 871 l 496 844 z "},"ẫ":{"ha":668,"x_min":54,"x_max":575,"o":"m 256 -14 q 165 5 211 -14 q 87 67 119 24 q 54 181 54 110 q 152 331 54 286 q 408 375 250 375 l 450 375 q 413 561 450 511 q 304 611 375 611 q 204 585 242 611 q 151 493 167 558 l 89 493 q 94 567 89 540 q 124 618 100 594 q 206 655 149 643 q 332 667 264 667 q 510 606 444 667 q 575 375 575 546 l 575 0 l 506 0 l 457 63 l 450 63 q 376 8 425 31 q 256 -14 328 -14 m 318 49 q 394 71 364 49 q 450 132 425 93 l 450 319 l 408 319 q 246 281 306 319 q 186 181 186 243 q 224 83 186 117 q 318 49 263 49 m 147 722 l 258 882 l 411 882 l 522 722 l 453 722 l 335 833 l 217 722 l 147 722 m 178 928 q 198 1030 178 1000 q 261 1060 218 1060 q 299 1052 282 1060 q 338 1031 317 1044 q 356 1020 342 1028 q 382 1008 369 1013 q 407 1004 394 1004 q 435 1024 422 1004 q 449 1060 449 1043 l 490 1060 q 470 958 490 988 q 407 928 450 928 q 370 935 388 928 q 332 956 353 942 q 294 976 308 969 q 261 983 279 983 q 233 964 246 983 q 219 928 219 944 l 178 928 z "},"ä":{"ha":668,"x_min":54,"x_max":651,"o":"m 256 -14 q 165 5 211 -14 q 87 67 119 24 q 54 181 54 110 q 152 331 54 286 q 408 375 250 375 l 450 375 q 413 561 450 511 q 304 611 375 611 q 204 585 242 611 q 151 493 167 558 l 89 493 q 94 567 89 540 q 124 618 100 594 q 206 655 149 643 q 332 667 264 667 q 510 606 444 667 q 575 375 575 546 l 575 0 l 506 0 l 457 63 l 450 63 q 376 8 425 31 q 256 -14 328 -14 m 318 49 q 394 71 364 49 q 450 132 425 93 l 450 319 l 408 319 q 246 281 306 319 q 186 181 186 243 q 224 83 186 117 q 318 49 263 49 m 353 743 q 308 761 326 743 q 290 806 290 779 q 308 850 290 832 q 353 868 326 868 q 397 850 379 868 q 415 806 415 832 q 397 761 415 779 q 353 743 379 743 m 589 743 q 544 761 563 743 q 526 806 526 779 q 544 850 526 832 q 589 868 563 868 q 633 850 615 868 q 651 806 651 832 q 633 761 651 779 q 589 743 615 743 z "},"ạ":{"ha":668,"x_min":54,"x_max":575,"o":"m 256 -14 q 165 5 211 -14 q 87 67 119 24 q 54 181 54 110 q 152 331 54 286 q 408 375 250 375 l 450 375 q 413 561 450 511 q 304 611 375 611 q 204 585 242 611 q 151 493 167 558 l 89 493 q 94 567 89 540 q 124 618 100 594 q 206 655 149 643 q 332 667 264 667 q 510 606 444 667 q 575 375 575 546 l 575 0 l 506 0 l 457 63 l 450 63 q 376 8 425 31 q 256 -14 328 -14 m 318 49 q 394 71 364 49 q 450 132 425 93 l 450 319 l 408 319 q 246 281 306 319 q 186 181 186 243 q 224 83 186 117 q 318 49 263 49 m 335 -218 q 291 -199 310 -218 q 272 -154 272 -181 q 291 -111 272 -129 q 335 -93 310 -93 q 378 -111 361 -93 q 396 -154 396 -129 q 378 -199 396 -181 q 335 -218 360 -218 z "},"à":{"ha":668,"x_min":54,"x_max":575,"o":"m 256 -14 q 165 5 211 -14 q 87 67 119 24 q 54 181 54 110 q 152 331 54 286 q 408 375 250 375 l 450 375 q 413 561 450 511 q 304 611 375 611 q 204 585 242 611 q 151 493 167 558 l 89 493 q 94 567 89 540 q 124 618 100 594 q 206 655 149 643 q 332 667 264 667 q 510 606 444 667 q 575 375 575 546 l 575 0 l 506 0 l 457 63 l 450 63 q 376 8 425 31 q 256 -14 328 -14 m 318 49 q 394 71 364 49 q 450 132 425 93 l 450 319 l 408 319 q 246 281 306 319 q 186 181 186 243 q 224 83 186 117 q 318 49 263 49 m 321 715 l 189 896 l 321 896 l 376 715 l 321 715 z "},"ả":{"ha":668,"x_min":54,"x_max":575,"o":"m 256 -14 q 165 5 211 -14 q 87 67 119 24 q 54 181 54 110 q 152 331 54 286 q 408 375 250 375 l 450 375 q 413 561 450 511 q 304 611 375 611 q 204 585 242 611 q 151 493 167 558 l 89 493 q 94 567 89 540 q 124 618 100 594 q 206 655 149 643 q 332 667 264 667 q 510 606 444 667 q 575 375 575 546 l 575 0 l 506 0 l 457 63 l 450 63 q 376 8 425 31 q 256 -14 328 -14 m 318 49 q 394 71 364 49 q 450 132 425 93 l 450 319 l 408 319 q 246 281 306 319 q 186 181 186 243 q 224 83 186 117 q 318 49 263 49 m 336 724 q 345 772 338 751 q 367 815 353 792 q 379 840 374 828 q 385 863 385 851 q 373 893 385 882 q 339 904 361 904 q 295 889 311 904 q 272 835 279 874 l 214 836 q 248 924 214 892 q 339 956 282 956 q 420 935 385 956 q 456 876 456 915 q 447 844 456 858 q 422 810 439 829 q 392 769 403 788 q 379 724 381 750 l 336 724 z "},"å":{"ha":668,"x_min":54,"x_max":575,"o":"m 256 -14 q 165 5 211 -14 q 87 67 119 24 q 54 181 54 110 q 152 331 54 286 q 408 375 250 375 l 450 375 q 413 561 450 511 q 304 611 375 611 q 204 585 242 611 q 151 493 167 558 l 89 493 q 94 567 89 540 q 124 618 100 594 q 206 655 149 643 q 332 667 264 667 q 510 606 444 667 q 575 375 575 546 l 575 0 l 506 0 l 457 63 l 450 63 q 376 8 425 31 q 256 -14 328 -14 m 318 49 q 394 71 364 49 q 450 132 425 93 l 450 319 l 408 319 q 246 281 306 319 q 186 181 186 243 q 224 83 186 117 q 318 49 263 49 m 325 736 q 242 772 278 736 q 207 854 207 807 q 242 937 207 901 q 325 972 278 972 q 408 937 372 972 q 443 854 443 901 q 408 772 443 807 q 325 736 372 736 m 325 785 q 369 803 351 785 q 388 854 388 822 q 369 905 388 886 q 325 924 351 924 q 281 905 299 924 q 263 854 263 886 q 281 803 263 822 q 325 785 299 785 z "},"ã":{"ha":668,"x_min":54,"x_max":575,"o":"m 256 -14 q 165 5 211 -14 q 87 67 119 24 q 54 181 54 110 q 152 331 54 286 q 408 375 250 375 l 450 375 q 413 561 450 511 q 304 611 375 611 q 204 585 242 611 q 151 493 167 558 l 89 493 q 94 567 89 540 q 124 618 100 594 q 206 655 149 643 q 332 667 264 667 q 510 606 444 667 q 575 375 575 546 l 575 0 l 506 0 l 457 63 l 450 63 q 376 8 425 31 q 256 -14 328 -14 m 318 49 q 394 71 364 49 q 450 132 425 93 l 450 319 l 408 319 q 246 281 306 319 q 186 181 186 243 q 224 83 186 117 q 318 49 263 49 m 171 744 q 191 847 171 817 q 254 876 211 876 q 292 869 275 876 q 331 847 310 861 q 349 837 335 844 q 375 825 363 829 q 400 821 388 821 q 428 840 415 821 q 442 876 442 860 l 483 876 q 463 774 483 804 q 400 744 443 744 q 363 751 381 744 q 325 772 346 758 q 287 793 301 786 q 254 800 272 800 q 226 781 239 800 q 213 744 213 761 l 171 744 z "},"æ":{"ha":1054,"x_min":54,"x_max":992,"o":"m 276 -14 q 122 31 189 -14 q 54 174 54 75 q 152 317 54 274 q 408 361 250 361 l 450 361 q 413 558 450 506 q 304 611 375 611 q 204 585 242 611 q 151 493 167 558 l 89 493 q 94 567 89 540 q 124 618 100 594 q 206 655 149 643 q 332 667 264 667 q 453 632 403 667 q 526 542 504 597 q 599 632 549 597 q 714 667 649 667 q 923 588 854 667 q 992 361 992 510 l 989 306 l 575 306 q 625 115 575 189 q 763 42 675 42 q 873 69 828 42 q 957 153 918 97 l 985 132 q 878 21 939 56 q 735 -14 817 -14 q 499 104 572 -14 q 415 15 467 44 q 276 -14 363 -14 m 867 361 q 830 542 867 479 q 721 604 793 604 q 646 572 679 604 q 594 485 613 540 q 575 361 575 429 l 867 361 m 318 49 q 394 71 364 49 q 450 132 425 93 l 450 306 l 408 306 q 246 269 306 306 q 186 174 186 233 q 224 81 186 114 q 318 49 261 49 z "},"b":{"ha":726,"x_min":-25,"x_max":663,"o":"m 413 -14 q 296 8 342 -14 q 225 63 250 31 l 218 63 l 169 0 l 100 0 l 100 750 q 81 855 100 821 q 3 889 61 889 l -25 889 l -25 917 l 100 917 q 177 903 151 917 q 214 856 203 890 q 225 750 225 821 l 225 625 q 306 656 265 644 q 399 667 346 667 q 595 571 528 667 q 663 326 663 475 q 597 83 663 179 q 413 -14 532 -14 m 371 42 q 490 120 450 42 q 531 326 531 199 q 488 533 531 456 q 357 611 446 611 q 297 600 328 611 q 225 569 267 589 l 225 125 q 284 65 250 88 q 371 42 318 42 z "},"c":{"ha":671,"x_min":63,"x_max":625,"o":"m 368 -14 q 199 31 268 -14 q 97 153 131 76 q 63 326 63 231 q 97 499 63 422 q 199 622 131 576 q 368 667 268 667 q 569 618 521 667 q 599 560 593 594 q 604 438 604 526 l 576 438 q 522 567 571 524 q 396 611 474 611 q 245 532 296 611 q 194 326 194 453 q 245 121 194 200 q 396 42 296 42 q 513 69 467 42 q 597 153 558 96 l 625 132 q 517 20 579 54 q 368 -14 454 -14 z "},"ç":{"ha":671,"x_min":63,"x_max":625,"o":"m 321 -215 l 390 -215 q 446 -171 446 -215 q 390 -125 446 -125 l 328 -125 l 328 -14 q 130 96 197 3 q 63 326 63 189 q 97 499 63 422 q 199 622 131 576 q 368 667 268 667 q 569 618 521 667 q 599 560 593 594 q 604 438 604 526 l 576 438 q 522 567 571 524 q 396 611 474 611 q 245 532 296 611 q 194 326 194 453 q 245 121 194 200 q 396 42 296 42 q 513 69 467 42 q 597 153 558 96 l 625 132 q 521 24 581 57 q 390 -12 468 -6 l 390 -69 l 404 -69 q 484 -96 453 -69 q 515 -171 515 -122 q 484 -245 515 -218 q 404 -272 453 -272 l 321 -272 l 321 -215 z "},"d":{"ha":728,"x_min":65,"x_max":628,"o":"m 315 -14 q 130 82 194 -14 q 65 326 65 178 q 133 571 65 475 q 329 667 200 667 q 422 656 382 667 q 503 625 463 644 l 503 750 q 483 855 503 821 q 406 889 464 889 l 378 889 l 378 917 l 503 917 q 580 903 554 917 q 617 856 606 890 q 628 750 628 821 l 628 0 l 558 0 l 510 63 l 503 63 q 431 7 472 28 q 315 -14 390 -14 m 357 42 q 443 63 414 42 q 503 125 472 83 l 503 569 q 431 600 461 589 q 371 611 400 611 q 240 533 282 611 q 197 326 197 456 q 238 120 197 199 q 357 42 278 42 z "},"ð":{"ha":746,"x_min":61,"x_max":672,"o":"m 367 -14 q 203 31 272 -14 q 97 154 133 76 q 61 326 61 232 q 97 499 61 421 q 203 622 133 576 q 367 667 272 667 q 473 638 425 667 q 547 556 521 608 q 508 685 531 632 q 450 778 486 738 l 394 722 l 353 764 l 408 819 q 341 867 375 853 q 256 882 307 882 q 220 879 238 882 q 194 874 203 876 l 183 900 q 240 924 210 918 q 311 931 269 931 q 471 875 393 931 l 519 931 l 561 889 l 513 840 q 631 647 589 764 q 672 375 672 529 q 592 91 672 196 q 367 -14 511 -14 m 367 42 q 458 79 418 42 q 519 182 497 117 q 540 326 540 247 q 519 471 540 406 q 458 574 497 536 q 367 611 418 611 q 276 574 315 611 q 215 471 236 536 q 193 326 193 406 q 215 182 193 247 q 276 79 236 117 q 367 42 315 42 z "},"đ":{"ha":726,"x_min":65,"x_max":685,"o":"m 685 717 l 628 717 l 628 0 l 558 0 l 510 63 l 503 63 q 431 7 472 28 q 315 -14 390 -14 q 130 82 194 -14 q 65 326 65 178 q 133 571 65 475 q 329 667 200 667 q 422 656 382 667 q 503 625 463 644 l 503 717 l 296 717 l 296 772 l 503 772 q 479 860 500 831 q 406 889 458 889 l 378 889 l 378 917 l 503 917 q 577 905 551 917 q 615 863 603 893 q 628 772 626 832 l 685 772 l 685 717 m 503 569 q 431 600 461 589 q 371 611 400 611 q 240 533 282 611 q 197 326 197 456 q 238 120 197 199 q 357 42 278 42 q 443 63 414 42 q 503 125 472 83 l 503 569 z "},"e":{"ha":678,"x_min":63,"x_max":618,"o":"m 354 -14 q 194 31 260 -14 q 96 153 129 76 q 63 326 63 231 q 96 499 63 421 q 192 622 129 576 q 340 667 256 667 q 549 588 481 667 q 618 361 618 510 l 615 306 l 194 306 q 244 115 194 189 q 382 42 294 42 q 492 69 447 42 q 576 153 538 97 l 604 132 q 497 21 558 56 q 354 -14 436 -14 m 486 361 q 450 547 486 483 q 340 611 414 611 q 265 578 299 611 q 213 489 232 546 q 194 361 194 432 l 486 361 z "},"é":{"ha":678,"x_min":63,"x_max":618,"o":"m 354 -14 q 194 31 260 -14 q 96 153 129 76 q 63 326 63 231 q 96 499 63 421 q 192 622 129 576 q 340 667 256 667 q 549 588 481 667 q 618 361 618 510 l 615 306 l 194 306 q 244 115 194 189 q 382 42 294 42 q 492 69 447 42 q 576 153 538 97 l 604 132 q 497 21 558 56 q 354 -14 436 -14 m 486 361 q 450 547 486 483 q 340 611 414 611 q 265 578 299 611 q 213 489 232 546 q 194 361 194 432 l 486 361 m 300 715 l 356 896 l 488 896 l 356 715 l 300 715 z "},"ê":{"ha":678,"x_min":63,"x_max":618,"o":"m 354 -14 q 194 31 260 -14 q 96 153 129 76 q 63 326 63 231 q 96 499 63 421 q 192 622 129 576 q 340 667 256 667 q 549 588 481 667 q 618 361 618 510 l 615 306 l 194 306 q 244 115 194 189 q 382 42 294 42 q 492 69 447 42 q 576 153 538 97 l 604 132 q 497 21 558 56 q 354 -14 436 -14 m 486 361 q 450 547 486 483 q 340 611 414 611 q 265 578 299 611 q 213 489 232 546 q 194 361 194 432 l 486 361 m 151 722 l 263 882 l 415 882 l 526 722 l 457 722 l 339 833 l 221 722 l 151 722 z "},"ế":{"ha":678,"x_min":63,"x_max":700,"o":"m 354 -14 q 194 31 260 -14 q 96 153 129 76 q 63 326 63 231 q 96 499 63 421 q 192 622 129 576 q 340 667 256 667 q 549 588 481 667 q 618 361 618 510 l 615 306 l 194 306 q 244 115 194 189 q 382 42 294 42 q 492 69 447 42 q 576 153 538 97 l 604 132 q 497 21 558 56 q 354 -14 436 -14 m 486 361 q 450 547 486 483 q 340 611 414 611 q 265 578 299 611 q 213 489 232 546 q 194 361 194 432 l 486 361 m 151 722 l 263 882 l 415 882 l 526 722 l 457 722 l 339 833 l 221 722 l 151 722 m 513 801 l 568 982 l 700 982 l 568 801 l 513 801 z "},"ệ":{"ha":678,"x_min":63,"x_max":618,"o":"m 354 -14 q 194 31 260 -14 q 96 153 129 76 q 63 326 63 231 q 96 499 63 421 q 192 622 129 576 q 340 667 256 667 q 549 588 481 667 q 618 361 618 510 l 615 306 l 194 306 q 244 115 194 189 q 382 42 294 42 q 492 69 447 42 q 576 153 538 97 l 604 132 q 497 21 558 56 q 354 -14 436 -14 m 486 361 q 450 547 486 483 q 340 611 414 611 q 265 578 299 611 q 213 489 232 546 q 194 361 194 432 l 486 361 m 339 -218 q 295 -199 314 -218 q 276 -154 276 -181 q 295 -111 276 -129 q 339 -93 314 -93 q 383 -111 365 -93 q 400 -154 400 -129 q 382 -199 400 -181 q 339 -218 364 -218 m 151 722 l 263 882 l 415 882 l 526 722 l 457 722 l 339 833 l 221 722 l 151 722 z "},"ề":{"ha":678,"x_min":63,"x_max":618,"o":"m 354 -14 q 194 31 260 -14 q 96 153 129 76 q 63 326 63 231 q 96 499 63 421 q 192 622 129 576 q 340 667 256 667 q 549 588 481 667 q 618 361 618 510 l 615 306 l 194 306 q 244 115 194 189 q 382 42 294 42 q 492 69 447 42 q 576 153 538 97 l 604 132 q 497 21 558 56 q 354 -14 436 -14 m 486 361 q 450 547 486 483 q 340 611 414 611 q 265 578 299 611 q 213 489 232 546 q 194 361 194 432 l 486 361 m 151 722 l 263 882 l 415 882 l 526 722 l 457 722 l 339 833 l 221 722 l 151 722 m 517 838 l 385 1018 l 517 1018 l 572 838 l 517 838 z "},"ể":{"ha":678,"x_min":63,"x_max":619,"o":"m 354 -14 q 194 31 260 -14 q 96 153 129 76 q 63 326 63 231 q 96 499 63 421 q 192 622 129 576 q 340 667 256 667 q 549 588 481 667 q 618 361 618 510 l 615 306 l 194 306 q 244 115 194 189 q 382 42 294 42 q 492 69 447 42 q 576 153 538 97 l 604 132 q 497 21 558 56 q 354 -14 436 -14 m 486 361 q 450 547 486 483 q 340 611 414 611 q 265 578 299 611 q 213 489 232 546 q 194 361 194 432 l 486 361 m 151 722 l 263 882 l 415 882 l 526 722 l 457 722 l 339 833 l 221 722 l 151 722 m 500 844 q 509 892 501 872 q 531 936 517 913 q 543 960 538 949 q 549 983 549 972 q 537 1014 549 1003 q 503 1025 525 1025 q 459 1010 475 1025 q 436 956 443 994 l 378 957 q 412 1044 378 1013 q 503 1076 446 1076 q 584 1056 549 1076 q 619 997 619 1036 q 611 965 619 979 q 586 931 603 950 q 556 890 567 908 q 543 844 544 871 l 500 844 z "},"ễ":{"ha":678,"x_min":63,"x_max":618,"o":"m 354 -14 q 194 31 260 -14 q 96 153 129 76 q 63 326 63 231 q 96 499 63 421 q 192 622 129 576 q 340 667 256 667 q 549 588 481 667 q 618 361 618 510 l 615 306 l 194 306 q 244 115 194 189 q 382 42 294 42 q 492 69 447 42 q 576 153 538 97 l 604 132 q 497 21 558 56 q 354 -14 436 -14 m 486 361 q 450 547 486 483 q 340 611 414 611 q 265 578 299 611 q 213 489 232 546 q 194 361 194 432 l 486 361 m 151 722 l 263 882 l 415 882 l 526 722 l 457 722 l 339 833 l 221 722 l 151 722 m 182 928 q 202 1030 182 1000 q 265 1060 222 1060 q 303 1052 286 1060 q 342 1031 321 1044 q 360 1020 346 1028 q 386 1008 374 1013 q 411 1004 399 1004 q 440 1024 426 1004 q 453 1060 453 1043 l 494 1060 q 474 958 494 988 q 411 928 454 928 q 374 935 392 928 q 336 956 357 942 q 298 976 313 969 q 265 983 283 983 q 237 964 250 983 q 224 928 224 944 l 182 928 z "},"ë":{"ha":678,"x_min":63,"x_max":653,"o":"m 354 -14 q 194 31 260 -14 q 96 153 129 76 q 63 326 63 231 q 96 499 63 421 q 192 622 129 576 q 340 667 256 667 q 549 588 481 667 q 618 361 618 510 l 615 306 l 194 306 q 244 115 194 189 q 382 42 294 42 q 492 69 447 42 q 576 153 538 97 l 604 132 q 497 21 558 56 q 354 -14 436 -14 m 486 361 q 450 547 486 483 q 340 611 414 611 q 265 578 299 611 q 213 489 232 546 q 194 361 194 432 l 486 361 m 354 757 q 310 775 328 757 q 292 819 292 793 q 310 864 292 846 q 354 882 328 882 q 399 864 381 882 q 417 819 417 846 q 399 775 417 793 q 354 757 381 757 m 590 757 q 546 775 564 757 q 528 819 528 793 q 546 864 528 846 q 590 882 564 882 q 635 864 617 882 q 653 819 653 846 q 635 775 653 793 q 590 757 617 757 z "},"ẹ":{"ha":678,"x_min":63,"x_max":618,"o":"m 354 -14 q 194 31 260 -14 q 96 153 129 76 q 63 326 63 231 q 96 499 63 421 q 192 622 129 576 q 340 667 256 667 q 549 588 481 667 q 618 361 618 510 l 615 306 l 194 306 q 244 115 194 189 q 382 42 294 42 q 492 69 447 42 q 576 153 538 97 l 604 132 q 497 21 558 56 q 354 -14 436 -14 m 486 361 q 450 547 486 483 q 340 611 414 611 q 265 578 299 611 q 213 489 232 546 q 194 361 194 432 l 486 361 m 339 -218 q 295 -199 314 -218 q 276 -154 276 -181 q 295 -111 276 -129 q 339 -93 314 -93 q 383 -111 365 -93 q 400 -154 400 -129 q 382 -199 400 -181 q 339 -218 364 -218 z "},"è":{"ha":678,"x_min":63,"x_max":618,"o":"m 354 -14 q 194 31 260 -14 q 96 153 129 76 q 63 326 63 231 q 96 499 63 421 q 192 622 129 576 q 340 667 256 667 q 549 588 481 667 q 618 361 618 510 l 615 306 l 194 306 q 244 115 194 189 q 382 42 294 42 q 492 69 447 42 q 576 153 538 97 l 604 132 q 497 21 558 56 q 354 -14 436 -14 m 486 361 q 450 547 486 483 q 340 611 414 611 q 265 578 299 611 q 213 489 232 546 q 194 361 194 432 l 486 361 m 325 715 l 193 896 l 325 896 l 381 715 l 325 715 z "},"ẻ":{"ha":678,"x_min":63,"x_max":618,"o":"m 354 -14 q 194 31 260 -14 q 96 153 129 76 q 63 326 63 231 q 96 499 63 421 q 192 622 129 576 q 340 667 256 667 q 549 588 481 667 q 618 361 618 510 l 615 306 l 194 306 q 244 115 194 189 q 382 42 294 42 q 492 69 447 42 q 576 153 538 97 l 604 132 q 497 21 558 56 q 354 -14 436 -14 m 486 361 q 450 547 486 483 q 340 611 414 611 q 265 578 299 611 q 213 489 232 546 q 194 361 194 432 l 486 361 m 340 724 q 349 772 342 751 q 371 815 357 792 q 383 840 378 828 q 389 863 389 851 q 377 893 389 882 q 343 904 365 904 q 299 889 315 904 q 276 835 283 874 l 218 836 q 252 924 218 892 q 343 956 286 956 q 424 935 389 956 q 460 876 460 915 q 451 844 460 858 q 426 810 443 829 q 396 769 407 788 q 383 724 385 750 l 340 724 z "},"ẽ":{"ha":678,"x_min":63,"x_max":618,"o":"m 354 -14 q 194 31 260 -14 q 96 153 129 76 q 63 326 63 231 q 96 499 63 421 q 192 622 129 576 q 340 667 256 667 q 549 588 481 667 q 618 361 618 510 l 615 306 l 194 306 q 244 115 194 189 q 382 42 294 42 q 492 69 447 42 q 576 153 538 97 l 604 132 q 497 21 558 56 q 354 -14 436 -14 m 486 361 q 450 547 486 483 q 340 611 414 611 q 265 578 299 611 q 213 489 232 546 q 194 361 194 432 l 486 361 m 182 772 q 202 874 182 844 q 265 904 222 904 q 303 897 286 904 q 342 875 321 889 q 360 865 346 872 q 386 853 374 857 q 411 849 399 849 q 440 868 426 849 q 453 904 453 888 l 494 904 q 474 802 494 832 q 411 772 454 772 q 374 779 392 772 q 336 800 357 786 q 298 821 313 814 q 265 828 283 828 q 237 808 250 828 q 224 772 224 789 l 182 772 z "},"f":{"ha":468,"x_min":29,"x_max":536,"o":"m 126 597 l 29 597 l 29 653 l 126 653 l 126 694 q 369 931 126 931 q 488 910 457 931 q 536 847 511 892 l 494 813 q 363 875 453 875 q 251 694 251 875 l 251 653 l 446 653 l 446 597 l 251 597 l 251 0 l 126 0 l 126 597 z "},"g":{"ha":683,"x_min":36,"x_max":647,"o":"m 342 -278 q 119 -226 201 -278 q 36 -62 36 -175 q 79 49 36 1 q 189 118 122 96 q 133 201 133 149 q 146 244 133 229 q 182 278 158 260 q 108 347 138 300 q 78 458 78 394 q 342 667 78 667 l 599 667 l 599 632 l 508 618 l 508 611 q 578 549 551 589 q 606 458 606 510 q 342 250 606 250 q 196 201 196 250 q 342 153 196 153 q 562 99 476 153 q 647 -62 647 46 q 565 -226 647 -175 q 342 -278 482 -278 m 342 299 q 442 337 404 299 q 481 458 481 375 q 442 578 481 538 q 342 618 404 618 q 241 580 279 618 q 203 458 203 542 q 241 337 203 375 q 342 299 279 299 m 342 -222 q 474 -183 425 -222 q 522 -62 522 -143 q 356 97 522 76 l 279 104 q 192 42 222 82 q 161 -62 161 1 q 210 -183 161 -143 q 342 -222 258 -222 z "},"ğ":{"ha":683,"x_min":36,"x_max":647,"o":"m 342 -278 q 119 -226 201 -278 q 36 -62 36 -175 q 79 49 36 1 q 189 118 122 96 q 133 201 133 149 q 146 244 133 229 q 182 278 158 260 q 108 347 138 300 q 78 458 78 394 q 342 667 78 667 l 599 667 l 599 632 l 508 618 l 508 611 q 578 549 551 589 q 606 458 606 510 q 342 250 606 250 q 196 201 196 250 q 342 153 196 153 q 562 99 476 153 q 647 -62 647 46 q 565 -226 647 -175 q 342 -278 482 -278 m 342 299 q 442 337 404 299 q 481 458 481 375 q 442 578 481 538 q 342 618 404 618 q 241 580 279 618 q 203 458 203 542 q 241 337 203 375 q 342 299 279 299 m 342 -222 q 474 -183 425 -222 q 522 -62 522 -143 q 356 97 522 76 l 279 104 q 192 42 222 82 q 161 -62 161 1 q 210 -183 161 -143 q 342 -222 258 -222 m 342 738 q 161 863 217 738 l 189 883 q 342 821 239 821 q 494 883 444 821 l 522 863 q 342 738 467 738 z "},"h":{"ha":735,"x_min":-25,"x_max":642,"o":"m 100 750 q 81 855 100 821 q 3 889 61 889 l -25 889 l -25 917 l 100 917 q 177 903 151 917 q 214 856 203 890 q 225 750 225 821 l 225 597 q 301 647 254 626 q 406 667 347 667 q 576 611 510 667 q 642 417 642 556 l 642 0 l 517 0 l 517 417 q 473 559 517 514 q 364 604 429 604 q 225 531 290 604 l 225 0 l 100 0 l 100 750 z "},"i":{"ha":342,"x_min":-4,"x_max":246,"o":"m 174 736 q 119 763 142 736 q 96 825 96 789 q 113 871 96 854 q 160 888 131 888 q 215 861 192 888 q 238 799 238 835 q 220 753 238 769 q 174 736 203 736 m 121 486 q 101 591 121 557 q 24 625 82 625 l -4 625 l -4 653 l 121 653 q 198 640 172 653 q 235 592 224 626 q 246 486 246 557 l 246 0 l 121 0 l 121 486 z "},"ı":{"ha":342,"x_min":-4,"x_max":246,"o":"m 121 486 q 101 591 121 557 q 24 625 82 625 l -4 625 l -4 653 l 121 653 q 198 640 172 653 q 235 592 224 626 q 246 486 246 557 l 246 0 l 121 0 l 121 486 z "},"í":{"ha":342,"x_min":-4,"x_max":319,"o":"m 121 486 q 101 591 121 557 q 24 625 82 625 l -4 625 l -4 653 l 121 653 q 198 640 172 653 q 235 592 224 626 q 246 486 246 557 l 246 0 l 121 0 l 121 486 m 132 715 l 188 896 l 319 896 l 188 715 l 132 715 z "},"î":{"ha":342,"x_min":-4,"x_max":510,"o":"m 121 486 q 101 591 121 557 q 24 625 82 625 l -4 625 l -4 653 l 121 653 q 198 640 172 653 q 235 592 224 626 q 246 486 246 557 l 246 0 l 121 0 l 121 486 m 135 736 l 246 896 l 399 896 l 510 736 l 440 736 l 322 847 l 204 736 l 135 736 z "},"ï":{"ha":342,"x_min":-6,"x_max":350,"o":"m 72 750 q 17 776 40 750 q -6 839 -6 803 q 12 885 -6 868 q 58 901 29 901 q 113 875 90 901 q 136 813 136 849 q 119 767 136 783 q 72 750 101 750 m 286 750 q 231 776 254 750 q 208 839 208 803 q 226 885 208 868 q 272 901 243 901 q 327 875 304 901 q 350 813 350 849 q 333 767 350 783 q 286 750 315 750 m 121 486 q 101 591 121 557 q 24 625 82 625 l -4 625 l -4 653 l 121 653 q 198 640 172 653 q 235 592 224 626 q 246 486 246 557 l 246 0 l 121 0 l 121 486 z "},"ị":{"ha":342,"x_min":-4,"x_max":246,"o":"m 174 736 q 119 763 142 736 q 96 825 96 789 q 113 871 96 854 q 160 888 131 888 q 215 861 192 888 q 238 799 238 835 q 220 753 238 769 q 174 736 203 736 m 121 486 q 101 591 121 557 q 24 625 82 625 l -4 625 l -4 653 l 121 653 q 198 640 172 653 q 235 592 224 626 q 246 486 246 557 l 246 0 l 121 0 l 121 486 m 171 -218 q 127 -199 146 -218 q 108 -154 108 -181 q 127 -111 108 -129 q 171 -93 146 -93 q 215 -111 197 -93 q 232 -154 232 -129 q 214 -199 232 -181 q 171 -218 196 -218 z "},"ì":{"ha":342,"x_min":-4,"x_max":246,"o":"m 121 486 q 101 591 121 557 q 24 625 82 625 l -4 625 l -4 653 l 121 653 q 198 640 172 653 q 235 592 224 626 q 246 486 246 557 l 246 0 l 121 0 l 121 486 m 157 715 l 25 896 l 157 896 l 213 715 l 157 715 z "},"ỉ":{"ha":342,"x_min":-4,"x_max":292,"o":"m 121 486 q 101 591 121 557 q 24 625 82 625 l -4 625 l -4 653 l 121 653 q 198 640 172 653 q 235 592 224 626 q 246 486 246 557 l 246 0 l 121 0 l 121 486 m 172 724 q 181 772 174 751 q 203 815 189 792 q 215 840 210 828 q 221 863 221 851 q 209 893 221 882 q 175 904 197 904 q 131 889 147 904 q 108 835 115 874 l 50 836 q 84 924 50 892 q 175 956 118 956 q 256 935 221 956 q 292 876 292 915 q 283 844 292 858 q 258 810 275 829 q 228 769 239 788 q 215 724 217 750 l 172 724 z "},"ĩ":{"ha":342,"x_min":-4,"x_max":326,"o":"m 121 486 q 101 591 121 557 q 24 625 82 625 l -4 625 l -4 653 l 121 653 q 198 640 172 653 q 235 592 224 626 q 246 486 246 557 l 246 0 l 121 0 l 121 486 m 14 772 q 34 874 14 844 q 97 904 54 904 q 135 897 118 904 q 174 875 153 889 q 192 865 178 872 q 218 853 206 857 q 243 849 231 849 q 272 868 258 849 q 285 904 285 888 l 326 904 q 306 802 326 832 q 243 772 286 772 q 206 779 224 772 q 168 800 189 786 q 130 821 144 814 q 97 828 115 828 q 69 808 82 828 q 56 772 56 789 l 14 772 z "},"j":{"ha":342,"x_min":-11,"x_max":246,"o":"m 174 736 q 119 763 142 736 q 96 825 96 789 q 113 871 96 854 q 160 888 131 888 q 215 861 192 888 q 238 799 238 835 q 220 753 238 769 q 174 736 203 736 m -11 -236 q 88 -165 56 -236 q 121 35 121 -94 l 121 486 q 101 591 121 557 q 24 625 82 625 l -4 625 l -4 653 l 121 653 q 198 640 172 653 q 235 592 224 626 q 246 486 246 557 l 246 35 q 223 -138 246 -74 q 144 -233 200 -203 q -11 -264 89 -264 l -11 -236 z "},"k":{"ha":674,"x_min":-25,"x_max":663,"o":"m 593 -14 q 392 97 475 -14 l 225 319 l 225 0 l 100 0 l 100 750 q 81 855 100 821 q 3 889 61 889 l -25 889 l -25 917 l 100 917 q 177 903 151 917 q 214 856 203 890 q 225 750 225 821 l 225 340 l 399 563 q 475 630 435 607 q 579 653 515 653 l 621 653 l 621 618 q 549 603 583 618 q 489 556 514 588 l 336 361 l 510 139 q 585 60 550 86 q 663 26 621 33 l 663 0 q 593 -14 632 -14 z "},"l":{"ha":336,"x_min":-19,"x_max":231,"o":"m 106 750 q 86 855 106 821 q 8 889 67 889 l -19 889 l -19 917 l 106 917 q 183 903 157 917 q 219 856 208 890 q 231 750 231 821 l 231 0 l 106 0 l 106 750 z "},"m":{"ha":1090,"x_min":-4,"x_max":996,"o":"m 121 486 q 101 591 121 557 q 24 625 82 625 l -4 625 l -4 653 l 121 653 q 199 639 172 653 q 239 597 226 625 l 246 597 q 322 647 275 626 q 426 667 368 667 q 526 645 485 667 q 593 569 568 624 q 685 641 629 615 q 801 667 742 667 q 943 611 890 667 q 996 417 996 556 l 996 0 l 871 0 l 871 417 q 843 560 871 517 q 760 604 815 604 q 678 576 721 604 q 614 514 635 547 q 621 417 621 493 l 621 0 l 496 0 l 496 417 q 468 560 496 517 q 385 604 440 604 q 246 531 311 604 l 246 0 l 121 0 l 121 486 z "},"n":{"ha":756,"x_min":-4,"x_max":663,"o":"m 121 486 q 101 591 121 557 q 24 625 82 625 l -4 625 l -4 653 l 121 653 q 199 639 172 653 q 239 597 226 625 l 246 597 q 322 647 275 626 q 426 667 368 667 q 597 611 531 667 q 663 417 663 556 l 663 0 l 538 0 l 538 417 q 494 559 538 514 q 385 604 450 604 q 246 531 311 604 l 246 0 l 121 0 l 121 486 z "},"ñ":{"ha":756,"x_min":-4,"x_max":663,"o":"m 121 486 q 101 591 121 557 q 24 625 82 625 l -4 625 l -4 653 l 121 653 q 199 639 172 653 q 239 597 226 625 l 246 597 q 322 647 275 626 q 426 667 368 667 q 597 611 531 667 q 663 417 663 556 l 663 0 l 538 0 l 538 417 q 494 559 538 514 q 385 604 450 604 q 246 531 311 604 l 246 0 l 121 0 l 121 486 m 235 757 q 255 859 235 829 q 318 889 275 889 q 356 881 339 889 q 394 860 374 874 q 413 849 399 857 q 439 838 426 842 q 464 833 451 833 q 492 853 479 833 q 506 889 506 872 l 547 889 q 527 787 547 817 q 464 757 507 757 q 427 764 444 757 q 389 785 410 771 q 351 806 365 799 q 318 813 336 813 q 290 793 303 813 q 276 757 276 774 l 235 757 z "},"o":{"ha":736,"x_min":63,"x_max":674,"o":"m 368 -14 q 204 31 274 -14 q 99 154 135 76 q 63 326 63 232 q 99 499 63 421 q 204 622 135 576 q 368 667 274 667 q 532 622 463 667 q 638 499 601 576 q 674 326 674 421 q 638 154 674 232 q 532 31 601 76 q 368 -14 463 -14 m 368 42 q 459 79 419 42 q 520 182 499 117 q 542 326 542 247 q 520 471 542 406 q 459 574 499 536 q 368 611 419 611 q 277 574 317 611 q 216 471 238 536 q 194 326 194 406 q 216 182 194 247 q 277 79 238 117 q 368 42 317 42 z "},"ó":{"ha":736,"x_min":63,"x_max":674,"o":"m 368 -14 q 204 31 274 -14 q 99 154 135 76 q 63 326 63 232 q 99 499 63 421 q 204 622 135 576 q 368 667 274 667 q 532 622 463 667 q 638 499 601 576 q 674 326 674 421 q 638 154 674 232 q 532 31 601 76 q 368 -14 463 -14 m 368 42 q 459 79 419 42 q 520 182 499 117 q 542 326 542 247 q 520 471 542 406 q 459 574 499 536 q 368 611 419 611 q 277 574 317 611 q 216 471 238 536 q 194 326 194 406 q 216 182 194 247 q 277 79 238 117 q 368 42 317 42 m 329 715 l 385 896 l 517 896 l 385 715 l 329 715 z "},"ô":{"ha":736,"x_min":63,"x_max":674,"o":"m 368 -14 q 204 31 274 -14 q 99 154 135 76 q 63 326 63 232 q 99 499 63 421 q 204 622 135 576 q 368 667 274 667 q 532 622 463 667 q 638 499 601 576 q 674 326 674 421 q 638 154 674 232 q 532 31 601 76 q 368 -14 463 -14 m 368 42 q 459 79 419 42 q 520 182 499 117 q 542 326 542 247 q 520 471 542 406 q 459 574 499 536 q 368 611 419 611 q 277 574 317 611 q 216 471 238 536 q 194 326 194 406 q 216 182 194 247 q 277 79 238 117 q 368 42 317 42 m 181 722 l 292 882 l 444 882 l 556 722 l 486 722 l 368 833 l 250 722 l 181 722 z "},"ố":{"ha":736,"x_min":63,"x_max":729,"o":"m 368 -14 q 204 31 274 -14 q 99 154 135 76 q 63 326 63 232 q 99 499 63 421 q 204 622 135 576 q 368 667 274 667 q 532 622 463 667 q 638 499 601 576 q 674 326 674 421 q 638 154 674 232 q 532 31 601 76 q 368 -14 463 -14 m 368 42 q 459 79 419 42 q 520 182 499 117 q 542 326 542 247 q 520 471 542 406 q 459 574 499 536 q 368 611 419 611 q 277 574 317 611 q 216 471 238 536 q 194 326 194 406 q 216 182 194 247 q 277 79 238 117 q 368 42 317 42 m 181 722 l 292 882 l 444 882 l 556 722 l 486 722 l 368 833 l 250 722 l 181 722 m 542 801 l 597 982 l 729 982 l 597 801 l 542 801 z "},"ộ":{"ha":736,"x_min":63,"x_max":674,"o":"m 368 -14 q 204 31 274 -14 q 99 154 135 76 q 63 326 63 232 q 99 499 63 421 q 204 622 135 576 q 368 667 274 667 q 532 622 463 667 q 638 499 601 576 q 674 326 674 421 q 638 154 674 232 q 532 31 601 76 q 368 -14 463 -14 m 368 42 q 459 79 419 42 q 520 182 499 117 q 542 326 542 247 q 520 471 542 406 q 459 574 499 536 q 368 611 419 611 q 277 574 317 611 q 216 471 238 536 q 194 326 194 406 q 216 182 194 247 q 277 79 238 117 q 368 42 317 42 m 368 -218 q 324 -199 343 -218 q 306 -154 306 -181 q 324 -111 306 -129 q 368 -93 343 -93 q 412 -111 394 -93 q 429 -154 429 -129 q 411 -199 429 -181 q 368 -218 393 -218 m 181 722 l 292 882 l 444 882 l 556 722 l 486 722 l 368 833 l 250 722 l 181 722 z "},"ồ":{"ha":736,"x_min":63,"x_max":674,"o":"m 368 -14 q 204 31 274 -14 q 99 154 135 76 q 63 326 63 232 q 99 499 63 421 q 204 622 135 576 q 368 667 274 667 q 532 622 463 667 q 638 499 601 576 q 674 326 674 421 q 638 154 674 232 q 532 31 601 76 q 368 -14 463 -14 m 368 42 q 459 79 419 42 q 520 182 499 117 q 542 326 542 247 q 520 471 542 406 q 459 574 499 536 q 368 611 419 611 q 277 574 317 611 q 216 471 238 536 q 194 326 194 406 q 216 182 194 247 q 277 79 238 117 q 368 42 317 42 m 181 722 l 292 882 l 444 882 l 556 722 l 486 722 l 368 833 l 250 722 l 181 722 m 546 838 l 414 1018 l 546 1018 l 601 838 l 546 838 z "},"ổ":{"ha":736,"x_min":63,"x_max":674,"o":"m 368 -14 q 204 31 274 -14 q 99 154 135 76 q 63 326 63 232 q 99 499 63 421 q 204 622 135 576 q 368 667 274 667 q 532 622 463 667 q 638 499 601 576 q 674 326 674 421 q 638 154 674 232 q 532 31 601 76 q 368 -14 463 -14 m 368 42 q 459 79 419 42 q 520 182 499 117 q 542 326 542 247 q 520 471 542 406 q 459 574 499 536 q 368 611 419 611 q 277 574 317 611 q 216 471 238 536 q 194 326 194 406 q 216 182 194 247 q 277 79 238 117 q 368 42 317 42 m 181 722 l 292 882 l 444 882 l 556 722 l 486 722 l 368 833 l 250 722 l 181 722 m 529 844 q 538 892 531 872 q 560 936 546 913 q 572 960 567 949 q 578 983 578 972 q 566 1014 578 1003 q 532 1025 554 1025 q 488 1010 504 1025 q 465 956 472 994 l 407 957 q 441 1044 407 1013 q 532 1076 475 1076 q 613 1056 578 1076 q 649 997 649 1036 q 640 965 649 979 q 615 931 632 950 q 585 890 596 908 q 572 844 574 871 l 529 844 z "},"ỗ":{"ha":736,"x_min":63,"x_max":674,"o":"m 368 -14 q 204 31 274 -14 q 99 154 135 76 q 63 326 63 232 q 99 499 63 421 q 204 622 135 576 q 368 667 274 667 q 532 622 463 667 q 638 499 601 576 q 674 326 674 421 q 638 154 674 232 q 532 31 601 76 q 368 -14 463 -14 m 368 42 q 459 79 419 42 q 520 182 499 117 q 542 326 542 247 q 520 471 542 406 q 459 574 499 536 q 368 611 419 611 q 277 574 317 611 q 216 471 238 536 q 194 326 194 406 q 216 182 194 247 q 277 79 238 117 q 368 42 317 42 m 181 722 l 292 882 l 444 882 l 556 722 l 486 722 l 368 833 l 250 722 l 181 722 m 211 928 q 231 1030 211 1000 q 294 1060 251 1060 q 333 1052 315 1060 q 371 1031 350 1044 q 389 1020 375 1028 q 415 1008 403 1013 q 440 1004 428 1004 q 469 1024 456 1004 q 482 1060 482 1043 l 524 1060 q 503 958 524 988 q 440 928 483 928 q 403 935 421 928 q 365 956 386 942 q 327 976 342 969 q 294 983 313 983 q 266 964 279 983 q 253 928 253 944 l 211 928 z "},"ö":{"ha":736,"x_min":63,"x_max":688,"o":"m 368 -14 q 204 31 274 -14 q 99 154 135 76 q 63 326 63 232 q 99 499 63 421 q 204 622 135 576 q 368 667 274 667 q 532 622 463 667 q 638 499 601 576 q 674 326 674 421 q 638 154 674 232 q 532 31 601 76 q 368 -14 463 -14 m 368 42 q 459 79 419 42 q 520 182 499 117 q 542 326 542 247 q 520 471 542 406 q 459 574 499 536 q 368 611 419 611 q 277 574 317 611 q 216 471 238 536 q 194 326 194 406 q 216 182 194 247 q 277 79 238 117 q 368 42 317 42 m 389 743 q 344 761 363 743 q 326 806 326 779 q 344 850 326 832 q 389 868 363 868 q 433 850 415 868 q 451 806 451 832 q 433 761 451 779 q 389 743 415 743 m 625 743 q 581 761 599 743 q 563 806 563 779 q 581 850 563 832 q 625 868 599 868 q 669 850 651 868 q 688 806 688 832 q 669 761 688 779 q 625 743 651 743 z "},"ọ":{"ha":736,"x_min":63,"x_max":674,"o":"m 368 -14 q 204 31 274 -14 q 99 154 135 76 q 63 326 63 232 q 99 499 63 421 q 204 622 135 576 q 368 667 274 667 q 532 622 463 667 q 638 499 601 576 q 674 326 674 421 q 638 154 674 232 q 532 31 601 76 q 368 -14 463 -14 m 368 42 q 459 79 419 42 q 520 182 499 117 q 542 326 542 247 q 520 471 542 406 q 459 574 499 536 q 368 611 419 611 q 277 574 317 611 q 216 471 238 536 q 194 326 194 406 q 216 182 194 247 q 277 79 238 117 q 368 42 317 42 m 368 -218 q 324 -199 343 -218 q 306 -154 306 -181 q 324 -111 306 -129 q 368 -93 343 -93 q 412 -111 394 -93 q 429 -154 429 -129 q 411 -199 429 -181 q 368 -218 393 -218 z "},"ò":{"ha":736,"x_min":63,"x_max":674,"o":"m 368 -14 q 204 31 274 -14 q 99 154 135 76 q 63 326 63 232 q 99 499 63 421 q 204 622 135 576 q 368 667 274 667 q 532 622 463 667 q 638 499 601 576 q 674 326 674 421 q 638 154 674 232 q 532 31 601 76 q 368 -14 463 -14 m 368 42 q 459 79 419 42 q 520 182 499 117 q 542 326 542 247 q 520 471 542 406 q 459 574 499 536 q 368 611 419 611 q 277 574 317 611 q 216 471 238 536 q 194 326 194 406 q 216 182 194 247 q 277 79 238 117 q 368 42 317 42 m 354 715 l 222 896 l 354 896 l 410 715 l 354 715 z "},"ỏ":{"ha":736,"x_min":63,"x_max":674,"o":"m 368 -14 q 204 31 274 -14 q 99 154 135 76 q 63 326 63 232 q 99 499 63 421 q 204 622 135 576 q 368 667 274 667 q 532 622 463 667 q 638 499 601 576 q 674 326 674 421 q 638 154 674 232 q 532 31 601 76 q 368 -14 463 -14 m 368 42 q 459 79 419 42 q 520 182 499 117 q 542 326 542 247 q 520 471 542 406 q 459 574 499 536 q 368 611 419 611 q 277 574 317 611 q 216 471 238 536 q 194 326 194 406 q 216 182 194 247 q 277 79 238 117 q 368 42 317 42 m 369 724 q 378 772 371 751 q 400 815 386 792 q 413 840 407 828 q 418 863 418 851 q 406 893 418 882 q 372 904 394 904 q 328 889 344 904 q 306 835 313 874 l 247 836 q 281 924 247 892 q 372 956 315 956 q 453 935 418 956 q 489 876 489 915 q 481 844 489 858 q 456 810 472 829 q 425 769 436 788 q 413 724 414 750 l 369 724 z "},"ơ":{"ha":736,"x_min":63,"x_max":674,"o":"m 528 624 q 635 502 597 581 q 674 326 674 424 q 638 154 674 232 q 532 31 601 76 q 368 -14 463 -14 q 204 31 274 -14 q 99 154 135 76 q 63 326 63 232 q 99 499 63 421 q 204 622 135 576 q 368 667 274 667 q 463 653 421 667 q 558 699 526 657 q 590 797 590 742 l 669 797 q 528 624 669 653 m 368 42 q 459 79 419 42 q 520 182 499 117 q 542 326 542 247 q 520 471 542 406 q 459 574 499 536 q 368 611 419 611 q 277 574 317 611 q 216 471 238 536 q 194 326 194 406 q 216 182 194 247 q 277 79 238 117 q 368 42 317 42 z "},"ớ":{"ha":736,"x_min":63,"x_max":674,"o":"m 528 624 q 635 502 597 581 q 674 326 674 424 q 638 154 674 232 q 532 31 601 76 q 368 -14 463 -14 q 204 31 274 -14 q 99 154 135 76 q 63 326 63 232 q 99 499 63 421 q 204 622 135 576 q 368 667 274 667 q 463 653 421 667 q 558 699 526 657 q 590 797 590 742 l 669 797 q 528 624 669 653 m 368 42 q 459 79 419 42 q 520 182 499 117 q 542 326 542 247 q 520 471 542 406 q 459 574 499 536 q 368 611 419 611 q 277 574 317 611 q 216 471 238 536 q 194 326 194 406 q 216 182 194 247 q 277 79 238 117 q 368 42 317 42 m 329 715 l 385 896 l 517 896 l 385 715 l 329 715 z "},"ợ":{"ha":736,"x_min":63,"x_max":674,"o":"m 528 624 q 635 502 597 581 q 674 326 674 424 q 638 154 674 232 q 532 31 601 76 q 368 -14 463 -14 q 204 31 274 -14 q 99 154 135 76 q 63 326 63 232 q 99 499 63 421 q 204 622 135 576 q 368 667 274 667 q 463 653 421 667 q 558 699 526 657 q 590 797 590 742 l 669 797 q 528 624 669 653 m 368 42 q 459 79 419 42 q 520 182 499 117 q 542 326 542 247 q 520 471 542 406 q 459 574 499 536 q 368 611 419 611 q 277 574 317 611 q 216 471 238 536 q 194 326 194 406 q 216 182 194 247 q 277 79 238 117 q 368 42 317 42 m 368 -218 q 324 -199 343 -218 q 306 -154 306 -181 q 324 -111 306 -129 q 368 -93 343 -93 q 412 -111 394 -93 q 429 -154 429 -129 q 411 -199 429 -181 q 368 -218 393 -218 z "},"ờ":{"ha":736,"x_min":63,"x_max":674,"o":"m 528 624 q 635 502 597 581 q 674 326 674 424 q 638 154 674 232 q 532 31 601 76 q 368 -14 463 -14 q 204 31 274 -14 q 99 154 135 76 q 63 326 63 232 q 99 499 63 421 q 204 622 135 576 q 368 667 274 667 q 463 653 421 667 q 558 699 526 657 q 590 797 590 742 l 669 797 q 528 624 669 653 m 368 42 q 459 79 419 42 q 520 182 499 117 q 542 326 542 247 q 520 471 542 406 q 459 574 499 536 q 368 611 419 611 q 277 574 317 611 q 216 471 238 536 q 194 326 194 406 q 216 182 194 247 q 277 79 238 117 q 368 42 317 42 m 354 715 l 222 896 l 354 896 l 410 715 l 354 715 z "},"ở":{"ha":736,"x_min":63,"x_max":674,"o":"m 528 624 q 635 502 597 581 q 674 326 674 424 q 638 154 674 232 q 532 31 601 76 q 368 -14 463 -14 q 204 31 274 -14 q 99 154 135 76 q 63 326 63 232 q 99 499 63 421 q 204 622 135 576 q 368 667 274 667 q 463 653 421 667 q 558 699 526 657 q 590 797 590 742 l 669 797 q 528 624 669 653 m 368 42 q 459 79 419 42 q 520 182 499 117 q 542 326 542 247 q 520 471 542 406 q 459 574 499 536 q 368 611 419 611 q 277 574 317 611 q 216 471 238 536 q 194 326 194 406 q 216 182 194 247 q 277 79 238 117 q 368 42 317 42 m 369 724 q 378 772 371 751 q 400 815 386 792 q 413 840 407 828 q 418 863 418 851 q 406 893 418 882 q 372 904 394 904 q 328 889 344 904 q 306 835 313 874 l 247 836 q 281 924 247 892 q 372 956 315 956 q 453 935 418 956 q 489 876 489 915 q 481 844 489 858 q 456 810 472 829 q 425 769 436 788 q 413 724 414 750 l 369 724 z "},"ỡ":{"ha":736,"x_min":63,"x_max":674,"o":"m 528 624 q 635 502 597 581 q 674 326 674 424 q 638 154 674 232 q 532 31 601 76 q 368 -14 463 -14 q 204 31 274 -14 q 99 154 135 76 q 63 326 63 232 q 99 499 63 421 q 204 622 135 576 q 368 667 274 667 q 463 653 421 667 q 558 699 526 657 q 590 797 590 742 l 669 797 q 528 624 669 653 m 368 42 q 459 79 419 42 q 520 182 499 117 q 542 326 542 247 q 520 471 542 406 q 459 574 499 536 q 368 611 419 611 q 277 574 317 611 q 216 471 238 536 q 194 326 194 406 q 216 182 194 247 q 277 79 238 117 q 368 42 317 42 m 211 772 q 231 874 211 844 q 294 904 251 904 q 333 897 315 904 q 371 875 350 889 q 389 865 375 872 q 415 853 403 857 q 440 849 428 849 q 469 868 456 849 q 482 904 482 888 l 524 904 q 503 802 524 832 q 440 772 483 772 q 403 779 421 772 q 365 800 386 786 q 327 821 342 814 q 294 828 313 828 q 266 808 279 828 q 253 772 253 789 l 211 772 z "},"ø":{"ha":736,"x_min":63,"x_max":674,"o":"m 368 -14 q 210 28 281 -14 l 192 0 l 90 0 l 146 81 q 63 326 63 176 q 99 499 63 421 q 204 622 135 576 q 368 667 274 667 q 525 625 457 667 l 544 653 l 646 653 l 589 571 q 651 462 629 525 q 674 326 674 399 q 638 154 674 232 q 532 31 601 76 q 368 -14 463 -14 m 476 554 q 368 611 431 611 q 277 574 317 611 q 216 471 238 536 q 194 326 194 406 q 217 182 194 244 l 476 554 m 368 42 q 459 79 419 42 q 520 182 499 117 q 542 326 542 247 q 519 471 542 408 l 260 99 q 368 42 304 42 z "},"õ":{"ha":736,"x_min":63,"x_max":674,"o":"m 368 -14 q 204 31 274 -14 q 99 154 135 76 q 63 326 63 232 q 99 499 63 421 q 204 622 135 576 q 368 667 274 667 q 532 622 463 667 q 638 499 601 576 q 674 326 674 421 q 638 154 674 232 q 532 31 601 76 q 368 -14 463 -14 m 368 42 q 459 79 419 42 q 520 182 499 117 q 542 326 542 247 q 520 471 542 406 q 459 574 499 536 q 368 611 419 611 q 277 574 317 611 q 216 471 238 536 q 194 326 194 406 q 216 182 194 247 q 277 79 238 117 q 368 42 317 42 m 213 744 q 233 847 213 817 q 296 876 253 876 q 334 869 317 876 q 372 847 351 861 q 390 837 376 844 q 417 825 404 829 q 442 821 429 821 q 470 840 457 821 q 483 876 483 860 l 525 876 q 505 774 525 804 q 442 744 485 744 q 405 751 422 744 q 367 772 388 758 q 328 793 343 786 q 296 800 314 800 q 267 781 281 800 q 254 744 254 761 l 213 744 z "},"œ":{"ha":1104,"x_min":63,"x_max":1042,"o":"m 368 -14 q 204 31 274 -14 q 99 154 135 76 q 63 326 63 232 q 99 499 63 421 q 204 622 135 576 q 368 667 274 667 q 578 585 503 667 q 764 667 649 667 q 973 588 904 667 q 1042 361 1042 510 l 1039 306 l 625 306 q 675 115 625 189 q 813 42 725 42 q 923 69 878 42 q 1007 153 968 97 l 1035 132 q 928 21 989 56 q 785 -14 867 -14 q 576 69 660 -14 q 368 -14 493 -14 m 368 42 q 457 75 419 42 q 521 174 494 108 q 493 326 493 236 q 521 479 493 417 q 459 575 499 539 q 368 611 419 611 q 277 574 317 611 q 216 471 238 536 q 194 326 194 406 q 216 182 194 247 q 277 79 238 117 q 368 42 317 42 m 917 361 q 880 542 917 479 q 771 604 843 604 q 696 572 729 604 q 644 485 663 540 q 625 361 625 429 l 917 361 z "},"p":{"ha":747,"x_min":-4,"x_max":683,"o":"m 121 486 q 101 591 121 557 q 24 625 82 625 l -4 625 l -4 653 l 121 653 q 201 638 174 653 q 239 590 228 624 l 246 590 q 317 644 271 622 q 433 667 363 667 q 618 570 553 667 q 683 326 683 474 q 616 82 683 178 q 419 -14 549 -14 q 326 -3 367 -14 q 246 28 286 8 l 246 -264 l 121 -264 l 121 486 m 378 42 q 509 119 467 42 q 551 326 551 197 q 511 533 551 454 q 392 611 471 611 q 246 528 299 611 l 246 83 q 318 53 288 64 q 378 42 349 42 z "},"þ":{"ha":726,"x_min":-18,"x_max":663,"o":"m 100 750 q 81 855 100 821 q 3 889 61 889 l -18 889 l -18 917 l 100 917 q 177 903 151 917 q 214 856 203 890 q 225 750 225 821 l 225 590 q 296 644 250 622 q 413 667 342 667 q 597 570 532 667 q 663 326 663 474 q 595 82 663 178 q 399 -14 528 -14 q 306 -3 346 -14 q 225 28 265 8 l 225 -264 l 100 -264 l 100 750 m 357 42 q 488 119 446 42 q 531 326 531 197 q 490 533 531 454 q 371 611 450 611 q 225 528 278 611 l 225 83 q 297 53 267 64 q 357 42 328 42 z "},"q":{"ha":728,"x_min":65,"x_max":628,"o":"m 503 28 q 422 -3 463 8 q 329 -14 382 -14 q 133 82 200 -14 q 65 326 65 178 q 130 571 65 475 q 315 667 194 667 q 432 644 386 667 q 503 590 478 622 l 510 590 l 558 653 l 628 653 l 628 -264 l 503 -264 l 503 28 m 371 42 q 431 53 400 42 q 503 83 461 64 l 503 528 q 442 589 474 567 q 357 611 410 611 q 238 533 278 611 q 197 326 197 454 q 240 119 197 197 q 371 42 282 42 z "},"r":{"ha":551,"x_min":0,"x_max":535,"o":"m 111 486 q 92 591 111 557 q 14 625 72 625 l 0 625 l 0 653 l 111 653 q 191 638 164 653 q 229 590 218 624 l 236 590 q 303 644 261 622 q 403 667 346 667 q 486 646 458 667 q 535 583 510 628 l 479 542 q 435 573 464 563 q 368 583 406 583 q 292 565 326 583 q 236 514 257 546 l 236 0 l 111 0 l 111 486 z "},"s":{"ha":619,"x_min":68,"x_max":561,"o":"m 318 -14 q 103 42 158 -14 q 74 95 79 65 q 68 188 68 125 l 96 188 q 156 80 108 118 q 290 42 204 42 q 405 68 367 42 q 443 139 443 94 q 413 208 443 179 q 318 264 383 238 l 235 299 q 110 376 151 332 q 68 486 68 421 q 132 619 68 571 q 297 667 196 667 q 506 611 450 667 q 535 558 529 588 q 540 465 540 529 l 513 465 q 454 573 501 535 q 325 611 407 611 q 223 584 260 611 q 186 514 186 557 q 297 396 186 442 l 381 361 q 518 278 475 322 q 561 167 561 235 q 493 34 561 82 q 318 -14 425 -14 z "},"š":{"ha":619,"x_min":68,"x_max":561,"o":"m 318 -14 q 103 42 158 -14 q 74 95 79 65 q 68 188 68 125 l 96 188 q 156 80 108 118 q 290 42 204 42 q 405 68 367 42 q 443 139 443 94 q 413 208 443 179 q 318 264 383 238 l 235 299 q 110 376 151 332 q 68 486 68 421 q 132 619 68 571 q 297 667 196 667 q 506 611 450 667 q 535 558 529 588 q 540 465 540 529 l 513 465 q 454 573 501 535 q 325 611 407 611 q 223 584 260 611 q 186 514 186 557 q 297 396 186 442 l 381 361 q 518 278 475 322 q 561 167 561 235 q 493 34 561 82 q 318 -14 425 -14 m 221 722 l 110 882 l 179 882 l 297 771 l 415 882 l 485 882 l 374 722 l 221 722 z "},"ş":{"ha":622,"x_min":69,"x_max":563,"o":"m 260 -187 l 329 -187 q 385 -143 385 -187 q 329 -97 385 -97 l 267 -97 l 267 -12 q 104 42 147 -4 q 75 95 81 65 q 69 188 69 125 l 97 188 q 158 80 110 118 q 292 42 206 42 q 406 68 368 42 q 444 139 444 94 q 415 208 444 179 q 319 264 385 238 l 236 299 q 111 376 153 332 q 69 486 69 421 q 133 619 69 571 q 299 667 197 667 q 507 611 451 667 q 536 558 531 588 q 542 465 542 529 l 514 465 q 456 573 503 535 q 326 611 408 611 q 224 584 261 611 q 188 514 188 557 q 299 396 188 442 l 382 361 q 519 278 476 322 q 563 167 563 235 q 498 35 563 82 q 329 -14 433 -11 l 329 -42 l 343 -42 q 423 -68 392 -42 q 454 -143 454 -94 q 423 -217 454 -190 q 343 -244 392 -244 l 260 -244 l 260 -187 z "},"ß":{"ha":769,"x_min":100,"x_max":732,"o":"m 531 -14 q 430 1 476 -14 q 357 42 383 15 q 328 91 333 65 q 322 153 322 117 l 350 153 q 399 76 356 110 q 503 42 443 42 q 584 69 554 42 q 614 139 614 96 q 581 220 614 188 q 482 293 549 253 q 402 347 432 324 q 351 406 372 371 q 329 486 329 440 q 351 572 329 540 q 415 640 372 603 q 470 697 451 671 q 489 764 489 724 q 458 847 489 818 q 364 875 426 875 q 259 835 293 875 q 225 694 225 794 l 225 0 l 100 0 l 100 694 q 172 880 100 829 q 371 931 244 931 q 546 893 485 931 q 607 792 607 856 q 585 706 607 738 q 521 638 564 675 q 466 581 485 607 q 447 514 447 554 q 480 433 447 465 q 579 360 513 400 q 659 306 629 329 q 710 247 689 282 q 732 167 732 213 q 678 31 732 75 q 531 -14 624 -14 z "},"t":{"ha":469,"x_min":29,"x_max":467,"o":"m 293 -14 q 171 31 215 -14 q 126 167 126 75 l 126 597 l 29 597 l 29 653 l 126 653 l 126 778 l 196 861 l 251 861 l 251 653 l 418 653 l 418 597 l 251 597 l 251 167 q 349 42 251 42 q 405 49 382 42 q 453 69 428 56 l 467 42 q 396 2 435 18 q 293 -14 357 -14 z "},"u":{"ha":743,"x_min":-10,"x_max":643,"o":"m 338 -14 q 167 42 233 -14 q 101 236 101 97 l 101 486 q 82 591 101 557 q 4 625 63 625 l -10 625 l -10 653 l 101 653 q 178 640 153 653 q 215 592 204 626 q 226 486 226 557 l 226 236 q 270 94 226 139 q 379 49 314 49 q 518 122 453 49 l 518 653 l 643 653 l 643 0 l 574 0 l 525 56 l 518 56 q 442 6 489 26 q 338 -14 396 -14 z "},"ú":{"ha":743,"x_min":-10,"x_max":643,"o":"m 338 -14 q 167 42 233 -14 q 101 236 101 97 l 101 486 q 82 591 101 557 q 4 625 63 625 l -10 625 l -10 653 l 101 653 q 178 640 153 653 q 215 592 204 626 q 226 486 226 557 l 226 236 q 270 94 226 139 q 379 49 314 49 q 518 122 453 49 l 518 653 l 643 653 l 643 0 l 574 0 l 525 56 l 518 56 q 442 6 489 26 q 338 -14 396 -14 m 333 715 l 389 896 l 521 896 l 389 715 l 333 715 z "},"û":{"ha":743,"x_min":-10,"x_max":685,"o":"m 338 -14 q 167 42 233 -14 q 101 236 101 97 l 101 486 q 82 591 101 557 q 4 625 63 625 l -10 625 l -10 653 l 101 653 q 178 640 153 653 q 215 592 204 626 q 226 486 226 557 l 226 236 q 270 94 226 139 q 379 49 314 49 q 518 122 453 49 l 518 653 l 643 653 l 643 0 l 574 0 l 525 56 l 518 56 q 442 6 489 26 q 338 -14 396 -14 m 310 736 l 421 896 l 574 896 l 685 736 l 615 736 l 497 847 l 379 736 l 310 736 z "},"ü":{"ha":743,"x_min":-10,"x_max":678,"o":"m 338 -14 q 167 42 233 -14 q 101 236 101 97 l 101 486 q 82 591 101 557 q 4 625 63 625 l -10 625 l -10 653 l 101 653 q 178 640 153 653 q 215 592 204 626 q 226 486 226 557 l 226 236 q 270 94 226 139 q 379 49 314 49 q 518 122 453 49 l 518 653 l 643 653 l 643 0 l 574 0 l 525 56 l 518 56 q 442 6 489 26 q 338 -14 396 -14 m 379 724 q 335 742 353 724 q 317 786 317 760 q 335 831 317 813 q 379 849 353 849 q 424 831 406 849 q 442 786 442 813 q 424 742 442 760 q 379 724 406 724 m 615 724 q 571 742 589 724 q 553 786 553 760 q 571 831 553 813 q 615 849 589 849 q 660 831 642 849 q 678 786 678 813 q 660 742 678 760 q 615 724 642 724 z "},"ụ":{"ha":743,"x_min":-10,"x_max":643,"o":"m 338 -14 q 167 42 233 -14 q 101 236 101 97 l 101 486 q 82 591 101 557 q 4 625 63 625 l -10 625 l -10 653 l 101 653 q 178 640 153 653 q 215 592 204 626 q 226 486 226 557 l 226 236 q 270 94 226 139 q 379 49 314 49 q 518 122 453 49 l 518 653 l 643 653 l 643 0 l 574 0 l 525 56 l 518 56 q 442 6 489 26 q 338 -14 396 -14 m 372 -218 q 328 -199 347 -218 q 310 -154 310 -181 q 328 -111 310 -129 q 372 -93 347 -93 q 416 -111 399 -93 q 433 -154 433 -129 q 415 -199 433 -181 q 372 -218 397 -218 z "},"ù":{"ha":743,"x_min":-10,"x_max":643,"o":"m 338 -14 q 167 42 233 -14 q 101 236 101 97 l 101 486 q 82 591 101 557 q 4 625 63 625 l -10 625 l -10 653 l 101 653 q 178 640 153 653 q 215 592 204 626 q 226 486 226 557 l 226 236 q 270 94 226 139 q 379 49 314 49 q 518 122 453 49 l 518 653 l 643 653 l 643 0 l 574 0 l 525 56 l 518 56 q 442 6 489 26 q 338 -14 396 -14 m 358 715 l 226 896 l 358 896 l 414 715 l 358 715 z "},"ủ":{"ha":743,"x_min":-10,"x_max":643,"o":"m 338 -14 q 167 42 233 -14 q 101 236 101 97 l 101 486 q 82 591 101 557 q 4 625 63 625 l -10 625 l -10 653 l 101 653 q 178 640 153 653 q 215 592 204 626 q 226 486 226 557 l 226 236 q 270 94 226 139 q 379 49 314 49 q 518 122 453 49 l 518 653 l 643 653 l 643 0 l 574 0 l 525 56 l 518 56 q 442 6 489 26 q 338 -14 396 -14 m 374 724 q 383 772 375 751 q 404 815 390 792 q 417 840 411 828 q 422 863 422 851 q 410 893 422 882 q 376 904 399 904 q 333 889 349 904 q 310 835 317 874 l 251 836 q 285 924 251 892 q 376 956 319 956 q 458 935 422 956 q 493 876 493 915 q 485 844 493 858 q 460 810 476 829 q 429 769 440 788 q 417 724 418 750 l 374 724 z "},"ư":{"ha":743,"x_min":-10,"x_max":832,"o":"m 832 797 q 643 618 832 629 l 643 0 l 574 0 l 525 56 l 518 56 q 442 6 489 26 q 338 -14 396 -14 q 167 42 233 -14 q 101 236 101 97 l 101 486 q 82 591 101 557 q 4 625 63 625 l -10 625 l -10 653 l 101 653 q 178 640 153 653 q 215 592 204 626 q 226 486 226 557 l 226 236 q 270 94 226 139 q 379 49 314 49 q 518 122 453 49 l 518 653 l 614 653 q 718 696 683 653 q 753 797 753 739 l 832 797 z "},"ứ":{"ha":743,"x_min":-10,"x_max":832,"o":"m 832 797 q 643 618 832 629 l 643 0 l 574 0 l 525 56 l 518 56 q 442 6 489 26 q 338 -14 396 -14 q 167 42 233 -14 q 101 236 101 97 l 101 486 q 82 591 101 557 q 4 625 63 625 l -10 625 l -10 653 l 101 653 q 178 640 153 653 q 215 592 204 626 q 226 486 226 557 l 226 236 q 270 94 226 139 q 379 49 314 49 q 518 122 453 49 l 518 653 l 614 653 q 718 696 683 653 q 753 797 753 739 l 832 797 m 333 715 l 389 896 l 521 896 l 389 715 l 333 715 z "},"ự":{"ha":743,"x_min":-10,"x_max":832,"o":"m 832 797 q 643 618 832 629 l 643 0 l 574 0 l 525 56 l 518 56 q 442 6 489 26 q 338 -14 396 -14 q 167 42 233 -14 q 101 236 101 97 l 101 486 q 82 591 101 557 q 4 625 63 625 l -10 625 l -10 653 l 101 653 q 178 640 153 653 q 215 592 204 626 q 226 486 226 557 l 226 236 q 270 94 226 139 q 379 49 314 49 q 518 122 453 49 l 518 653 l 614 653 q 718 696 683 653 q 753 797 753 739 l 832 797 m 372 -218 q 328 -199 347 -218 q 310 -154 310 -181 q 328 -111 310 -129 q 372 -93 347 -93 q 416 -111 399 -93 q 433 -154 433 -129 q 415 -199 433 -181 q 372 -218 397 -218 z "},"ừ":{"ha":743,"x_min":-10,"x_max":832,"o":"m 832 797 q 643 618 832 629 l 643 0 l 574 0 l 525 56 l 518 56 q 442 6 489 26 q 338 -14 396 -14 q 167 42 233 -14 q 101 236 101 97 l 101 486 q 82 591 101 557 q 4 625 63 625 l -10 625 l -10 653 l 101 653 q 178 640 153 653 q 215 592 204 626 q 226 486 226 557 l 226 236 q 270 94 226 139 q 379 49 314 49 q 518 122 453 49 l 518 653 l 614 653 q 718 696 683 653 q 753 797 753 739 l 832 797 m 358 715 l 226 896 l 358 896 l 414 715 l 358 715 z "},"ử":{"ha":743,"x_min":-10,"x_max":832,"o":"m 832 797 q 643 618 832 629 l 643 0 l 574 0 l 525 56 l 518 56 q 442 6 489 26 q 338 -14 396 -14 q 167 42 233 -14 q 101 236 101 97 l 101 486 q 82 591 101 557 q 4 625 63 625 l -10 625 l -10 653 l 101 653 q 178 640 153 653 q 215 592 204 626 q 226 486 226 557 l 226 236 q 270 94 226 139 q 379 49 314 49 q 518 122 453 49 l 518 653 l 614 653 q 718 696 683 653 q 753 797 753 739 l 832 797 m 374 724 q 383 772 375 751 q 404 815 390 792 q 417 840 411 828 q 422 863 422 851 q 410 893 422 882 q 376 904 399 904 q 333 889 349 904 q 310 835 317 874 l 251 836 q 285 924 251 892 q 376 956 319 956 q 458 935 422 956 q 493 876 493 915 q 485 844 493 858 q 460 810 476 829 q 429 769 440 788 q 417 724 418 750 l 374 724 z "},"ữ":{"ha":743,"x_min":-10,"x_max":832,"o":"m 832 797 q 643 618 832 629 l 643 0 l 574 0 l 525 56 l 518 56 q 442 6 489 26 q 338 -14 396 -14 q 167 42 233 -14 q 101 236 101 97 l 101 486 q 82 591 101 557 q 4 625 63 625 l -10 625 l -10 653 l 101 653 q 178 640 153 653 q 215 592 204 626 q 226 486 226 557 l 226 236 q 270 94 226 139 q 379 49 314 49 q 518 122 453 49 l 518 653 l 614 653 q 718 696 683 653 q 753 797 753 739 l 832 797 m 215 772 q 235 874 215 844 q 299 904 256 904 q 337 897 319 904 q 375 875 354 889 q 393 865 379 872 q 419 853 407 857 q 444 849 432 849 q 473 868 460 849 q 486 904 486 888 l 528 904 q 508 802 528 832 q 444 772 488 772 q 408 779 425 772 q 369 800 390 786 q 331 821 346 814 q 299 828 317 828 q 270 808 283 828 q 257 772 257 789 l 215 772 z "},"ũ":{"ha":743,"x_min":-10,"x_max":643,"o":"m 338 -14 q 167 42 233 -14 q 101 236 101 97 l 101 486 q 82 591 101 557 q 4 625 63 625 l -10 625 l -10 653 l 101 653 q 178 640 153 653 q 215 592 204 626 q 226 486 226 557 l 226 236 q 270 94 226 139 q 379 49 314 49 q 518 122 453 49 l 518 653 l 643 653 l 643 0 l 574 0 l 525 56 l 518 56 q 442 6 489 26 q 338 -14 396 -14 m 215 772 q 235 874 215 844 q 299 904 256 904 q 337 897 319 904 q 375 875 354 889 q 393 865 379 872 q 419 853 407 857 q 444 849 432 849 q 473 868 460 849 q 486 904 486 888 l 528 904 q 508 802 528 832 q 444 772 488 772 q 408 779 425 772 q 369 800 390 786 q 331 821 346 814 q 299 828 317 828 q 270 808 283 828 q 257 772 257 789 l 215 772 z "},"v":{"ha":690,"x_min":-7,"x_max":665,"o":"m 138 493 q 74 602 104 571 q -7 636 43 633 l -7 664 q 13 665 0 664 q 40 667 26 667 q 174 630 114 667 q 276 493 233 593 l 401 194 l 596 653 l 665 653 l 381 -14 l 353 -14 l 138 493 z "},"w":{"ha":1040,"x_min":-7,"x_max":1014,"o":"m 139 493 q 76 602 107 571 q -7 636 44 633 l -7 664 q 14 665 0 664 q 42 667 28 667 q 174 628 117 667 q 271 493 232 590 l 389 201 l 507 500 q 444 603 474 574 q 368 636 414 633 l 368 664 q 389 665 375 664 q 417 667 403 667 q 549 628 492 667 q 646 493 607 590 l 764 201 l 944 653 l 1014 653 l 743 -14 l 715 -14 l 542 417 l 368 -14 l 340 -14 l 139 493 z "},"x":{"ha":678,"x_min":11,"x_max":671,"o":"m 275 313 l 154 514 q 11 625 96 615 l 11 653 l 129 653 q 215 624 175 653 q 286 542 256 594 l 372 396 l 553 653 l 622 653 l 400 340 l 521 139 q 671 28 578 39 l 671 0 l 546 0 q 460 29 500 0 q 389 111 419 58 l 303 257 l 122 0 l 53 0 l 275 313 z "},"y":{"ha":714,"x_min":-14,"x_max":674,"o":"m 146 -236 q 258 -205 214 -236 q 333 -90 301 -174 l 361 -14 l 139 528 q -14 639 100 628 l -14 667 l 104 667 q 271 556 225 667 l 429 171 l 604 653 l 674 653 l 403 -90 q 314 -239 363 -200 q 188 -278 265 -278 l 146 -278 l 146 -236 z "},"ý":{"ha":714,"x_min":-14,"x_max":674,"o":"m 146 -236 q 258 -205 214 -236 q 333 -90 301 -174 l 361 -14 l 139 528 q -14 639 100 628 l -14 667 l 104 667 q 271 556 225 667 l 429 171 l 604 653 l 674 653 l 403 -90 q 314 -239 363 -200 q 188 -278 265 -278 l 146 -278 l 146 -236 m 318 715 l 374 896 l 506 896 l 374 715 l 318 715 z "},"ÿ":{"ha":714,"x_min":-14,"x_max":722,"o":"m 146 -236 q 258 -205 214 -236 q 333 -90 301 -174 l 361 -14 l 139 528 q -14 639 100 628 l -14 667 l 104 667 q 271 556 225 667 l 429 171 l 604 653 l 674 653 l 403 -90 q 314 -239 363 -200 q 188 -278 265 -278 l 146 -278 l 146 -236 m 424 724 q 379 742 397 724 q 361 786 361 760 q 379 831 361 813 q 424 849 397 849 q 468 831 450 849 q 486 786 486 813 q 468 742 486 760 q 424 724 450 724 m 660 724 q 615 742 633 724 q 597 786 597 760 q 615 831 597 813 q 660 849 633 849 q 704 831 686 849 q 722 786 722 813 q 704 742 722 760 q 660 724 686 724 z "},"ỵ":{"ha":714,"x_min":-14,"x_max":674,"o":"m 146 -236 q 258 -205 214 -236 q 333 -90 301 -174 l 361 -14 l 139 528 q -14 639 100 628 l -14 667 l 104 667 q 271 556 225 667 l 429 171 l 604 653 l 674 653 l 403 -90 q 314 -239 363 -200 q 188 -278 265 -278 l 146 -278 l 146 -236 m 501 -218 q 458 -199 476 -218 q 439 -154 439 -181 q 458 -111 439 -129 q 501 -93 476 -93 q 545 -111 528 -93 q 563 -154 563 -129 q 544 -199 563 -181 q 501 -218 526 -218 z "},"ỳ":{"ha":714,"x_min":-14,"x_max":674,"o":"m 146 -236 q 258 -205 214 -236 q 333 -90 301 -174 l 361 -14 l 139 528 q -14 639 100 628 l -14 667 l 104 667 q 271 556 225 667 l 429 171 l 604 653 l 674 653 l 403 -90 q 314 -239 363 -200 q 188 -278 265 -278 l 146 -278 l 146 -236 m 343 715 l 211 896 l 343 896 l 399 715 l 343 715 z "},"ỷ":{"ha":714,"x_min":-14,"x_max":674,"o":"m 146 -236 q 258 -205 214 -236 q 333 -90 301 -174 l 361 -14 l 139 528 q -14 639 100 628 l -14 667 l 104 667 q 271 556 225 667 l 429 171 l 604 653 l 674 653 l 403 -90 q 314 -239 363 -200 q 188 -278 265 -278 l 146 -278 l 146 -236 m 358 724 q 367 772 360 751 q 389 815 375 792 q 401 840 396 828 q 407 863 407 851 q 395 893 407 882 q 361 904 383 904 q 317 889 333 904 q 294 835 301 874 l 236 836 q 270 924 236 892 q 361 956 304 956 q 442 935 407 956 q 478 876 478 915 q 469 844 478 858 q 444 810 461 829 q 414 769 425 788 q 401 724 403 750 l 358 724 z "},"ỹ":{"ha":714,"x_min":-14,"x_max":674,"o":"m 146 -236 q 258 -205 214 -236 q 333 -90 301 -174 l 361 -14 l 139 528 q -14 639 100 628 l -14 667 l 104 667 q 271 556 225 667 l 429 171 l 604 653 l 674 653 l 403 -90 q 314 -239 363 -200 q 188 -278 265 -278 l 146 -278 l 146 -236 m 200 772 q 220 874 200 844 q 283 904 240 904 q 322 897 304 904 q 360 875 339 889 q 378 865 364 872 q 404 853 392 857 q 429 849 417 849 q 458 868 444 849 q 471 904 471 888 l 513 904 q 492 802 513 832 q 429 772 472 772 q 392 779 410 772 q 354 800 375 786 q 316 821 331 814 q 283 828 301 828 q 255 808 268 828 q 242 772 242 789 l 200 772 z "},"z":{"ha":647,"x_min":61,"x_max":603,"o":"m 61 26 l 422 597 l 263 597 q 133 565 176 597 q 89 472 89 532 l 61 472 l 61 542 q 179 653 61 653 l 603 653 l 228 56 l 603 56 l 603 0 l 61 0 l 61 26 z "},"ž":{"ha":647,"x_min":61,"x_max":603,"o":"m 61 26 l 422 597 l 263 597 q 133 565 176 597 q 89 472 89 532 l 61 472 l 61 542 q 179 653 61 653 l 603 653 l 228 56 l 603 56 l 603 0 l 61 0 l 61 26 m 261 722 l 150 882 l 219 882 l 338 771 l 456 882 l 525 882 l 414 722 l 261 722 z "},"ª":{"ha":446,"x_min":71,"x_max":357,"o":"m 181 550 q 104 571 138 550 q 71 647 71 592 q 125 733 71 706 q 263 760 179 760 l 285 760 q 265 860 285 833 q 207 886 244 886 q 153 872 172 886 q 125 824 133 858 l 90 824 q 93 863 90 850 q 110 890 96 876 q 221 917 132 917 q 319 884 282 917 q 357 760 357 851 l 357 557 l 315 557 l 289 592 l 285 592 q 246 562 272 574 q 181 550 219 550 m 207 581 q 285 629 251 581 l 285 729 l 263 729 q 175 706 207 729 q 143 647 143 683 q 207 581 143 581 z "},"º":{"ha":465,"x_min":72,"x_max":393,"o":"m 232 510 q 112 569 151 510 q 72 733 72 629 q 112 898 72 839 q 232 957 151 957 q 353 897 313 957 q 393 733 393 838 q 353 569 393 629 q 232 510 313 510 m 232 540 q 299 587 276 540 q 321 733 321 633 q 232 926 321 926 q 144 733 144 926 q 232 540 144 540 z "},"А":{"ha":882,"x_min":31,"x_max":919,"o":"m 864 -7 q 732 30 797 -7 q 628 174 667 67 l 593 264 l 204 264 l 93 0 l 31 0 l 419 917 l 461 917 l 767 174 q 832 63 801 93 q 919 28 863 33 l 919 0 q 864 -7 894 -7 m 225 319 l 565 319 l 399 722 l 225 319 z "},"Б":{"ha":844,"x_min":22,"x_max":793,"o":"m 147 750 q 128 855 147 821 q 50 889 108 889 l 22 889 l 22 917 l 607 917 q 725 806 725 917 l 725 701 l 697 701 q 524 861 697 861 l 272 861 l 272 528 l 425 528 q 685 471 578 528 q 793 264 793 414 q 685 57 793 114 q 425 0 578 0 l 147 0 l 147 750 m 404 49 q 588 103 522 49 q 654 264 654 157 q 588 425 654 371 q 404 479 522 479 q 272 460 339 479 l 272 68 q 404 49 339 49 z "},"В":{"ha":864,"x_min":22,"x_max":807,"o":"m 147 750 q 128 855 147 821 q 50 889 108 889 l 22 889 l 22 917 l 383 917 q 647 867 535 917 q 758 674 758 817 q 714 556 758 608 q 578 472 669 503 q 756 397 706 451 q 807 250 807 342 q 697 55 807 110 q 425 0 586 0 l 147 0 l 147 750 m 404 493 q 512 515 461 493 q 594 578 563 536 q 626 681 626 621 q 589 785 626 743 q 494 848 551 828 q 376 868 436 868 q 272 854 328 868 l 272 493 l 404 493 m 404 49 q 599 99 531 49 q 668 243 668 149 q 601 388 668 338 q 404 438 533 438 l 272 438 l 272 68 q 404 49 339 49 z "},"Г":{"ha":746,"x_min":22,"x_max":717,"o":"m 147 750 q 128 855 147 821 q 50 889 108 889 l 22 889 l 22 917 l 599 917 q 717 806 717 917 l 717 701 l 689 701 q 515 861 689 861 l 272 861 l 272 0 l 147 0 l 147 750 z "},"Ѓ":{"ha":746,"x_min":22,"x_max":717,"o":"m 328 972 l 425 1132 l 543 1132 l 397 972 l 328 972 m 147 750 q 128 855 147 821 q 50 889 108 889 l 22 889 l 22 917 l 599 917 q 717 806 717 917 l 717 701 l 689 701 q 515 861 689 861 l 272 861 l 272 0 l 147 0 l 147 750 z "},"Ґ":{"ha":743,"x_min":22,"x_max":717,"o":"m 147 750 q 128 855 147 821 q 50 889 108 889 l 22 889 l 22 917 l 515 917 q 689 1076 689 917 l 717 1076 l 717 924 q 699 879 717 897 q 654 861 681 861 l 272 861 l 272 0 l 147 0 l 147 750 z "},"Д":{"ha":954,"x_min":4,"x_max":928,"o":"m 4 7 q 18 42 4 28 q 53 56 32 56 l 108 56 q 199 366 172 194 q 226 750 226 538 q 207 855 226 821 q 129 889 188 889 l 108 889 l 108 917 l 803 917 l 803 56 l 879 56 q 914 42 900 56 q 928 7 928 28 l 928 -250 l 865 -250 q 808 -56 849 -111 q 692 0 768 0 l 240 0 q 124 -56 164 0 q 67 -250 83 -111 l 4 -250 l 4 7 m 678 56 l 678 861 l 317 861 q 291 385 317 574 q 206 56 265 196 l 678 56 z "},"Е":{"ha":819,"x_min":22,"x_max":779,"o":"m 147 750 q 128 855 147 821 q 50 889 108 889 l 22 889 l 22 917 l 614 917 q 732 806 732 917 l 732 701 l 704 701 q 531 861 704 861 l 272 861 l 272 500 l 647 500 l 647 444 l 272 444 l 272 56 l 515 56 q 665 90 611 56 q 751 208 719 125 l 779 201 l 731 69 q 626 0 706 0 l 147 0 l 147 750 z "},"Ѐ":{"ha":819,"x_min":22,"x_max":779,"o":"m 147 750 q 128 855 147 821 q 50 889 108 889 l 22 889 l 22 917 l 614 917 q 732 806 732 917 l 732 701 l 704 701 q 531 861 704 861 l 272 861 l 272 500 l 647 500 l 647 444 l 272 444 l 272 56 l 515 56 q 665 90 611 56 q 751 208 719 125 l 779 201 l 731 69 q 626 0 706 0 l 147 0 l 147 750 m 396 979 l 264 1160 l 396 1160 l 451 979 l 396 979 z "},"Ё":{"ha":819,"x_min":22,"x_max":779,"o":"m 147 750 q 128 855 147 821 q 50 889 108 889 l 22 889 l 22 917 l 614 917 q 732 806 732 917 l 732 701 l 704 701 q 531 861 704 861 l 272 861 l 272 500 l 647 500 l 647 444 l 272 444 l 272 56 l 515 56 q 665 90 611 56 q 751 208 719 125 l 779 201 l 731 69 q 626 0 706 0 l 147 0 l 147 750 m 285 1014 q 234 1033 253 1014 q 215 1083 215 1051 q 234 1134 215 1115 q 285 1153 253 1153 q 335 1134 317 1153 q 354 1083 354 1115 q 335 1033 354 1051 q 285 1014 317 1014 m 521 1014 q 470 1033 489 1014 q 451 1083 451 1051 q 470 1134 451 1115 q 521 1153 489 1153 q 572 1134 553 1153 q 590 1083 590 1115 q 572 1033 590 1051 q 521 1014 553 1014 z "},"Ж":{"ha":1318,"x_min":-12,"x_max":1331,"o":"m 78 -14 q -12 0 29 -14 l -12 26 q 97 75 35 32 q 210 181 160 118 l 474 514 l 258 785 q 169 861 215 840 q 71 882 124 882 l 71 917 l 140 917 q 256 880 206 917 q 363 771 306 843 l 599 479 l 599 917 l 719 917 l 719 479 l 956 771 q 1060 878 1008 839 q 1178 917 1113 917 l 1247 917 l 1247 882 q 1149 861 1194 882 q 1060 785 1103 840 l 844 514 l 1108 181 q 1221 75 1158 118 q 1331 26 1283 32 l 1331 0 q 1240 -14 1289 -14 q 1103 22 1178 -14 q 956 153 1029 57 l 719 458 l 719 0 l 599 0 l 599 458 l 363 153 q 215 22 289 57 q 78 -14 140 -14 z "},"З":{"ha":792,"x_min":42,"x_max":736,"o":"m 375 -28 q 183 12 264 -28 q 42 146 101 51 l 69 167 q 354 28 174 28 q 531 81 465 28 q 597 229 597 135 q 530 384 597 331 q 333 438 463 438 l 229 438 l 229 493 l 333 493 q 501 547 432 493 q 569 694 569 600 q 508 838 569 788 q 361 889 446 889 q 192 830 261 889 q 97 667 124 771 l 69 667 q 75 781 69 743 q 104 847 81 818 q 216 917 139 890 q 368 944 293 944 q 603 890 506 944 q 701 688 701 836 q 653 560 701 617 q 507 472 604 503 q 683 389 631 449 q 736 236 736 329 q 628 32 736 92 q 375 -28 519 -28 z "},"И":{"ha":961,"x_min":22,"x_max":842,"o":"m 147 750 q 128 855 147 821 q 50 889 108 889 l 22 889 l 22 917 l 147 917 q 224 903 199 917 q 261 856 250 890 q 272 750 272 821 l 272 125 l 717 917 l 842 917 l 842 0 l 717 0 l 717 792 l 272 0 l 147 0 l 147 750 z "},"Й":{"ha":961,"x_min":22,"x_max":842,"o":"m 147 750 q 128 855 147 821 q 50 889 108 889 l 22 889 l 22 917 l 147 917 q 224 903 199 917 q 261 856 250 890 q 272 750 272 821 l 272 125 l 717 917 l 842 917 l 842 0 l 717 0 l 717 792 l 272 0 l 147 0 l 147 750 m 481 972 q 300 1097 356 972 l 328 1118 q 481 1056 378 1056 q 633 1118 583 1056 l 661 1097 q 481 972 606 972 z "},"Ѝ":{"ha":961,"x_min":22,"x_max":842,"o":"m 147 750 q 128 855 147 821 q 50 889 108 889 l 22 889 l 22 917 l 147 917 q 224 903 199 917 q 261 856 250 890 q 272 750 272 821 l 272 125 l 717 917 l 842 917 l 842 0 l 717 0 l 717 792 l 272 0 l 147 0 l 147 750 m 467 979 l 335 1160 l 467 1160 l 522 979 l 467 979 z "},"К":{"ha":940,"x_min":22,"x_max":953,"o":"m 863 -14 q 726 22 797 -14 q 564 153 656 57 l 272 458 l 272 0 l 147 0 l 147 750 q 128 855 147 821 q 50 889 108 889 l 22 889 l 22 917 l 147 917 q 224 903 199 917 q 261 856 250 890 q 272 750 272 821 l 272 479 l 564 771 l 592 800 q 657 863 631 840 q 719 901 683 886 q 800 917 756 917 l 869 917 l 869 882 q 768 862 811 882 q 668 785 725 842 l 397 514 l 717 181 q 840 76 778 118 q 953 26 903 33 l 953 0 q 863 -14 911 -14 z "},"Ќ":{"ha":940,"x_min":22,"x_max":953,"o":"m 383 938 l 481 1097 l 599 1097 l 453 938 l 383 938 m 863 -14 q 726 22 797 -14 q 564 153 656 57 l 272 458 l 272 0 l 147 0 l 147 750 q 128 855 147 821 q 50 889 108 889 l 22 889 l 22 917 l 147 917 q 224 903 199 917 q 261 856 250 890 q 272 750 272 821 l 272 479 l 564 771 l 592 800 q 657 863 631 840 q 719 901 683 886 q 800 917 756 917 l 869 917 l 869 882 q 768 862 811 882 q 668 785 725 842 l 397 514 l 717 181 q 953 26 856 42 l 953 0 q 863 -14 911 -14 z "},"Л":{"ha":917,"x_min":-8,"x_max":797,"o":"m 61 -14 q -8 -1 29 -14 l -8 33 q 110 93 61 36 q 190 306 160 150 q 221 750 221 463 q 201 855 221 821 q 124 889 182 889 l 110 889 l 110 917 l 797 917 l 797 0 l 672 0 l 672 861 l 325 861 l 325 750 q 290 281 325 450 q 197 49 254 113 q 61 -14 139 -14 z "},"М":{"ha":1188,"x_min":119,"x_max":1168,"o":"m 1168 -62 q 1013 -32 1068 -62 q 934 63 957 -1 q 911 236 911 128 l 911 771 l 564 0 l 536 0 l 175 785 l 175 0 l 119 0 l 119 917 l 251 917 l 585 194 l 911 917 l 1036 917 l 1036 236 q 1069 36 1036 107 q 1168 -35 1101 -35 l 1168 -62 z "},"Н":{"ha":963,"x_min":22,"x_max":939,"o":"m 147 750 q 128 855 147 821 q 50 889 108 889 l 22 889 l 22 917 l 147 917 q 224 903 199 917 q 261 856 250 890 q 272 750 272 821 l 272 500 l 689 500 l 689 917 l 814 917 l 814 167 q 833 62 814 96 q 911 28 853 28 l 939 28 l 939 0 l 814 0 q 737 13 763 0 q 700 61 711 26 q 689 167 689 96 l 689 444 l 272 444 l 272 0 l 147 0 l 147 750 z "},"О":{"ha":989,"x_min":64,"x_max":925,"o":"m 494 -28 q 267 36 365 -28 q 117 211 169 100 q 64 458 64 322 q 117 706 64 594 q 267 881 169 817 q 494 944 365 944 q 722 881 624 944 q 872 706 819 817 q 925 458 925 594 q 872 211 925 322 q 722 36 819 100 q 494 -28 624 -28 m 494 28 q 651 81 585 28 q 751 230 717 133 q 786 458 786 326 q 751 687 786 590 q 651 836 717 783 q 494 889 585 889 q 338 836 404 889 q 238 687 272 783 q 203 458 203 590 q 238 230 203 326 q 338 81 272 133 q 494 28 404 28 z "},"П":{"ha":933,"x_min":22,"x_max":814,"o":"m 147 750 q 128 855 147 821 q 50 889 108 889 l 22 889 l 22 917 l 814 917 l 814 0 l 689 0 l 689 861 l 272 861 l 272 0 l 147 0 l 147 750 z "},"Р":{"ha":767,"x_min":22,"x_max":731,"o":"m 147 750 q 128 855 147 821 q 50 889 108 889 l 22 889 l 22 917 l 383 917 q 624 860 517 917 q 731 639 731 803 q 675 472 731 531 q 551 394 619 414 q 425 375 482 375 l 272 375 l 272 0 l 147 0 l 147 750 m 376 424 q 471 447 421 424 q 556 519 521 469 q 592 646 592 569 q 556 772 592 722 q 471 845 521 822 q 376 868 421 868 q 272 854 328 868 l 272 438 q 376 424 328 424 z "},"С":{"ha":924,"x_min":61,"x_max":874,"o":"m 492 -28 q 265 35 363 -28 q 114 205 167 97 q 61 444 61 313 q 119 696 61 581 q 276 878 176 811 q 492 944 375 944 q 687 913 603 944 q 811 833 771 882 q 840 756 835 804 q 846 625 846 708 l 818 625 q 721 824 792 760 q 533 889 650 889 q 292 783 383 889 q 200 444 200 678 q 235 240 200 335 q 346 87 271 146 q 533 28 421 28 q 710 76 635 28 q 846 222 786 125 l 874 201 q 716 24 810 76 q 492 -28 622 -28 z "},"Т":{"ha":810,"x_min":29,"x_max":793,"o":"m 356 861 l 231 861 q 57 701 57 861 l 29 701 l 29 806 q 147 917 29 917 l 793 917 l 793 861 l 481 861 l 481 0 l 356 0 l 356 861 z "},"У":{"ha":843,"x_min":-39,"x_max":815,"o":"m 183 28 q 313 51 256 28 q 392 132 369 75 l 406 167 l 149 736 q 108 815 128 786 q 54 865 89 844 q -39 889 19 886 l -39 917 l 128 917 q 226 876 188 917 q 294 764 264 835 l 482 347 l 732 917 l 815 917 l 474 132 q 253 -14 411 -14 l 183 -14 l 183 28 z "},"Ў":{"ha":843,"x_min":-39,"x_max":815,"o":"m 183 28 q 313 51 256 28 q 392 132 369 75 l 406 167 l 149 736 q 108 815 128 786 q 54 865 89 844 q -39 889 19 886 l -39 917 l 128 917 q 226 876 188 917 q 294 764 264 835 l 482 347 l 732 917 l 815 917 l 474 132 q 253 -14 411 -14 l 183 -14 l 183 28 m 439 986 q 258 1111 314 986 l 286 1132 q 439 1069 336 1069 q 592 1132 542 1069 l 619 1111 q 439 986 564 986 z "},"Ф":{"ha":1083,"x_min":49,"x_max":1035,"o":"m 479 49 q 157 152 265 49 q 49 438 49 256 q 157 723 49 619 q 479 826 265 826 l 479 833 q 457 908 479 886 q 382 931 435 931 l 354 931 l 354 958 l 479 958 q 578 932 551 958 q 604 833 604 906 l 604 826 q 926 723 818 826 q 1035 438 1035 619 q 926 152 1035 256 q 604 49 818 49 l 604 -42 l 479 -42 l 479 49 m 479 771 q 256 680 324 771 q 188 438 188 589 q 256 195 188 286 q 479 104 324 104 l 479 771 m 604 104 q 828 195 760 104 q 896 438 896 286 q 828 680 896 589 q 604 771 760 771 l 604 104 z "},"Х":{"ha":926,"x_min":-12,"x_max":946,"o":"m 404 451 l 210 736 q 151 813 176 785 q 86 864 126 842 q -12 889 46 886 l -12 917 l 154 917 q 257 877 215 917 q 349 764 299 838 l 488 556 l 765 917 l 835 917 l 522 507 l 744 181 q 837 74 788 117 q 946 28 886 32 l 946 0 l 800 0 q 694 42 740 0 q 606 153 649 85 l 439 403 l 126 0 l 57 0 l 404 451 z "},"Ч":{"ha":889,"x_min":6,"x_max":769,"o":"m 644 375 q 560 353 613 360 q 457 347 508 347 q 278 369 351 347 q 160 456 204 392 q 117 639 117 521 l 117 750 q 97 855 117 821 q 19 889 78 889 l 6 889 l 6 917 l 131 917 q 208 903 182 917 q 244 856 233 890 q 256 750 256 821 l 256 625 q 278 488 256 536 q 346 421 301 439 q 464 403 390 403 q 561 410 511 403 q 644 431 611 417 l 644 917 l 769 917 l 769 0 l 644 0 l 644 375 z "},"Ц":{"ha":965,"x_min":22,"x_max":939,"o":"m 876 -250 q 819 -56 860 -111 q 703 0 779 0 l 147 0 l 147 750 q 128 855 147 821 q 50 889 108 889 l 22 889 l 22 917 l 147 917 q 224 903 199 917 q 261 856 250 890 q 272 750 272 821 l 272 56 l 689 56 l 689 917 l 814 917 l 814 56 l 890 56 q 925 42 911 56 q 939 7 939 28 l 939 -250 l 876 -250 z "},"Ш":{"ha":1294,"x_min":22,"x_max":1175,"o":"m 147 750 q 128 855 147 821 q 50 889 108 889 l 22 889 l 22 917 l 147 917 q 224 903 199 917 q 261 856 250 890 q 272 750 272 821 l 272 56 l 599 56 l 599 917 l 724 917 l 724 56 l 1050 56 l 1050 917 l 1175 917 l 1175 0 l 147 0 l 147 750 z "},"Щ":{"ha":1326,"x_min":22,"x_max":1300,"o":"m 1238 -250 q 1181 -56 1221 -111 q 1064 0 1140 0 l 147 0 l 147 750 q 128 855 147 821 q 50 889 108 889 l 22 889 l 22 917 l 147 917 q 224 903 199 917 q 261 856 250 890 q 272 750 272 821 l 272 56 l 599 56 l 599 917 l 724 917 l 724 56 l 1050 56 l 1050 917 l 1175 917 l 1175 56 l 1251 56 q 1286 42 1272 56 q 1300 7 1300 28 l 1300 -250 l 1238 -250 z "},"Џ":{"ha":933,"x_min":22,"x_max":814,"o":"m 425 0 l 147 0 l 147 750 q 128 855 147 821 q 50 889 108 889 l 22 889 l 22 917 l 147 917 q 224 903 199 917 q 261 856 250 890 q 272 750 272 821 l 272 56 l 689 56 l 689 917 l 814 917 l 814 0 l 536 0 l 515 -243 l 446 -243 l 425 0 z "},"Ь":{"ha":828,"x_min":22,"x_max":793,"o":"m 147 750 q 128 855 147 821 q 50 889 108 889 l 22 889 l 22 917 l 147 917 q 224 903 199 917 q 261 856 250 890 q 272 750 272 821 l 272 528 l 425 528 q 685 471 578 528 q 793 264 793 414 q 685 57 793 114 q 425 0 578 0 l 147 0 l 147 750 m 404 49 q 588 103 522 49 q 654 264 654 157 q 588 425 654 371 q 404 479 522 479 q 272 460 339 479 l 272 68 q 404 49 339 49 z "},"Ъ":{"ha":978,"x_min":40,"x_max":943,"o":"m 297 861 l 256 861 q 158 842 194 861 q 104 778 122 824 q 82 653 86 733 l 40 653 l 40 868 q 54 903 40 889 q 89 917 68 917 l 422 917 l 422 528 l 575 528 q 835 471 728 528 q 943 264 943 414 q 835 57 943 114 q 575 0 728 0 l 297 0 l 297 861 m 554 49 q 738 103 672 49 q 804 264 804 157 q 738 425 804 371 q 554 479 672 479 q 422 460 489 479 l 422 68 q 554 49 489 49 z "},"Ы":{"ha":1156,"x_min":22,"x_max":1133,"o":"m 147 750 q 128 855 147 821 q 50 889 108 889 l 22 889 l 22 917 l 147 917 q 224 903 199 917 q 261 856 250 890 q 272 750 272 821 l 272 528 l 425 528 q 667 470 563 528 q 772 264 772 413 q 667 58 772 115 q 425 0 563 0 l 147 0 l 147 750 m 1008 0 q 931 13 957 0 q 894 61 906 26 q 883 167 883 96 l 883 917 l 1008 917 l 1008 167 q 1028 62 1008 96 q 1106 28 1047 28 l 1133 28 l 1133 0 l 1008 0 m 404 49 q 570 103 507 49 q 633 264 633 158 q 570 424 633 369 q 404 479 507 479 q 272 460 339 479 l 272 68 q 404 49 339 49 z "},"Љ":{"ha":1339,"x_min":-8,"x_max":1304,"o":"m 61 -14 q -8 -1 29 -14 l -8 33 q 110 93 61 36 q 190 306 160 150 q 221 750 221 463 q 201 855 221 821 q 124 889 182 889 l 110 889 l 110 917 l 783 917 l 783 528 l 936 528 q 1197 471 1089 528 q 1304 264 1304 414 q 1197 57 1304 114 q 936 0 1089 0 l 658 0 l 658 861 l 325 861 l 325 750 q 290 281 325 450 q 197 49 254 113 q 61 -14 139 -14 m 915 49 q 1100 103 1035 49 q 1165 264 1165 157 q 1100 425 1165 371 q 915 479 1035 479 q 783 458 842 479 l 783 69 q 915 49 842 49 z "},"Њ":{"ha":1353,"x_min":22,"x_max":1321,"o":"m 147 750 q 128 855 147 821 q 50 889 108 889 l 22 889 l 22 917 l 147 917 q 224 903 199 917 q 261 856 250 890 q 272 750 272 821 l 272 500 l 675 500 l 675 917 l 800 917 l 800 500 l 953 500 q 1213 445 1104 500 q 1321 250 1321 390 q 1213 55 1321 110 q 953 0 1104 0 l 675 0 l 675 444 l 272 444 l 272 0 l 147 0 l 147 750 m 932 49 q 1116 100 1050 49 q 1182 250 1182 151 q 1116 400 1182 349 q 932 451 1050 451 q 800 431 858 451 l 800 69 q 932 49 858 49 z "},"Ѕ":{"ha":740,"x_min":75,"x_max":681,"o":"m 392 -24 q 242 -3 315 -24 q 122 57 168 18 q 75 146 75 96 l 75 294 l 100 294 q 192 94 124 156 q 379 32 260 32 q 508 69 454 32 q 561 174 561 107 q 525 275 561 232 q 408 365 489 318 l 238 467 q 112 574 149 519 q 75 706 75 628 q 149 877 75 813 q 344 942 224 942 q 485 922 415 942 q 599 863 554 901 q 644 775 644 825 l 644 626 l 619 626 q 530 826 596 765 q 344 886 464 886 q 232 847 281 886 q 183 746 183 808 q 219 651 183 689 q 338 564 254 614 l 508 463 q 642 357 603 406 q 681 233 681 308 q 603 47 681 117 q 392 -24 525 -24 z "},"Є":{"ha":924,"x_min":61,"x_max":874,"o":"m 492 -28 q 265 35 363 -28 q 114 205 167 97 q 61 444 61 313 q 119 696 61 581 q 276 878 176 811 q 492 944 375 944 q 687 913 603 944 q 811 833 771 882 q 840 756 835 804 q 846 625 846 708 l 818 625 q 721 824 792 760 q 533 889 650 889 q 301 793 392 889 q 200 486 211 697 l 660 486 l 660 431 l 200 431 q 240 232 204 324 q 351 84 276 140 q 533 28 425 28 q 710 76 635 28 q 846 222 786 125 l 874 201 q 716 24 810 76 q 492 -28 622 -28 z "},"Э":{"ha":924,"x_min":49,"x_max":861,"o":"m 431 -28 q 206 24 300 -28 q 49 201 113 76 l 76 222 q 212 76 136 125 q 389 28 288 28 q 572 84 497 28 q 682 232 646 140 q 722 431 718 324 l 263 431 l 263 486 l 722 486 q 621 793 711 697 q 389 889 531 889 q 201 824 272 889 q 104 625 131 760 l 76 625 q 82 756 76 708 q 111 833 88 804 q 235 913 151 882 q 431 944 319 944 q 647 878 547 944 q 803 696 746 811 q 861 444 861 581 q 808 205 861 313 q 658 35 756 97 q 431 -28 560 -28 z "},"І":{"ha":396,"x_min":124,"x_max":374,"o":"m 249 0 q 172 13 197 0 q 135 61 146 26 q 124 167 124 96 l 124 917 l 249 917 l 249 167 q 268 62 249 96 q 346 28 288 28 l 374 28 l 374 0 l 249 0 z "},"Ї":{"ha":396,"x_min":10,"x_max":374,"o":"m 79 993 q 28 1012 47 993 q 10 1063 10 1031 q 28 1113 10 1094 q 79 1132 47 1132 q 130 1113 111 1132 q 149 1063 149 1094 q 130 1012 149 1031 q 79 993 111 993 m 293 993 q 242 1012 261 993 q 224 1063 224 1031 q 242 1113 224 1094 q 293 1132 261 1132 q 344 1113 325 1132 q 363 1063 363 1094 q 344 1012 363 1031 q 293 993 325 993 m 249 0 q 172 13 197 0 q 135 61 146 26 q 124 167 124 96 l 124 917 l 249 917 l 249 167 q 268 62 249 96 q 346 28 288 28 l 374 28 l 374 0 l 249 0 z "},"Ј":{"ha":363,"x_min":-12,"x_max":244,"o":"m -12 -162 q 87 -92 54 -162 q 119 108 119 -21 l 119 917 l 244 917 l 244 108 q 222 -65 244 0 q 143 -160 199 -129 q -12 -190 88 -190 l -12 -162 z "},"Ћ":{"ha":958,"x_min":29,"x_max":889,"o":"m 611 597 q 813 542 736 597 q 889 347 889 486 l 889 0 l 764 0 l 764 347 q 710 490 764 444 q 569 535 656 535 q 465 518 519 535 q 375 479 410 501 l 375 0 l 250 0 l 250 861 l 231 861 q 57 701 57 861 l 29 701 l 29 806 q 147 917 29 917 l 765 917 l 765 861 l 375 861 l 375 542 q 476 581 410 564 q 611 597 542 597 z "},"Ю":{"ha":1213,"x_min":22,"x_max":1147,"o":"m 758 -28 q 563 31 650 -28 q 424 198 475 90 q 369 444 372 306 l 272 444 l 272 0 l 147 0 l 147 750 q 128 855 147 821 q 50 889 108 889 l 22 889 l 22 917 l 147 917 q 224 903 199 917 q 261 856 250 890 q 272 750 272 821 l 272 500 l 371 500 q 431 734 379 633 q 568 890 483 835 q 758 944 653 944 q 957 884 868 944 q 1097 713 1046 824 q 1147 458 1147 601 q 1097 204 1147 315 q 957 33 1046 93 q 758 -28 868 -28 m 758 28 q 886 78 829 28 q 976 226 943 129 q 1008 458 1008 324 q 976 690 1008 593 q 886 838 943 788 q 758 889 829 889 q 631 838 688 889 q 541 690 574 788 q 508 458 508 593 q 541 226 508 324 q 631 78 574 129 q 758 28 688 28 z "},"Я":{"ha":844,"x_min":19,"x_max":811,"o":"m 103 -14 q 19 1 65 -14 l 19 28 q 106 61 69 33 q 172 139 142 89 l 318 389 q 175 468 233 410 q 117 639 117 526 q 224 860 117 803 q 464 917 331 917 l 811 917 l 811 889 l 797 889 q 719 855 739 889 q 700 750 700 821 l 700 0 l 575 0 l 575 375 l 440 375 l 294 111 q 211 13 256 40 q 103 -14 167 -14 m 471 424 q 575 438 519 424 l 575 854 q 471 868 519 868 q 376 845 426 868 q 291 772 326 822 q 256 646 256 722 q 291 519 256 569 q 376 447 326 469 q 471 424 426 424 z "},"Ђ":{"ha":936,"x_min":29,"x_max":888,"o":"m 610 597 q 813 531 739 597 q 888 278 888 464 q 865 81 888 153 q 787 -23 842 10 q 631 -56 732 -56 l 631 -28 q 763 278 763 -28 q 710 478 763 421 q 568 535 657 535 q 463 518 518 535 q 374 479 408 501 l 374 0 l 249 0 l 249 861 l 231 861 q 57 701 57 861 l 29 701 l 29 806 q 147 917 29 917 l 765 917 l 765 861 l 374 861 l 374 542 q 474 581 408 564 q 610 597 540 597 z "},"Ѣ":{"ha":925,"x_min":29,"x_max":890,"o":"m 522 528 q 783 471 675 528 q 890 264 890 414 q 783 57 890 114 q 522 0 675 0 l 244 0 l 244 722 l 231 722 q 57 563 57 722 l 29 563 l 29 667 q 147 778 29 778 l 244 778 q 220 861 242 833 q 147 889 199 889 l 119 889 l 119 917 l 244 917 q 317 906 292 917 q 355 865 343 894 q 369 778 367 836 l 682 778 l 682 722 l 369 722 l 369 528 l 522 528 m 501 49 q 685 103 619 49 q 751 264 751 157 q 685 425 751 371 q 501 479 619 479 q 369 460 436 479 l 369 68 q 501 49 436 49 z "},"Ѫ":{"ha":1318,"x_min":-12,"x_max":1331,"o":"m 78 -14 q -12 0 29 -14 l -12 26 q 99 75 36 32 q 210 181 163 118 l 396 417 q 463 475 429 457 q 556 497 497 493 l 314 783 q 217 859 261 836 q 126 882 174 882 l 126 917 l 1150 917 l 1150 882 q 1064 860 1104 882 q 964 785 1024 838 l 738 500 q 906 439 854 500 l 1108 181 q 1222 75 1160 118 q 1331 26 1283 32 l 1331 0 q 1240 -14 1289 -14 q 1103 22 1178 -14 q 956 153 1029 57 l 719 458 l 719 0 l 599 0 l 599 458 l 363 153 q 215 22 289 57 q 78 -14 140 -14 m 651 486 l 949 861 l 333 861 l 651 486 z "},"Ѳ":{"ha":989,"x_min":64,"x_max":925,"o":"m 494 944 q 722 881 624 944 q 872 706 819 817 q 925 458 925 594 q 872 211 925 322 q 722 36 819 100 q 494 -28 624 -28 q 267 36 365 -28 q 117 211 169 100 q 64 458 64 322 q 117 706 64 594 q 267 881 169 817 q 494 944 365 944 m 494 889 q 290 785 367 889 q 204 500 213 681 l 785 500 q 699 785 776 681 q 494 889 622 889 m 494 28 q 706 140 628 28 q 786 444 783 251 l 203 444 q 283 140 206 251 q 494 28 361 28 z "},"Ѵ":{"ha":932,"x_min":-40,"x_max":901,"o":"m 854 919 q 901 917 874 919 l 901 889 q 811 853 843 883 q 749 743 779 822 l 460 -14 l 435 -14 l 113 754 q 47 865 78 835 q -40 900 17 894 l -40 928 q -20 929 -33 928 q 7 931 -7 931 q 140 895 76 931 q 249 754 204 860 l 485 200 l 685 743 q 767 883 724 846 q 854 919 810 919 z "},"Ғ":{"ha":746,"x_min":22,"x_max":717,"o":"m 599 917 q 717 806 717 917 l 717 701 l 689 701 q 515 861 689 861 l 272 861 l 272 486 l 443 486 l 443 431 l 272 431 l 272 0 l 147 0 l 147 431 l 54 431 l 54 486 l 147 486 l 147 750 q 128 855 147 821 q 50 889 108 889 l 22 889 l 22 917 l 599 917 z "},"Ҕ":{"ha":833,"x_min":22,"x_max":785,"o":"m 493 597 q 701 522 618 597 q 785 278 785 446 q 690 -33 785 82 q 376 -176 596 -149 l 376 -149 q 660 278 660 -93 q 601 468 660 403 q 447 533 543 533 q 272 490 367 533 l 272 0 l 147 0 l 147 750 q 128 855 147 821 q 50 889 108 889 l 22 889 l 22 917 l 599 917 q 717 806 717 917 l 717 701 l 689 701 q 515 861 689 861 l 272 861 l 272 547 q 369 583 311 568 q 493 597 426 597 z "},"Җ":{"ha":1336,"x_min":-12,"x_max":1364,"o":"m 1315 56 q 1350 42 1336 56 q 1364 7 1364 28 l 1364 -250 l 1301 -250 q 1258 -78 1288 -135 q 1176 -6 1228 -21 q 956 153 1057 22 l 719 458 l 719 0 l 599 0 l 599 458 l 363 153 q 215 22 289 57 q 78 -14 140 -14 q -12 0 29 -14 l -12 26 q 97 75 35 32 q 210 181 160 118 l 474 514 l 258 785 q 169 861 215 840 q 71 882 124 882 l 71 917 l 140 917 q 256 880 206 917 q 363 771 306 843 l 599 479 l 599 917 l 719 917 l 719 479 l 956 771 q 1060 878 1008 839 q 1178 917 1113 917 l 1247 917 l 1247 882 q 1149 861 1194 882 q 1060 785 1103 840 l 844 514 l 1108 181 q 1215 79 1160 118 q 1260 60 1238 65 q 1315 56 1282 56 z "},"Ҙ":{"ha":792,"x_min":42,"x_max":736,"o":"m 736 236 q 652 50 736 111 q 444 -25 568 -11 l 444 -250 l 382 -250 q 368 -101 376 -151 q 344 -26 360 -50 q 172 18 246 -22 q 42 146 97 58 l 69 167 q 354 28 174 28 q 531 81 465 28 q 597 229 597 135 q 530 384 597 331 q 333 438 463 438 l 229 438 l 229 493 l 333 493 q 501 547 432 493 q 569 694 569 600 q 508 838 569 788 q 361 889 446 889 q 192 830 261 889 q 97 667 124 771 l 69 667 q 75 781 69 743 q 104 847 81 818 q 216 917 139 890 q 368 944 293 944 q 603 890 506 944 q 701 688 701 836 q 653 560 701 617 q 507 472 604 503 q 683 389 631 449 q 736 236 736 329 z "},"Қ":{"ha":956,"x_min":22,"x_max":983,"o":"m 935 56 q 969 42 956 56 q 983 7 983 28 l 983 -250 l 921 -250 q 877 -78 907 -135 q 794 -6 847 -21 q 564 153 689 21 l 272 458 l 272 0 l 147 0 l 147 750 q 128 855 147 821 q 50 889 108 889 l 22 889 l 22 917 l 147 917 q 224 903 199 917 q 261 856 250 890 q 272 750 272 821 l 272 479 l 564 771 l 592 800 q 657 863 631 840 q 719 901 683 886 q 800 917 756 917 l 869 917 l 869 882 q 768 862 811 882 q 668 785 725 842 l 397 514 l 717 181 q 821 89 772 122 q 872 62 847 68 q 935 56 897 56 z "},"Ҝ":{"ha":1010,"x_min":22,"x_max":1022,"o":"m 786 181 q 910 76 847 118 q 1022 26 972 33 l 1022 0 q 932 -14 981 -14 q 796 22 867 -14 q 633 153 725 57 l 375 424 l 375 286 l 315 286 l 315 440 l 272 440 l 272 0 l 147 0 l 147 750 q 128 855 147 821 q 50 889 108 889 l 22 889 l 22 917 l 147 917 q 224 903 199 917 q 261 856 250 890 q 272 750 272 821 l 272 496 l 315 496 l 315 640 l 375 640 l 375 513 l 633 771 l 661 800 q 726 863 700 840 q 789 901 753 886 q 869 917 825 917 l 939 917 l 939 882 q 838 862 881 882 q 738 785 794 842 l 467 514 l 786 181 z "},"Ҡ":{"ha":1086,"x_min":29,"x_max":1099,"o":"m 863 181 q 986 76 924 118 q 1099 26 1049 33 l 1099 0 q 1008 -14 1057 -14 q 872 22 943 -14 q 710 153 801 57 l 418 458 l 418 0 l 293 0 l 293 861 l 231 861 q 57 701 57 861 l 29 701 l 29 806 q 147 917 29 917 l 418 917 l 418 479 l 710 771 l 738 800 q 803 863 776 840 q 865 901 829 886 q 946 917 901 917 l 1015 917 l 1015 882 q 914 862 957 882 q 814 785 871 842 l 543 514 l 863 181 z "},"Ң":{"ha":965,"x_min":22,"x_max":939,"o":"m 876 -250 q 819 -56 860 -111 q 703 0 779 0 l 689 0 l 689 444 l 272 444 l 272 0 l 147 0 l 147 750 q 128 855 147 821 q 50 889 108 889 l 22 889 l 22 917 l 147 917 q 224 903 199 917 q 261 856 250 890 q 272 750 272 821 l 272 500 l 689 500 l 689 917 l 814 917 l 814 56 l 890 56 q 925 42 911 56 q 939 7 939 28 l 939 -250 l 876 -250 z "},"Ԥ":{"ha":965,"x_min":22,"x_max":939,"o":"m 890 56 q 925 42 911 56 q 939 7 939 28 l 939 -250 l 876 -250 q 819 -56 860 -111 q 703 0 779 0 l 689 0 l 689 861 l 272 861 l 272 0 l 147 0 l 147 750 q 128 855 147 821 q 50 889 108 889 l 22 889 l 22 917 l 814 917 l 814 56 l 890 56 z "},"Ҫ":{"ha":924,"x_min":61,"x_max":874,"o":"m 874 201 q 744 42 819 96 q 569 -24 669 -11 l 569 -250 l 507 -250 q 493 -101 501 -151 q 469 -28 485 -50 q 254 42 347 -22 q 111 211 161 106 q 61 444 61 317 q 119 696 61 581 q 276 878 176 811 q 492 944 375 944 q 687 913 603 944 q 811 833 771 882 q 840 756 835 804 q 846 625 846 708 l 818 625 q 721 824 792 760 q 533 889 650 889 q 292 783 383 889 q 200 444 200 678 q 235 240 200 335 q 346 87 271 146 q 533 28 421 28 q 710 76 635 28 q 846 222 786 125 l 874 201 z "},"Ү":{"ha":872,"x_min":-35,"x_max":853,"o":"m 403 379 l 167 736 q 106 817 131 788 q 47 866 81 846 q -35 889 13 886 l -35 917 l 90 917 q 207 876 160 917 q 299 764 254 835 l 500 451 l 790 917 l 853 917 l 528 389 l 528 0 l 403 0 l 403 379 z "},"Ұ":{"ha":872,"x_min":-35,"x_max":853,"o":"m 529 392 l 660 392 l 660 336 l 528 336 l 528 0 l 403 0 l 403 336 l 271 336 l 271 392 l 394 392 l 167 736 q 106 817 131 788 q 47 866 81 846 q -35 889 13 886 l -35 917 l 90 917 q 207 876 160 917 q 299 764 254 835 l 500 451 l 790 917 l 853 917 l 529 392 z "},"Ҷ":{"ha":889,"x_min":6,"x_max":894,"o":"m 846 56 q 881 42 867 56 q 894 7 894 28 l 894 -250 l 832 -250 q 775 -56 815 -111 q 658 0 735 0 l 644 0 l 644 375 q 560 353 613 360 q 457 347 508 347 q 278 369 351 347 q 160 456 204 392 q 117 639 117 521 l 117 750 q 97 855 117 821 q 19 889 78 889 l 6 889 l 6 917 l 131 917 q 208 903 182 917 q 244 856 233 890 q 256 750 256 821 l 256 625 q 278 488 256 536 q 346 421 301 439 q 464 403 390 403 q 561 410 511 403 q 644 431 611 417 l 644 917 l 769 917 l 769 56 l 846 56 z "},"Ҹ":{"ha":889,"x_min":6,"x_max":769,"o":"m 769 917 l 769 0 l 644 0 l 644 375 q 504 349 601 354 l 504 197 l 444 197 l 444 347 q 272 372 343 349 q 159 458 201 394 q 117 639 117 522 l 117 750 q 97 855 117 821 q 19 889 78 889 l 6 889 l 6 917 l 131 917 q 208 903 182 917 q 244 856 233 890 q 256 750 256 821 l 256 625 q 276 492 256 540 q 337 425 296 444 q 444 403 378 406 l 444 551 l 504 551 l 504 404 q 644 431 597 410 l 644 917 l 769 917 z "},"Һ":{"ha":889,"x_min":119,"x_max":883,"o":"m 244 542 q 328 563 276 557 q 432 569 381 569 q 611 547 538 569 q 728 460 685 525 q 772 278 772 396 l 772 167 q 792 62 772 96 q 869 28 811 28 l 883 28 l 883 0 l 758 0 q 681 13 707 0 q 644 61 656 26 q 633 167 633 96 l 633 292 q 610 429 633 381 q 543 496 588 478 q 425 514 499 514 q 327 507 376 514 q 244 486 278 500 l 244 0 l 119 0 l 119 917 l 244 917 l 244 542 z "},"Ӏ":{"ha":396,"x_min":124,"x_max":374,"o":"m 249 0 q 172 13 197 0 q 135 61 146 26 q 124 167 124 96 l 124 917 l 249 917 l 249 167 q 268 62 249 96 q 346 28 288 28 l 374 28 l 374 0 l 249 0 z "},"Ӂ":{"ha":1318,"x_min":-12,"x_max":1331,"o":"m 78 -14 q -12 0 29 -14 l -12 26 q 97 75 35 32 q 210 181 160 118 l 474 514 l 258 785 q 169 861 215 840 q 71 882 124 882 l 71 917 l 140 917 q 256 880 206 917 q 363 771 306 843 l 599 479 l 599 917 l 719 917 l 719 479 l 956 771 q 1060 878 1008 839 q 1178 917 1113 917 l 1247 917 l 1247 882 q 1149 861 1194 882 q 1060 785 1103 840 l 844 514 l 1108 181 q 1221 75 1158 118 q 1331 26 1283 32 l 1331 0 q 1240 -14 1289 -14 q 1103 22 1178 -14 q 956 153 1029 57 l 719 458 l 719 0 l 599 0 l 599 458 l 363 153 q 215 22 289 57 q 78 -14 140 -14 m 660 986 q 479 1111 535 986 l 507 1132 q 660 1069 557 1069 q 813 1132 763 1069 l 840 1111 q 660 986 785 986 z "},"Ӌ":{"ha":853,"x_min":6,"x_max":769,"o":"m 769 917 l 769 0 l 756 0 q 639 -56 679 0 q 582 -250 599 -111 l 519 -250 l 519 7 q 533 42 519 28 q 568 56 547 56 l 644 56 l 644 375 q 560 353 613 360 q 457 347 508 347 q 278 369 351 347 q 160 456 204 392 q 117 639 117 521 l 117 750 q 97 855 117 821 q 19 889 78 889 l 6 889 l 6 917 l 131 917 q 208 903 182 917 q 244 856 233 890 q 256 750 256 821 l 256 625 q 278 488 256 536 q 346 421 301 439 q 464 403 390 403 q 561 410 511 403 q 644 431 611 417 l 644 917 l 769 917 z "},"Ӑ":{"ha":882,"x_min":31,"x_max":919,"o":"m 864 -7 q 732 30 797 -7 q 628 174 667 67 l 593 264 l 204 264 l 93 0 l 31 0 l 419 917 l 461 917 l 767 174 q 832 63 801 93 q 919 28 863 33 l 919 0 q 864 -7 894 -7 m 225 319 l 565 319 l 399 722 l 225 319 m 442 986 q 261 1111 317 986 l 289 1132 q 442 1069 339 1069 q 594 1132 544 1069 l 622 1111 q 442 986 567 986 z "},"Ӓ":{"ha":882,"x_min":31,"x_max":919,"o":"m 864 -7 q 732 30 797 -7 q 628 174 667 67 l 593 264 l 204 264 l 93 0 l 31 0 l 419 917 l 461 917 l 767 174 q 832 63 801 93 q 919 28 863 33 l 919 0 q 864 -7 894 -7 m 225 319 l 565 319 l 399 722 l 225 319 m 324 993 q 279 1011 297 993 q 261 1056 261 1029 q 279 1100 261 1082 q 324 1118 297 1118 q 368 1100 350 1118 q 386 1056 386 1082 q 368 1011 386 1029 q 324 993 350 993 m 560 993 q 515 1011 533 993 q 497 1056 497 1029 q 515 1100 497 1082 q 560 1118 533 1118 q 604 1100 586 1118 q 622 1056 622 1082 q 604 1011 622 1029 q 560 993 586 993 z "},"Ӗ":{"ha":819,"x_min":22,"x_max":779,"o":"m 147 750 q 128 855 147 821 q 50 889 108 889 l 22 889 l 22 917 l 614 917 q 732 806 732 917 l 732 701 l 704 701 q 531 861 704 861 l 272 861 l 272 500 l 647 500 l 647 444 l 272 444 l 272 56 l 515 56 q 665 90 611 56 q 751 208 719 125 l 779 201 l 731 69 q 626 0 706 0 l 147 0 l 147 750 m 410 986 q 229 1111 285 986 l 257 1132 q 410 1069 307 1069 q 563 1132 513 1069 l 590 1111 q 410 986 535 986 z "},"Ә":{"ha":932,"x_min":64,"x_max":868,"o":"m 457 -28 q 162 83 260 -28 q 64 404 64 193 l 68 482 l 731 482 q 693 690 731 599 q 587 833 656 782 q 426 885 518 885 q 249 839 319 885 q 122 699 179 793 l 85 729 q 235 894 149 843 q 438 944 322 944 q 674 879 576 944 q 819 703 771 814 q 868 454 868 592 q 818 210 868 319 q 675 36 768 100 q 457 -28 582 -28 m 457 28 q 597 76 535 28 q 695 211 660 125 q 731 404 731 297 l 190 404 q 258 124 190 221 q 457 28 325 28 z "},"Ӝ":{"ha":1318,"x_min":-12,"x_max":1331,"o":"m 78 -14 q -12 0 29 -14 l -12 26 q 97 75 35 32 q 210 181 160 118 l 474 514 l 258 785 q 169 861 215 840 q 71 882 124 882 l 71 917 l 140 917 q 256 880 206 917 q 363 771 306 843 l 599 479 l 599 917 l 719 917 l 719 479 l 956 771 q 1060 878 1008 839 q 1178 917 1113 917 l 1247 917 l 1247 882 q 1149 861 1194 882 q 1060 785 1103 840 l 844 514 l 1108 181 q 1221 75 1158 118 q 1331 26 1283 32 l 1331 0 q 1240 -14 1289 -14 q 1103 22 1178 -14 q 956 153 1029 57 l 719 458 l 719 0 l 599 0 l 599 458 l 363 153 q 215 22 289 57 q 78 -14 140 -14 m 542 993 q 497 1011 515 993 q 479 1056 479 1029 q 497 1100 479 1082 q 542 1118 515 1118 q 586 1100 568 1118 q 604 1056 604 1082 q 586 1011 604 1029 q 542 993 568 993 m 778 993 q 733 1011 751 993 q 715 1056 715 1029 q 733 1100 715 1082 q 778 1118 751 1118 q 822 1100 804 1118 q 840 1056 840 1082 q 822 1011 840 1029 q 778 993 804 993 z "},"Ӟ":{"ha":792,"x_min":42,"x_max":736,"o":"m 375 -28 q 183 12 264 -28 q 42 146 101 51 l 69 167 q 354 28 174 28 q 531 81 465 28 q 597 229 597 135 q 530 384 597 331 q 333 438 463 438 l 229 438 l 229 493 l 333 493 q 501 547 432 493 q 569 694 569 600 q 508 838 569 788 q 361 889 446 889 q 192 830 261 889 q 97 667 124 771 l 69 667 q 75 781 69 743 q 104 847 81 818 q 216 917 139 890 q 368 944 293 944 q 603 890 506 944 q 701 688 701 836 q 653 560 701 617 q 507 472 604 503 q 683 389 631 449 q 736 236 736 329 q 628 32 736 92 q 375 -28 519 -28 m 250 993 q 206 1011 224 993 q 188 1056 188 1029 q 206 1100 188 1082 q 250 1118 224 1118 q 294 1100 276 1118 q 313 1056 313 1082 q 294 1011 313 1029 q 250 993 276 993 m 486 993 q 442 1011 460 993 q 424 1056 424 1029 q 442 1100 424 1082 q 486 1118 460 1118 q 531 1100 513 1118 q 549 1056 549 1082 q 531 1011 549 1029 q 486 993 513 993 z "},"Ӣ":{"ha":961,"x_min":22,"x_max":842,"o":"m 147 750 q 128 855 147 821 q 50 889 108 889 l 22 889 l 22 917 l 147 917 q 224 903 199 917 q 261 856 250 890 q 272 750 272 821 l 272 125 l 717 917 l 842 917 l 842 0 l 717 0 l 717 792 l 272 0 l 147 0 l 147 750 m 303 1028 l 303 1111 l 657 1111 l 657 1028 l 303 1028 z "},"Ӥ":{"ha":961,"x_min":22,"x_max":842,"o":"m 147 750 q 128 855 147 821 q 50 889 108 889 l 22 889 l 22 917 l 147 917 q 224 903 199 917 q 261 856 250 890 q 272 750 272 821 l 272 125 l 717 917 l 842 917 l 842 0 l 717 0 l 717 792 l 272 0 l 147 0 l 147 750 m 363 993 q 318 1011 336 993 q 300 1056 300 1029 q 318 1100 300 1082 q 363 1118 336 1118 q 407 1100 389 1118 q 425 1056 425 1082 q 407 1011 425 1029 q 363 993 389 993 m 599 993 q 554 1011 572 993 q 536 1056 536 1029 q 554 1100 536 1082 q 599 1118 572 1118 q 643 1100 625 1118 q 661 1056 661 1082 q 643 1011 661 1029 q 599 993 625 993 z "},"Ӧ":{"ha":989,"x_min":64,"x_max":925,"o":"m 494 -28 q 267 36 365 -28 q 117 211 169 100 q 64 458 64 322 q 117 706 64 594 q 267 881 169 817 q 494 944 365 944 q 722 881 624 944 q 872 706 819 817 q 925 458 925 594 q 872 211 925 322 q 722 36 819 100 q 494 -28 624 -28 m 494 28 q 651 81 585 28 q 751 230 717 133 q 786 458 786 326 q 751 687 786 590 q 651 836 717 783 q 494 889 585 889 q 338 836 404 889 q 238 687 272 783 q 203 458 203 590 q 238 230 203 326 q 338 81 272 133 q 494 28 404 28 m 376 993 q 332 1011 350 993 q 314 1056 314 1029 q 332 1100 314 1082 q 376 1118 350 1118 q 421 1100 403 1118 q 439 1056 439 1082 q 421 1011 439 1029 q 376 993 403 993 m 613 993 q 568 1011 586 993 q 550 1056 550 1029 q 568 1100 550 1082 q 613 1118 586 1118 q 657 1100 639 1118 q 675 1056 675 1082 q 657 1011 675 1029 q 613 993 639 993 z "},"Ө":{"ha":989,"x_min":64,"x_max":925,"o":"m 494 944 q 722 881 624 944 q 872 706 819 817 q 925 458 925 594 q 872 211 925 322 q 722 36 819 100 q 494 -28 624 -28 q 267 36 365 -28 q 117 211 169 100 q 64 458 64 322 q 117 706 64 594 q 267 881 169 817 q 494 944 365 944 m 494 889 q 290 785 367 889 q 204 500 213 681 l 785 500 q 699 785 776 681 q 494 889 622 889 m 494 28 q 706 140 628 28 q 786 444 783 251 l 203 444 q 283 140 206 251 q 494 28 361 28 z "},"Ӯ":{"ha":843,"x_min":-39,"x_max":815,"o":"m 183 28 q 313 51 256 28 q 392 132 369 75 l 406 167 l 149 736 q 108 815 128 786 q 54 865 89 844 q -39 889 19 886 l -39 917 l 128 917 q 226 876 188 917 q 294 764 264 835 l 482 347 l 732 917 l 815 917 l 474 132 q 253 -14 411 -14 l 183 -14 l 183 28 m 261 1028 l 261 1111 l 615 1111 l 615 1028 l 261 1028 z "},"Ӱ":{"ha":843,"x_min":-39,"x_max":815,"o":"m 183 28 q 313 51 256 28 q 392 132 369 75 l 406 167 l 149 736 q 108 815 128 786 q 54 865 89 844 q -39 889 19 886 l -39 917 l 128 917 q 226 876 188 917 q 294 764 264 835 l 482 347 l 732 917 l 815 917 l 474 132 q 253 -14 411 -14 l 183 -14 l 183 28 m 321 993 q 276 1011 294 993 q 258 1056 258 1029 q 276 1100 258 1082 q 321 1118 294 1118 q 365 1100 347 1118 q 383 1056 383 1082 q 365 1011 383 1029 q 321 993 347 993 m 557 993 q 513 1011 531 993 q 494 1056 494 1029 q 513 1100 494 1082 q 557 1118 531 1118 q 601 1100 583 1118 q 619 1056 619 1082 q 601 1011 619 1029 q 557 993 583 993 z "},"Ӳ":{"ha":843,"x_min":-39,"x_max":815,"o":"m 183 28 q 313 51 256 28 q 392 132 369 75 l 406 167 l 149 736 q 108 815 128 786 q 54 865 89 844 q -39 889 19 886 l -39 917 l 128 917 q 226 876 188 917 q 294 764 264 835 l 482 347 l 732 917 l 815 917 l 474 132 q 253 -14 411 -14 l 183 -14 l 183 28 m 347 979 l 403 1160 l 493 1160 l 389 979 l 347 979 m 486 979 l 542 1160 l 632 1160 l 528 979 l 486 979 z "},"Ӵ":{"ha":889,"x_min":6,"x_max":769,"o":"m 644 375 q 560 353 613 360 q 457 347 508 347 q 278 369 351 347 q 160 456 204 392 q 117 639 117 521 l 117 750 q 97 855 117 821 q 19 889 78 889 l 6 889 l 6 917 l 131 917 q 208 903 182 917 q 244 856 233 890 q 256 750 256 821 l 256 625 q 278 488 256 536 q 346 421 301 439 q 464 403 390 403 q 561 410 511 403 q 644 431 611 417 l 644 917 l 769 917 l 769 0 l 644 0 l 644 375 m 326 993 q 282 1011 300 993 q 264 1056 264 1029 q 282 1100 264 1082 q 326 1118 300 1118 q 371 1100 353 1118 q 389 1056 389 1082 q 371 1011 389 1029 q 326 993 353 993 m 563 993 q 518 1011 536 993 q 500 1056 500 1029 q 518 1100 500 1082 q 563 1118 536 1118 q 607 1100 589 1118 q 625 1056 625 1082 q 607 1011 625 1029 q 563 993 589 993 z "},"Ӷ":{"ha":746,"x_min":22,"x_max":717,"o":"m 599 917 q 717 806 717 917 l 717 701 l 689 701 q 515 861 689 861 l 272 861 l 272 56 l 349 56 q 383 42 369 56 q 397 7 397 28 l 397 -250 l 335 -250 q 278 -56 318 -111 q 161 0 238 0 l 147 0 l 147 750 q 128 855 147 821 q 50 889 108 889 l 22 889 l 22 917 l 599 917 z "},"Ӹ":{"ha":1156,"x_min":22,"x_max":1133,"o":"m 147 750 q 128 855 147 821 q 50 889 108 889 l 22 889 l 22 917 l 147 917 q 224 903 199 917 q 261 856 250 890 q 272 750 272 821 l 272 528 l 425 528 q 667 470 563 528 q 772 264 772 413 q 667 58 772 115 q 425 0 563 0 l 147 0 l 147 750 m 1008 0 q 931 13 957 0 q 894 61 906 26 q 883 167 883 96 l 883 917 l 1008 917 l 1008 167 q 1028 62 1008 96 q 1106 28 1047 28 l 1133 28 l 1133 0 l 1008 0 m 404 49 q 570 103 507 49 q 633 264 633 158 q 570 424 633 369 q 404 479 507 479 q 272 460 339 479 l 272 68 q 404 49 339 49 m 460 993 q 415 1011 433 993 q 397 1056 397 1029 q 415 1100 397 1082 q 460 1118 433 1118 q 504 1100 486 1118 q 522 1056 522 1082 q 504 1011 522 1029 q 460 993 486 993 m 696 993 q 651 1011 669 993 q 633 1056 633 1029 q 651 1100 633 1082 q 696 1118 669 1118 q 740 1100 722 1118 q 758 1056 758 1082 q 740 1011 758 1029 q 696 993 722 993 z "},"Ԛ":{"ha":992,"x_min":65,"x_max":940,"o":"m 940 -285 q 633 -222 775 -285 q 371 -10 492 -160 q 147 160 229 32 q 65 458 65 288 q 118 706 65 594 q 269 881 171 817 q 496 944 367 944 q 723 881 625 944 q 874 706 821 817 q 926 458 926 594 q 841 155 926 283 q 610 -12 756 26 q 686 -135 631 -79 q 811 -224 742 -192 q 940 -257 881 -257 l 940 -285 m 496 28 q 652 81 586 28 q 753 230 718 133 q 788 458 788 326 q 753 687 788 590 q 652 836 718 783 q 496 889 586 889 q 340 836 406 889 q 239 687 274 783 q 204 458 204 590 q 239 230 204 326 q 340 81 274 133 q 496 28 406 28 z "},"Ԝ":{"ha":1203,"x_min":-44,"x_max":1157,"o":"m 108 754 q 49 865 81 835 q -44 900 18 894 l -44 928 q -24 929 -37 928 q 3 931 -11 931 q 141 896 79 931 q 240 754 203 861 l 426 218 l 575 658 l 542 754 q 483 865 514 835 q 389 900 451 894 l 389 928 q 409 929 396 928 q 436 931 422 931 q 574 896 513 931 q 674 754 636 861 l 860 218 l 1097 917 l 1157 917 l 839 -14 l 811 -14 l 606 571 l 406 -14 l 378 -14 l 108 754 z "},"а":{"ha":668,"x_min":54,"x_max":575,"o":"m 256 -14 q 165 5 211 -14 q 87 67 119 24 q 54 181 54 110 q 152 331 54 286 q 408 375 250 375 l 450 375 q 413 561 450 511 q 304 611 375 611 q 204 585 242 611 q 151 493 167 558 l 89 493 q 94 567 89 540 q 124 618 100 594 q 206 655 149 643 q 332 667 264 667 q 510 606 444 667 q 575 375 575 546 l 575 0 l 506 0 l 457 63 l 450 63 q 376 8 425 31 q 256 -14 328 -14 m 318 49 q 394 71 364 49 q 450 132 425 93 l 450 319 l 408 319 q 246 281 306 319 q 186 181 186 243 q 224 83 186 117 q 318 49 263 49 z "},"б":{"ha":733,"x_min":83,"x_max":667,"o":"m 375 -14 q 163 68 242 -14 q 83 319 83 150 l 83 375 q 103 638 83 544 q 165 773 122 731 q 285 833 208 815 l 493 882 q 569 908 546 894 q 597 944 593 921 l 625 944 l 625 854 q 583 792 625 803 l 340 736 q 238 689 276 719 q 176 594 199 658 q 146 417 153 529 l 153 417 q 238 565 179 519 q 403 611 297 611 q 535 577 475 611 q 631 472 594 543 q 667 299 667 401 q 587 65 667 143 q 375 -14 507 -14 m 375 42 q 490 100 446 42 q 535 299 535 158 q 490 495 535 435 q 375 556 444 556 q 260 495 306 556 q 215 299 215 435 q 260 100 215 158 q 375 42 304 42 z "},"в":{"ha":696,"x_min":3,"x_max":635,"o":"m 114 486 q 94 591 114 557 q 17 625 75 625 l 3 625 l 3 653 l 343 653 q 533 614 460 653 q 607 486 607 575 q 574 391 607 426 q 468 340 540 356 q 592 284 549 325 q 635 181 635 243 q 558 41 635 82 q 343 0 481 0 l 114 0 l 114 486 m 315 368 q 433 399 390 368 q 475 486 475 429 q 435 574 475 543 q 329 604 394 604 q 282 600 308 604 q 239 590 256 596 l 239 368 l 315 368 m 329 49 q 503 181 503 49 q 315 313 503 313 l 239 313 l 239 63 q 282 53 256 57 q 329 49 308 49 z "},"г":{"ha":604,"x_min":3,"x_max":565,"o":"m 114 486 q 94 591 114 557 q 17 625 75 625 l 3 625 l 3 653 l 461 653 q 565 542 565 653 l 565 458 l 538 458 q 497 560 538 524 q 392 597 457 597 l 239 597 l 239 0 l 114 0 l 114 486 z "},"ѓ":{"ha":604,"x_min":3,"x_max":565,"o":"m 114 486 q 94 591 114 557 q 17 625 75 625 l 3 625 l 3 653 l 461 653 q 565 542 565 653 l 565 458 l 538 458 q 497 560 538 524 q 392 597 457 597 l 239 597 l 239 0 l 114 0 l 114 486 m 306 715 l 361 896 l 493 896 l 361 715 l 306 715 z "},"ґ":{"ha":600,"x_min":3,"x_max":565,"o":"m 114 486 q 94 591 114 557 q 17 625 75 625 l 3 625 l 3 653 l 392 653 q 497 690 457 653 q 538 792 538 726 l 565 792 l 565 653 q 510 597 565 597 l 239 597 l 239 0 l 114 0 l 114 486 z "},"д":{"ha":792,"x_min":22,"x_max":758,"o":"m 22 7 q 36 42 22 28 q 71 56 50 56 l 113 56 q 176 266 156 151 q 196 486 196 381 q 176 591 196 557 q 99 625 157 625 l 99 653 l 654 653 l 654 56 l 710 56 q 744 42 731 56 q 758 7 758 28 l 758 -215 l 703 -215 q 658 -49 692 -99 q 557 0 625 0 l 224 0 q 122 -49 156 0 q 78 -215 89 -99 l 22 -215 l 22 7 m 529 56 l 529 597 l 286 597 q 268 287 286 415 q 210 56 250 158 l 529 56 z "},"е":{"ha":678,"x_min":63,"x_max":618,"o":"m 354 -14 q 194 31 260 -14 q 96 153 129 76 q 63 326 63 231 q 96 499 63 421 q 192 622 129 576 q 340 667 256 667 q 549 588 481 667 q 618 361 618 510 l 615 306 l 194 306 q 244 115 194 189 q 382 42 294 42 q 492 69 447 42 q 576 153 538 97 l 604 132 q 497 21 558 56 q 354 -14 436 -14 m 486 361 q 450 547 486 483 q 340 611 414 611 q 265 578 299 611 q 213 489 232 546 q 194 361 194 432 l 486 361 z "},"ѐ":{"ha":678,"x_min":63,"x_max":618,"o":"m 354 -14 q 194 31 260 -14 q 96 153 129 76 q 63 326 63 231 q 96 499 63 421 q 192 622 129 576 q 340 667 256 667 q 549 588 481 667 q 618 361 618 510 l 615 306 l 194 306 q 244 115 194 189 q 382 42 294 42 q 492 69 447 42 q 576 153 538 97 l 604 132 q 497 21 558 56 q 354 -14 436 -14 m 486 361 q 450 547 486 483 q 340 611 414 611 q 265 578 299 611 q 213 489 232 546 q 194 361 194 432 l 486 361 m 325 715 l 193 896 l 325 896 l 381 715 l 325 715 z "},"ё":{"ha":678,"x_min":63,"x_max":618,"o":"m 354 -14 q 194 31 260 -14 q 96 153 129 76 q 63 326 63 231 q 96 499 63 421 q 192 622 129 576 q 340 667 256 667 q 549 588 481 667 q 618 361 618 510 l 615 306 l 194 306 q 244 115 194 189 q 382 42 294 42 q 492 69 447 42 q 576 153 538 97 l 604 132 q 497 21 558 56 q 354 -14 436 -14 m 486 361 q 450 547 486 483 q 340 611 414 611 q 265 578 299 611 q 213 489 232 546 q 194 361 194 432 l 486 361 m 221 729 q 176 747 194 729 q 158 792 158 765 q 176 836 158 818 q 221 854 194 854 q 265 836 247 854 q 283 792 283 818 q 265 747 283 765 q 221 729 247 729 m 457 729 q 413 747 431 729 q 394 792 394 765 q 413 836 394 818 q 457 854 431 854 q 501 836 483 854 q 519 792 519 818 q 501 747 519 765 q 457 729 483 729 z "},"ж":{"ha":953,"x_min":11,"x_max":942,"o":"m 81 -14 q 11 0 42 -14 l 11 26 q 97 60 58 33 q 171 139 135 88 l 317 340 l 185 556 q 131 602 165 586 q 53 618 96 618 l 53 653 l 88 653 q 268 563 213 653 l 414 319 l 414 653 l 539 653 l 539 319 l 685 563 q 865 653 740 653 l 900 653 l 900 618 q 822 602 857 618 q 768 556 788 586 l 636 340 l 782 139 q 856 60 818 88 q 942 26 894 33 l 942 0 q 872 -14 911 -14 q 685 97 764 -14 l 539 299 l 539 0 l 414 0 l 414 299 l 268 97 q 81 -14 189 -14 z "},"з":{"ha":632,"x_min":50,"x_max":571,"o":"m 293 -14 q 148 15 206 -14 q 50 97 90 44 l 78 118 q 155 63 113 83 q 265 42 197 42 q 439 174 439 42 q 244 306 439 306 l 182 306 l 182 361 l 244 361 q 374 392 329 361 q 418 486 418 424 q 379 578 418 546 q 279 611 340 611 q 153 572 203 611 q 99 465 103 532 l 71 465 q 76 564 71 533 q 106 618 82 594 q 300 667 154 667 q 478 624 407 667 q 550 486 550 582 q 513 388 550 426 q 411 333 476 350 q 529 276 488 318 q 571 174 571 235 q 293 -14 571 -14 z "},"и":{"ha":761,"x_min":1,"x_max":661,"o":"m 119 486 q 100 591 119 557 q 22 625 81 625 l 1 625 l 1 653 l 119 653 q 197 640 171 653 q 233 592 222 626 q 244 486 244 557 l 244 125 l 536 653 l 661 653 l 661 0 l 536 0 l 536 528 l 244 0 l 119 0 l 119 486 z "},"й":{"ha":761,"x_min":1,"x_max":661,"o":"m 119 486 q 100 591 119 557 q 22 625 81 625 l 1 625 l 1 653 l 119 653 q 197 640 171 653 q 233 592 222 626 q 244 486 244 557 l 244 125 l 536 653 l 661 653 l 661 0 l 536 0 l 536 528 l 244 0 l 119 0 l 119 486 m 390 724 q 210 835 271 724 l 238 856 q 300 814 265 828 q 390 800 335 800 q 481 814 446 800 q 543 856 515 828 l 571 835 q 390 724 510 724 z "},"ѝ":{"ha":761,"x_min":1,"x_max":661,"o":"m 119 486 q 100 591 119 557 q 22 625 81 625 l 1 625 l 1 653 l 119 653 q 197 640 171 653 q 233 592 222 626 q 244 486 244 557 l 244 125 l 536 653 l 661 653 l 661 0 l 536 0 l 536 528 l 244 0 l 119 0 l 119 486 m 367 715 l 235 896 l 367 896 l 422 715 l 367 715 z "},"к":{"ha":690,"x_min":-1,"x_max":679,"o":"m 610 -14 q 408 97 497 -14 l 249 299 l 249 0 l 124 0 l 124 486 q 104 591 124 557 q 26 625 85 625 l -1 625 l -1 653 l 124 653 q 201 640 175 653 q 238 592 226 626 q 249 486 249 557 l 249 319 l 422 563 q 497 630 454 607 q 603 653 539 653 l 638 653 l 638 618 q 513 556 557 618 l 360 340 l 519 139 q 597 61 558 89 q 679 26 635 33 l 679 0 q 610 -14 649 -14 z "},"ќ":{"ha":690,"x_min":-1,"x_max":679,"o":"m 610 -14 q 408 97 497 -14 l 249 299 l 249 0 l 124 0 l 124 486 q 104 591 124 557 q 26 625 85 625 l -1 625 l -1 653 l 124 653 q 201 640 175 653 q 238 592 226 626 q 249 486 249 557 l 249 319 l 422 563 q 497 630 454 607 q 603 653 539 653 l 638 653 l 638 618 q 513 556 557 618 l 360 340 l 519 139 q 597 61 558 89 q 679 26 635 33 l 679 0 q 610 -14 649 -14 m 307 715 l 363 896 l 494 896 l 363 715 l 307 715 z "},"л":{"ha":758,"x_min":13,"x_max":658,"o":"m 81 -14 q 47 -10 69 -14 q 13 -1 24 -6 l 13 33 q 143 129 93 33 q 193 486 193 225 q 173 591 193 557 q 94 625 153 625 l 94 653 l 658 653 l 658 0 l 533 0 l 533 597 l 289 597 l 289 486 q 231 94 289 201 q 81 -14 174 -14 z "},"м":{"ha":901,"x_min":100,"x_max":878,"o":"m 878 -28 q 701 33 754 -28 q 649 208 649 93 l 649 507 l 419 0 l 392 0 l 156 521 l 156 0 l 100 0 l 100 653 l 232 653 l 440 194 l 649 653 l 774 653 l 774 208 q 803 63 774 126 q 878 0 833 0 l 878 -28 z "},"н":{"ha":768,"x_min":1,"x_max":765,"o":"m 119 486 q 100 591 119 557 q 22 625 81 625 l 1 625 l 1 653 l 119 653 q 197 640 171 653 q 233 592 222 626 q 244 486 244 557 l 244 354 l 522 354 l 522 653 l 647 653 l 647 167 q 667 62 647 96 q 744 28 686 28 l 765 28 l 765 0 l 647 0 q 570 13 596 0 q 533 61 544 26 q 522 167 522 96 l 522 299 l 244 299 l 244 0 l 119 0 l 119 486 z "},"о":{"ha":736,"x_min":63,"x_max":674,"o":"m 368 -14 q 204 31 274 -14 q 99 154 135 76 q 63 326 63 232 q 99 499 63 421 q 204 622 135 576 q 368 667 274 667 q 532 622 463 667 q 638 499 601 576 q 674 326 674 421 q 638 154 674 232 q 532 31 601 76 q 368 -14 463 -14 m 368 42 q 459 79 419 42 q 520 182 499 117 q 542 326 542 247 q 520 471 542 406 q 459 574 499 536 q 368 611 419 611 q 277 574 317 611 q 216 471 238 536 q 194 326 194 406 q 216 182 194 247 q 277 79 238 117 q 368 42 317 42 z "},"п":{"ha":742,"x_min":3,"x_max":642,"o":"m 114 486 q 94 591 114 557 q 17 625 75 625 l 3 625 l 3 653 l 642 653 l 642 0 l 517 0 l 517 597 l 239 597 l 239 0 l 114 0 l 114 486 z "},"р":{"ha":747,"x_min":-4,"x_max":683,"o":"m 121 486 q 101 591 121 557 q 24 625 82 625 l -4 625 l -4 653 l 121 653 q 201 638 174 653 q 239 590 228 624 l 246 590 q 317 644 271 622 q 433 667 363 667 q 618 570 553 667 q 683 326 683 474 q 616 82 683 178 q 419 -14 549 -14 q 326 -3 367 -14 q 246 28 286 8 l 246 -264 l 121 -264 l 121 486 m 378 42 q 509 119 467 42 q 551 326 551 197 q 511 533 551 454 q 392 611 471 611 q 246 528 299 611 l 246 83 q 318 53 288 64 q 378 42 349 42 z "},"с":{"ha":671,"x_min":63,"x_max":625,"o":"m 368 -14 q 199 31 268 -14 q 97 153 131 76 q 63 326 63 231 q 97 499 63 422 q 199 622 131 576 q 368 667 268 667 q 569 618 521 667 q 599 560 593 594 q 604 438 604 526 l 576 438 q 522 567 571 524 q 396 611 474 611 q 245 532 296 611 q 194 326 194 453 q 245 121 194 200 q 396 42 296 42 q 513 69 467 42 q 597 153 558 96 l 625 132 q 517 20 579 54 q 368 -14 454 -14 z "},"т":{"ha":658,"x_min":40,"x_max":638,"o":"m 283 597 l 214 597 q 108 560 149 597 q 68 458 68 524 l 40 458 l 40 542 q 144 653 40 653 l 638 653 l 638 597 l 408 597 l 408 0 l 283 0 l 283 597 z "},"у":{"ha":714,"x_min":-14,"x_max":674,"o":"m 146 -236 q 258 -205 214 -236 q 333 -90 301 -174 l 361 -14 l 139 528 q -14 639 100 628 l -14 667 l 104 667 q 271 556 225 667 l 429 171 l 604 653 l 674 653 l 403 -90 q 314 -239 363 -200 q 188 -278 265 -278 l 146 -278 l 146 -236 z "},"ў":{"ha":714,"x_min":-14,"x_max":674,"o":"m 146 -236 q 258 -205 214 -236 q 333 -90 301 -174 l 361 -14 l 139 528 q -14 639 100 628 l -14 667 l 104 667 q 271 556 225 667 l 429 171 l 604 653 l 674 653 l 403 -90 q 314 -239 363 -200 q 188 -278 265 -278 l 146 -278 l 146 -236 m 417 711 q 236 822 297 711 l 264 843 q 326 801 292 815 q 417 788 361 788 q 507 801 472 788 q 569 843 542 815 l 597 822 q 417 711 536 711 z "},"ф":{"ha":919,"x_min":64,"x_max":856,"o":"m 397 -14 q 150 85 236 -8 q 64 326 64 179 q 150 567 64 474 q 397 667 236 661 l 397 750 q 378 855 397 821 q 300 889 358 889 l 279 889 l 279 917 l 397 917 q 474 903 449 917 q 511 856 500 890 q 522 750 522 821 l 522 667 q 769 567 683 661 q 856 326 856 474 q 769 85 856 179 q 522 -14 683 -8 l 522 -264 l 397 -264 l 397 -14 m 399 618 q 246 531 296 607 q 196 326 196 456 q 246 122 196 197 q 399 35 296 46 l 399 618 m 521 35 q 674 122 624 46 q 724 326 724 197 q 674 531 724 456 q 521 618 624 607 l 521 35 z "},"х":{"ha":678,"x_min":11,"x_max":671,"o":"m 275 313 l 154 514 q 11 625 96 615 l 11 653 l 129 653 q 215 624 175 653 q 286 542 256 594 l 372 396 l 553 653 l 622 653 l 400 340 l 521 139 q 671 28 578 39 l 671 0 l 546 0 q 460 29 500 0 q 389 111 419 58 l 303 257 l 122 0 l 53 0 l 275 313 z "},"ч":{"ha":740,"x_min":15,"x_max":640,"o":"m 515 268 q 376 243 453 243 q 198 287 269 243 q 126 444 126 331 l 126 486 q 107 591 126 557 q 29 625 88 625 l 15 625 l 15 653 l 133 653 q 210 640 185 653 q 247 592 236 626 q 258 486 258 557 l 258 431 q 294 331 258 363 q 383 299 331 299 q 515 324 453 299 l 515 653 l 640 653 l 640 0 l 515 0 l 515 268 z "},"ц":{"ha":785,"x_min":1,"x_max":751,"o":"m 696 -215 q 651 -49 685 -99 q 550 0 618 0 l 119 0 l 119 486 q 100 591 119 557 q 22 625 81 625 l 1 625 l 1 653 l 119 653 q 197 640 171 653 q 233 592 222 626 q 244 486 244 557 l 244 56 l 522 56 l 522 653 l 647 653 l 647 56 l 703 56 q 738 42 724 56 q 751 7 751 28 l 751 -215 l 696 -215 z "},"ш":{"ha":1025,"x_min":1,"x_max":925,"o":"m 119 486 q 100 591 119 557 q 22 625 81 625 l 1 625 l 1 653 l 119 653 q 197 640 171 653 q 233 592 222 626 q 244 486 244 557 l 244 56 l 460 56 l 460 653 l 585 653 l 585 56 l 800 56 l 800 653 l 925 653 l 925 0 l 119 0 l 119 486 z "},"щ":{"ha":1063,"x_min":1,"x_max":1029,"o":"m 974 -215 q 929 -49 963 -99 q 828 0 896 0 l 119 0 l 119 486 q 100 591 119 557 q 22 625 81 625 l 1 625 l 1 653 l 119 653 q 197 640 171 653 q 233 592 222 626 q 244 486 244 557 l 244 56 l 460 56 l 460 653 l 585 653 l 585 56 l 800 56 l 800 653 l 925 653 l 925 56 l 981 56 q 1015 42 1001 56 q 1029 7 1029 28 l 1029 -215 l 974 -215 z "},"џ":{"ha":747,"x_min":1,"x_max":647,"o":"m 335 0 l 119 0 l 119 486 q 100 591 119 557 q 22 625 81 625 l 1 625 l 1 653 l 119 653 q 197 640 171 653 q 233 592 222 626 q 244 486 244 557 l 244 56 l 522 56 l 522 653 l 647 653 l 647 0 l 432 0 l 411 -208 l 356 -208 l 335 0 z "},"ь":{"ha":668,"x_min":1,"x_max":633,"o":"m 119 486 q 100 591 119 557 q 22 625 81 625 l 1 625 l 1 653 l 119 653 q 197 640 171 653 q 233 592 222 626 q 244 486 244 557 l 244 389 l 349 389 q 557 344 481 389 q 633 194 633 300 q 557 44 633 89 q 349 0 481 0 l 119 0 l 119 486 m 335 49 q 459 83 417 49 q 501 194 501 118 q 459 306 501 271 q 335 340 417 340 q 288 336 314 340 q 244 326 261 332 l 244 63 q 288 53 261 57 q 335 49 314 49 z "},"ъ":{"ha":811,"x_min":49,"x_max":771,"o":"m 257 597 l 243 597 q 128 553 168 597 q 83 417 89 510 l 49 417 l 49 604 q 63 639 49 625 q 97 653 76 653 l 382 653 l 382 389 l 486 389 q 694 344 618 389 q 771 194 771 300 q 694 44 771 89 q 486 0 618 0 l 257 0 l 257 597 m 472 49 q 597 83 554 49 q 639 194 639 118 q 597 306 639 271 q 472 340 554 340 q 425 336 451 340 q 382 326 399 332 l 382 63 q 425 53 399 57 q 472 49 451 49 z "},"ы":{"ha":956,"x_min":1,"x_max":953,"o":"m 119 486 q 100 591 119 557 q 22 625 81 625 l 1 625 l 1 653 l 119 653 q 197 640 171 653 q 233 592 222 626 q 244 486 244 557 l 244 389 l 349 389 q 619 194 619 389 q 349 0 619 0 l 119 0 l 119 486 m 835 0 q 758 13 783 0 q 721 61 732 26 q 710 167 710 96 l 710 653 l 835 653 l 835 167 q 854 62 835 96 q 932 28 874 28 l 953 28 l 953 0 l 835 0 m 335 49 q 447 83 407 49 q 488 194 488 118 q 447 306 488 271 q 335 340 407 340 q 288 336 314 340 q 244 326 261 332 l 244 63 q 288 53 261 57 q 335 49 314 49 z "},"љ":{"ha":1072,"x_min":13,"x_max":1032,"o":"m 81 -14 q 47 -10 69 -14 q 13 -1 24 -6 l 13 33 q 143 129 93 33 q 193 486 193 225 q 173 591 193 557 q 94 625 153 625 l 94 653 l 643 653 l 643 389 l 747 389 q 956 344 879 389 q 1032 194 1032 300 q 956 44 1032 89 q 747 0 879 0 l 518 0 l 518 597 l 289 597 l 289 486 q 231 94 289 201 q 81 -14 174 -14 m 733 49 q 858 83 815 49 q 900 194 900 118 q 858 306 900 271 q 733 340 815 340 q 686 336 713 340 q 643 326 660 332 l 643 63 q 686 53 660 57 q 733 49 713 49 z "},"њ":{"ha":1060,"x_min":1,"x_max":1022,"o":"m 119 486 q 100 591 119 557 q 22 625 81 625 l 1 625 l 1 653 l 119 653 q 197 640 171 653 q 233 592 222 626 q 244 486 244 557 l 244 361 l 508 361 l 508 653 l 633 653 l 633 361 l 738 361 q 1022 181 1022 361 q 946 41 1022 82 q 738 0 869 0 l 508 0 l 508 306 l 244 306 l 244 0 l 119 0 l 119 486 m 724 49 q 847 81 804 49 q 890 181 890 114 q 847 280 890 247 q 724 313 804 313 q 676 308 703 313 q 633 299 650 304 l 633 63 q 676 53 650 57 q 724 49 703 49 z "},"ѕ":{"ha":619,"x_min":68,"x_max":561,"o":"m 318 -14 q 103 42 158 -14 q 74 95 79 65 q 68 188 68 125 l 96 188 q 156 80 108 118 q 290 42 204 42 q 405 68 367 42 q 443 139 443 94 q 413 208 443 179 q 318 264 383 238 l 235 299 q 110 376 151 332 q 68 486 68 421 q 132 619 68 571 q 297 667 196 667 q 506 611 450 667 q 535 558 529 588 q 540 465 540 529 l 513 465 q 454 573 501 535 q 325 611 407 611 q 223 584 260 611 q 186 514 186 557 q 297 396 186 442 l 381 361 q 518 278 475 322 q 561 167 561 235 q 493 34 561 82 q 318 -14 425 -14 z "},"є":{"ha":679,"x_min":63,"x_max":625,"o":"m 368 -14 q 199 31 268 -14 q 97 153 131 76 q 63 326 63 231 q 97 499 63 422 q 199 622 131 576 q 368 667 268 667 q 569 618 521 667 q 599 560 593 594 q 604 438 604 526 l 576 438 q 522 567 571 524 q 396 611 474 611 q 251 538 301 611 q 194 347 200 464 l 486 347 l 486 292 l 194 292 q 251 110 200 179 q 396 42 303 42 q 513 69 467 42 q 597 153 558 96 l 625 132 q 517 20 579 54 q 368 -14 454 -14 z "},"э":{"ha":679,"x_min":54,"x_max":617,"o":"m 311 -14 q 163 20 225 -14 q 54 132 100 54 l 82 153 q 167 69 121 96 q 283 42 213 42 q 428 110 376 42 q 485 292 479 179 l 193 292 l 193 347 l 485 347 q 428 538 479 464 q 283 611 378 611 q 157 567 206 611 q 103 438 108 524 l 75 438 q 81 560 75 526 q 110 618 86 594 q 311 667 158 667 q 480 622 411 667 q 583 499 549 576 q 617 326 617 422 q 583 153 617 231 q 480 31 549 76 q 311 -14 411 -14 z "},"і":{"ha":342,"x_min":-4,"x_max":246,"o":"m 174 736 q 119 763 142 736 q 96 825 96 789 q 113 871 96 854 q 160 888 131 888 q 215 861 192 888 q 238 799 238 835 q 220 753 238 769 q 174 736 203 736 m 121 486 q 101 591 121 557 q 24 625 82 625 l -4 625 l -4 653 l 121 653 q 198 640 172 653 q 235 592 224 626 q 246 486 246 557 l 246 0 l 121 0 l 121 486 z "},"ї":{"ha":342,"x_min":-6,"x_max":350,"o":"m 72 750 q 17 776 40 750 q -6 839 -6 803 q 12 885 -6 868 q 58 901 29 901 q 113 875 90 901 q 136 813 136 849 q 119 767 136 783 q 72 750 101 750 m 286 750 q 231 776 254 750 q 208 839 208 803 q 226 885 208 868 q 272 901 243 901 q 327 875 304 901 q 350 813 350 849 q 333 767 350 783 q 286 750 315 750 m 121 486 q 101 591 121 557 q 24 625 82 625 l -4 625 l -4 653 l 121 653 q 198 640 172 653 q 235 592 224 626 q 246 486 246 557 l 246 0 l 121 0 l 121 486 z "},"ј":{"ha":342,"x_min":-11,"x_max":246,"o":"m 174 736 q 119 763 142 736 q 96 825 96 789 q 113 871 96 854 q 160 888 131 888 q 215 861 192 888 q 238 799 238 835 q 220 753 238 769 q 174 736 203 736 m -11 -236 q 88 -165 56 -236 q 121 35 121 -94 l 121 486 q 101 591 121 557 q 24 625 82 625 l -4 625 l -4 653 l 121 653 q 198 640 172 653 q 235 592 224 626 q 246 486 246 557 l 246 35 q 223 -138 246 -74 q 144 -233 200 -203 q -11 -264 89 -264 l -11 -236 z "},"ћ":{"ha":736,"x_min":3,"x_max":642,"o":"m 100 694 l 3 694 l 3 750 l 100 750 l 100 833 l 169 917 l 225 917 l 225 750 l 392 750 l 392 694 l 225 694 l 225 528 q 301 577 254 557 q 406 597 347 597 q 576 542 510 597 q 642 347 642 486 l 642 0 l 517 0 l 517 347 q 473 490 517 444 q 364 535 429 535 q 225 461 290 535 l 225 0 l 100 0 l 100 694 z "},"ю":{"ha":960,"x_min":1,"x_max":897,"o":"m 613 -14 q 467 25 531 -14 q 367 135 404 64 q 328 299 331 206 l 244 299 l 244 0 l 119 0 l 119 486 q 100 591 119 557 q 22 625 81 625 l 1 625 l 1 653 l 119 653 q 197 640 171 653 q 233 592 222 626 q 244 486 244 557 l 244 354 l 328 354 q 367 518 331 447 q 467 628 404 589 q 613 667 531 667 q 763 624 699 667 q 863 503 828 581 q 897 326 897 426 q 863 149 897 226 q 763 29 828 72 q 613 -14 699 -14 m 613 42 q 724 115 682 42 q 765 326 765 189 q 724 538 765 464 q 613 611 682 611 q 501 538 543 611 q 460 326 460 464 q 501 115 460 189 q 613 42 543 42 z "},"я":{"ha":708,"x_min":24,"x_max":683,"o":"m 100 -14 q 24 0 65 -14 l 24 28 q 96 61 67 32 q 156 139 125 90 l 239 285 q 126 344 172 296 q 79 465 79 392 q 357 653 79 653 l 683 653 l 683 625 q 606 591 625 625 q 586 486 586 557 l 586 0 l 461 0 l 461 278 l 353 278 l 269 111 q 197 16 236 46 q 100 -14 157 -14 m 371 326 q 418 331 392 326 q 461 340 444 335 l 461 590 q 418 600 444 596 q 371 604 392 604 q 211 465 211 604 q 371 326 211 326 z "},"ђ":{"ha":736,"x_min":3,"x_max":642,"o":"m 385 -167 q 484 -96 451 -167 q 517 104 517 -25 l 517 347 q 473 490 517 444 q 364 535 429 535 q 225 461 290 535 l 225 0 l 100 0 l 100 694 l 3 694 l 3 750 l 100 750 l 100 833 l 169 917 l 225 917 l 225 750 l 461 750 l 461 694 l 225 694 l 225 528 q 301 577 254 557 q 406 597 347 597 q 576 542 510 597 q 642 347 642 486 l 642 104 q 619 -69 642 -4 q 540 -164 596 -133 q 385 -194 485 -194 l 385 -167 z "},"ѣ":{"ha":790,"x_min":40,"x_max":756,"o":"m 471 389 q 679 344 603 389 q 756 194 756 300 q 679 44 756 89 q 471 0 603 0 l 242 0 l 242 597 l 214 597 q 108 560 149 597 q 68 458 68 524 l 40 458 l 40 542 q 144 653 40 653 l 242 653 l 242 750 q 222 855 242 821 q 144 889 203 889 l 124 889 l 124 917 l 242 917 q 319 903 293 917 q 356 856 344 890 q 367 750 367 821 l 367 653 l 610 653 l 610 597 l 367 597 l 367 389 l 471 389 m 457 49 q 581 83 539 49 q 624 194 624 118 q 581 306 624 271 q 457 340 539 340 q 410 336 436 340 q 367 326 383 332 l 367 63 q 410 53 383 57 q 457 49 436 49 z "},"ѫ":{"ha":954,"x_min":11,"x_max":943,"o":"m 81 -14 q 13 0 40 -14 l 11 26 q 97 60 58 33 q 172 139 136 88 l 271 278 q 324 336 301 319 q 388 354 347 353 l 214 556 q 81 618 160 618 l 82 653 l 874 653 l 872 618 q 742 556 793 618 l 569 354 l 579 354 q 634 332 606 354 q 697 257 663 310 l 767 153 q 849 67 801 101 q 942 26 896 33 l 943 0 q 872 -14 910 -14 q 685 97 764 -14 l 540 299 l 540 0 l 415 0 l 415 299 l 268 97 q 81 -14 189 -14 m 479 349 l 692 597 l 271 597 l 479 349 z "},"ѳ":{"ha":833,"x_min":63,"x_max":674,"o":"m 368 667 q 532 622 463 667 q 638 499 601 576 q 674 326 674 421 q 638 154 674 232 q 532 31 601 76 q 368 -14 463 -14 q 204 31 274 -14 q 99 154 135 76 q 63 326 63 232 q 99 499 63 421 q 204 622 135 576 q 368 667 274 667 m 368 42 q 459 79 419 42 q 520 182 499 117 q 542 326 542 247 q 520 471 542 406 q 459 574 499 536 q 368 611 419 611 q 251 542 299 611 q 196 368 204 474 l 528 368 l 528 313 l 194 313 q 245 119 197 196 q 368 42 293 42 z "},"ѵ":{"ha":751,"x_min":-7,"x_max":710,"o":"m 710 625 q 634 588 663 619 q 574 475 606 556 l 381 -12 l 353 -14 l 138 493 q 74 602 104 571 q -7 636 43 633 l -7 664 q 13 665 0 664 q 40 667 26 667 q 174 630 114 667 q 276 493 233 593 l 396 204 l 504 472 q 581 616 546 578 q 661 654 615 654 q 708 653 696 654 l 710 625 z "},"ғ":{"ha":604,"x_min":3,"x_max":565,"o":"m 461 653 q 565 542 565 653 l 565 458 l 538 458 q 497 560 538 524 q 392 597 457 597 l 239 597 l 239 354 l 413 354 l 413 299 l 239 299 l 239 0 l 114 0 l 114 299 l 24 299 l 24 354 l 114 354 l 114 486 q 94 591 114 557 q 17 625 75 625 l 3 625 l 3 653 l 461 653 z "},"ҕ":{"ha":663,"x_min":3,"x_max":628,"o":"m 357 404 q 559 328 490 404 q 628 104 628 253 q 590 -49 628 19 q 476 -156 551 -117 q 294 -194 401 -194 l 294 -167 q 408 -127 361 -167 q 479 -25 456 -87 q 503 104 503 38 q 460 283 503 226 q 318 339 418 339 q 239 332 285 339 l 239 0 l 114 0 l 114 486 q 94 591 114 557 q 17 625 75 625 l 3 625 l 3 653 l 461 653 q 565 542 565 653 l 565 458 l 538 458 q 497 560 538 524 q 392 597 457 597 l 239 597 l 239 393 q 357 404 306 404 z "},"җ":{"ha":971,"x_min":11,"x_max":971,"o":"m 922 56 q 957 42 943 56 q 971 7 971 28 l 971 -215 l 915 -215 q 883 -74 906 -124 q 821 -7 861 -24 q 685 97 746 13 l 539 299 l 539 0 l 414 0 l 414 299 l 268 97 q 81 -14 189 -14 q 11 0 42 -14 l 11 26 q 97 60 58 33 q 171 139 135 88 l 317 340 l 185 556 q 131 602 165 586 q 53 618 96 618 l 53 653 l 88 653 q 268 563 213 653 l 414 319 l 414 653 l 539 653 l 539 319 l 685 563 q 865 653 740 653 l 900 653 l 900 618 q 822 602 857 618 q 768 556 788 586 l 636 340 l 782 139 q 822 90 803 110 q 867 63 844 69 q 922 56 889 56 z "},"ҙ":{"ha":632,"x_min":50,"x_max":571,"o":"m 571 174 q 518 47 571 90 q 375 -8 465 3 l 375 -215 l 319 -215 q 304 -73 311 -115 q 282 -14 297 -31 q 144 17 199 -12 q 50 97 89 46 l 78 118 q 155 63 113 83 q 265 42 197 42 q 439 174 439 42 q 244 306 439 306 l 182 306 l 182 361 l 244 361 q 374 392 329 361 q 418 486 418 424 q 379 578 418 546 q 279 611 340 611 q 153 572 203 611 q 99 465 103 532 l 71 465 q 76 564 71 533 q 106 618 82 594 q 300 667 154 667 q 478 624 407 667 q 550 486 550 582 q 513 388 550 426 q 411 333 476 350 q 529 276 488 318 q 571 174 571 235 z "},"қ":{"ha":711,"x_min":-1,"x_max":711,"o":"m 663 56 q 697 42 683 56 q 711 7 711 28 l 711 -215 l 656 -215 q 623 -72 646 -122 q 557 -7 600 -22 q 408 97 476 13 l 249 299 l 249 0 l 124 0 l 124 486 q 104 591 124 557 q 26 625 85 625 l -1 625 l -1 653 l 124 653 q 201 640 175 653 q 238 592 226 626 q 249 486 249 557 l 249 319 l 422 563 q 497 630 454 607 q 603 653 539 653 l 638 653 l 638 618 q 513 556 557 618 l 360 340 l 519 139 q 551 101 542 111 q 601 65 576 74 q 663 56 625 56 z "},"ҝ":{"ha":774,"x_min":-1,"x_max":763,"o":"m 603 139 q 680 61 642 89 q 763 26 718 33 l 763 0 q 693 -14 732 -14 q 492 97 581 -14 l 351 274 l 351 144 l 296 144 l 296 282 l 249 282 l 249 0 l 124 0 l 124 486 q 104 591 124 557 q 26 625 85 625 l -1 625 l -1 653 l 124 653 q 201 640 175 653 q 238 592 226 626 q 249 486 249 557 l 249 338 l 296 338 l 296 471 l 351 471 l 351 347 l 506 563 q 580 630 538 607 q 686 653 622 653 l 721 653 l 721 618 q 596 556 640 618 l 443 340 l 603 139 z "},"ҡ":{"ha":819,"x_min":40,"x_max":808,"o":"m 739 -14 q 538 97 626 -14 l 378 299 l 378 0 l 253 0 l 253 597 l 214 597 q 108 560 149 597 q 68 458 68 524 l 40 458 l 40 542 q 144 653 40 653 l 378 653 l 378 319 l 551 563 q 626 630 583 607 q 732 653 668 653 l 767 653 l 767 618 q 642 556 686 618 l 489 340 l 649 139 q 726 61 688 89 q 808 26 764 33 l 808 0 q 739 -14 778 -14 z "},"ң":{"ha":785,"x_min":1,"x_max":751,"o":"m 696 -215 q 651 -49 685 -99 q 550 0 618 0 l 522 0 l 522 299 l 244 299 l 244 0 l 119 0 l 119 486 q 100 591 119 557 q 22 625 81 625 l 1 625 l 1 653 l 119 653 q 197 640 171 653 q 233 592 222 626 q 244 486 244 557 l 244 354 l 522 354 l 522 653 l 647 653 l 647 56 l 703 56 q 738 42 724 56 q 751 7 751 28 l 751 -215 l 696 -215 z "},"ԥ":{"ha":779,"x_min":3,"x_max":746,"o":"m 697 56 q 732 42 718 56 q 746 7 746 28 l 746 -215 l 690 -215 q 646 -49 679 -99 q 544 0 613 0 l 517 0 l 517 597 l 239 597 l 239 0 l 114 0 l 114 486 q 94 591 114 557 q 17 625 75 625 l 3 625 l 3 653 l 642 653 l 642 56 l 697 56 z "},"ҫ":{"ha":671,"x_min":63,"x_max":625,"o":"m 625 132 q 431 -8 553 11 l 431 -215 l 375 -215 q 359 -74 367 -118 q 336 -12 351 -29 q 133 92 203 -3 q 63 326 63 186 q 97 499 63 422 q 199 622 131 576 q 368 667 268 667 q 569 618 521 667 q 599 560 593 594 q 604 438 604 526 l 576 438 q 522 567 571 524 q 396 611 474 611 q 245 532 296 611 q 194 326 194 453 q 245 121 194 200 q 396 42 296 42 q 513 69 467 42 q 597 153 558 96 l 625 132 z "},"ү":{"ha":690,"x_min":-7,"x_max":665,"o":"m 310 0 l 138 493 q 74 602 104 571 q -7 636 43 633 l -7 664 q 13 665 0 664 q 40 667 26 667 q 174 630 114 667 q 276 493 233 593 l 401 107 l 596 653 l 665 653 l 435 25 l 435 -264 l 310 -264 l 310 0 z "},"ұ":{"ha":690,"x_min":-7,"x_max":665,"o":"m 436 28 l 564 28 l 564 -28 l 435 -28 l 435 -264 l 310 -264 l 310 -28 l 175 -28 l 175 28 l 300 28 l 138 493 q 74 602 104 571 q -7 636 43 633 l -7 664 q 13 665 0 664 q 40 667 26 667 q 174 630 114 667 q 276 493 233 593 l 401 107 l 596 653 l 665 653 l 436 28 z "},"ҷ":{"ha":740,"x_min":15,"x_max":743,"o":"m 694 56 q 729 42 715 56 q 743 7 743 28 l 743 -215 l 688 -215 q 643 -49 676 -99 q 542 0 610 0 l 514 0 l 514 56 l 515 56 l 515 268 q 376 243 453 243 q 198 287 269 243 q 126 444 126 331 l 126 486 q 107 591 126 557 q 29 625 88 625 l 15 625 l 15 653 l 133 653 q 210 640 185 653 q 247 592 236 626 q 258 486 258 557 l 258 431 q 294 331 258 363 q 383 299 331 299 q 515 324 453 299 l 515 653 l 640 653 l 640 56 l 694 56 z "},"ҹ":{"ha":740,"x_min":15,"x_max":640,"o":"m 640 653 l 640 0 l 515 0 l 515 268 q 424 246 472 251 l 424 110 l 368 110 l 368 243 q 195 289 264 244 q 126 444 126 333 l 126 486 q 107 591 126 557 q 29 625 88 625 l 15 625 l 15 653 l 133 653 q 210 640 185 653 q 247 592 236 626 q 258 486 258 557 l 258 431 q 290 335 258 368 q 368 300 321 303 l 368 436 l 424 436 l 424 301 q 515 324 474 307 l 515 653 l 640 653 z "},"һ":{"ha":735,"x_min":-25,"x_max":642,"o":"m 100 750 q 81 855 100 821 q 3 889 61 889 l -25 889 l -25 917 l 100 917 q 177 903 151 917 q 214 856 203 890 q 225 750 225 821 l 225 597 q 301 647 254 626 q 406 667 347 667 q 576 611 510 667 q 642 417 642 556 l 642 0 l 517 0 l 517 417 q 473 559 517 514 q 364 604 429 604 q 225 531 290 604 l 225 0 l 100 0 l 100 750 z "},"ӏ":{"ha":336,"x_min":-19,"x_max":231,"o":"m 106 750 q 86 855 106 821 q 8 889 67 889 l -19 889 l -19 917 l 106 917 q 183 903 157 917 q 219 856 208 890 q 231 750 231 821 l 231 0 l 106 0 l 106 750 z "},"ӂ":{"ha":953,"x_min":11,"x_max":942,"o":"m 81 -14 q 11 0 42 -14 l 11 26 q 97 60 58 33 q 171 139 135 88 l 317 340 l 185 556 q 131 602 165 586 q 53 618 96 618 l 53 653 l 88 653 q 268 563 213 653 l 414 319 l 414 653 l 539 653 l 539 319 l 685 563 q 865 653 740 653 l 900 653 l 900 618 q 822 602 857 618 q 768 556 788 586 l 636 340 l 782 139 q 856 60 818 88 q 942 26 894 33 l 942 0 q 872 -14 911 -14 q 685 97 764 -14 l 539 299 l 539 0 l 414 0 l 414 299 l 268 97 q 81 -14 189 -14 m 476 710 q 296 821 357 710 l 324 842 q 386 800 351 814 q 476 786 421 786 q 567 800 532 786 q 629 842 601 814 l 657 821 q 476 710 596 710 z "},"ӌ":{"ha":710,"x_min":15,"x_max":640,"o":"m 640 653 l 640 0 l 613 0 q 511 -49 544 0 q 467 -215 478 -99 l 411 -215 l 411 7 q 425 42 411 28 q 460 56 439 56 l 515 56 l 515 268 q 376 243 453 243 q 198 287 269 243 q 126 444 126 331 l 126 486 q 107 591 126 557 q 29 625 88 625 l 15 625 l 15 653 l 133 653 q 210 640 185 653 q 247 592 236 626 q 258 486 258 557 l 258 431 q 294 331 258 363 q 383 299 331 299 q 515 324 453 299 l 515 653 l 640 653 z "}}}
